<?xml version="1.0" standalone="no"?>
<!DOCTYPE svg PUBLIC "-//W3C//DTD SVG 1.1//EN" "http://www.w3.org/Graphics/SVG/1.1/DTD/svg11.dtd">
<svg xmlns="http://www.w3.org/2000/svg">
<metadata>Copyright (C) 2018 by original authors @ fontello.com</metadata>
<defs>
<font id="fontello" horiz-adv-x="1000" >
<font-face font-family="fontello" font-weight="400" font-stretch="normal" units-per-em="1000" ascent="850" descent="-150" />
<missing-glyph horiz-adv-x="1000" />
<glyph glyph-name="list11" unicode="&#xe800;" d="M279-90c-129 142-259 408-269 547-11 141 61 277 184 350 55 33 73 37 161 37 88 0 106-4 161-37 78-46 134-116 164-202 29-81 30-152 5-242-56-202-255-511-330-511-13 0-48 27-76 58z m163 34c122 137 250 410 250 534 1 140-109 301-232 340-79 25-131 25-209 0-121-38-233-199-233-335 0-90 61-247 158-408 57-96 155-210 180-210 9 0 48 35 86 79z m-308 270c0 7 19 13 41 13h41v68 69h-41c-62 0-49 25 14 26 54 2 54 2 15 10-23 5-48 13-56 18-19 13-18 54 2 62 9 4 19 30 24 58 10 72 91 159 158 170 40 7 47 13 43 32-4 16 0 23 15 23 15 0 19-7 15-25-5-20 0-25 22-25 49 0 131-66 159-127 14-30 25-68 25-83 0-15 7-27 17-27 26 0 21-32-8-58-15-13-28-32-30-42-4-19-22-37-100-100-42-34-53-37-147-37-80 0-103-4-108-18-8-22-101-28-101-7z m383 110c75 72 64 94-17 33-57-44-129-57-167-32-29 20-5 51 39 51 23 0 41 6 41 13 0 18-130 14-154-5-13-11-20-34-20-68v-52l107 0 108 0 63 60z m-38 41c21 14 39 28 39 31 0 3-20 5-45 5-35 0-47-5-51-24-4-16-19-25-45-29-35-4-33-5 12-7 34-1 64 7 90 24z m140 80c2 8-78 11-229 9-149-2-231-8-226-16 9-17 449-10 455 7z m-31 63c0 70-67 152-146 180-87 31-194-21-237-115-45-100-51-97 179-97h204z m-354 80c-4 6-2 15 5 19 6 4 12-1 12-12 0-21-7-25-17-7z m28 38c0 18 65 50 101 49 30-1 29-2-13-19-26-10-52-24-58-30-14-16-30-16-30 0z m-104-375c-19 13-8 51 15 51 9 0 20-8 23-18 9-24-17-46-38-33z" horiz-adv-x="707" />

<glyph glyph-name="list22" unicode="&#xe801;" d="M278-87c-129 141-261 406-271 545-10 141 62 276 186 349 56 33 74 37 162 37 89 0 107-4 162-37 79-46 135-115 166-202 28-81 30-151 4-241-56-201-257-509-332-509-13 0-48 26-77 58z m142 6c129 127 274 425 275 566 0 134-113 295-235 333-79 25-131 25-210 0-122-38-234-199-234-334 0-90 61-246 158-407 56-91 157-210 179-210 8 0 38 24 67 52z m100 313c27 21 11 61-47 119-30 29-57 75-78 131l-32 85-23-65c-16-47-33-71-62-89-22-14-40-33-40-43 0-9-5-17-12-17-7 0-18-14-25-31-10-23-10-35 2-50 17-23 3-24-43-5-33 14-33 14-7 24 15 6 27 20 28 30 3 62 1 91-7 119-21 69 5 190 45 206 8 3 37-3 66-13 29-11 54-15 58-8 7 13 90 51 110 51 7 0 32-52 54-115 32-92 40-130 37-187-4-86 6-125 29-116 29 12 17-13-14-28-39-19-63-18-39 2z m4 122c-3 6-12 8-18 4-6-4-8-12-4-19 4-6 12-8 18-4 6 4 8 12 4 19z m-304 24c4 6-1 12-11 12-11 0-16-6-12-12 4-7 9-13 12-13 2 0 7 6 11 13z m299 19c13 15 11 31-7 88-26 83-40 96-87 85-40-9-40-13 7-127 29-69 58-84 87-46z m-82 105c0 7 5 12 12 12 6 0 11-5 11-12 0-7-5-12-11-12-7 0-12 5-12 12z m-156-59c49 57 66 123 22 84-12-11-36-13-71-8-49 7-53 5-53-21 0-37 32-83 58-83 11 0 31 13 44 28z m15 104c56 23 59 38 15 56-72 29-91 28-106-8-8-19-13-35-11-37 5-4 50-30 53-31 1 0 23 9 49 20z m150 53c24 7 25 11 12 30-13 19-21 20-53 8-38-14-46-24-30-41 9-9 34-9 71 3z m-173 82c-9 12-10 19-2 19 14 0 31-24 23-32-3-3-12 3-21 13z m106-9c0 7 7 20 17 28 10 9 18 10 18 3 0-7-8-19-18-28-10-8-17-10-17-3z m-44 59c0 28 2 37 5 22 3-16 3-38 0-50-3-12-5 1-5 28z" horiz-adv-x="707" />

<glyph glyph-name="list33" unicode="&#xe802;" d="M277-85c-129 141-260 405-270 544-10 140 62 276 185 348 56 33 74 37 162 37 88 0 106-4 162-37 77-46 134-115 164-201 29-81 30-151 5-240-56-202-256-508-332-508-13 0-47 26-76 57z m142 7c128 126 273 424 273 564 0 134-112 294-233 332-79 25-131 25-210 0-121-38-233-198-233-333 0-89 60-245 158-406 55-91 156-209 178-209 8 0 38 23 67 52z m-234 387c-111 54-126 196-29 284 32 30 42 46 33 55-7 8-9 25-5 40 7 21 18 26 58 26 61 0 85-23 65-62-20-40-5-45 46-15 123 74 262-12 262-161 0-65-22-107-79-152-25-20-47-25-96-23-34 2-77 4-95 5-18 0-53-2-79-7-29-5-59-1-81 10z m134 27c40 21 70 76 70 126 0 74-79 155-149 152-11-1 5-9 36-19 103-34 134-146 62-224-34-35-49-42-92-42-125 0-173 170-68 245 21 15 34 28 27 28-28 0-84-65-91-106-11-59 2-102 41-144 39-41 107-48 164-16z m206 5c87 56 98 184 23 257-51 50-106 62-165 36-24-11-41-23-38-27 4-4 18 0 33 8 65 37 159 3 191-70 30-66 18-125-35-177-41-40-46-42-108-35-43 5-60 3-49-4 30-20 109-13 148 12z m-237 8c17 7 17 11 0 46-14 28-17 58-13 110l7 72h-37c-49 0-85-27-101-79-28-91 60-183 144-149z m199 10c69 31 96 109 64 185-26 60-120 91-168 54-20-16-20-19-2-46 22-33 26-125 7-162-10-20-7-26 15-35 36-16 39-16 84 4z m-176 66c-14 35-15 56-6 87 12 40 0 59-14 21-16-43 5-154 28-154 6 0 2 21-8 46z m43 27c0 58-10 91-25 81-12-8-14-80-3-110 13-36 28-20 28 29z m-73 197c3 10-9 15-38 15-38 0-42-2-29-19 17-22 60-20 67 4z m-6 36c-14 3-38 3-52 0-15-3-3-5 26-5 29 0 41 2 26 5z" horiz-adv-x="707" />

<glyph glyph-name="list44" unicode="&#xe803;" d="M278-90c-129 142-261 406-271 546-10 140 62 276 186 349 56 32 74 37 162 37 89 0 107-5 162-37 79-46 135-116 166-202 28-81 30-151 4-241-56-202-257-510-332-510-13 0-48 26-77 58z m142 7c129 126 274 425 275 566 0 133-113 294-235 333-79 25-131 25-210 0-122-39-234-199-234-334 0-90 61-247 158-408 56-91 157-209 179-209 8 0 38 23 67 52z m-141 321c-9 31-45 53-79 48-21-4-25 2-26 39 0 35-7 47-33 60-31 16-32 19-15 39 23 27 24 68 1 92-22 23-22 33-2 33 28 0 57 46 53 83-4 33-2 35 34 31 32-3 41 2 57 33 20 35 21 36 53 16 30-18 36-18 66 0 32 20 34 19 53-16 16-31 26-36 58-33 35 4 37 2 34-31-4-37 25-83 52-83 21 0 20-10-2-33-22-24-22-65 1-92 17-20 16-23-14-39-27-13-34-25-34-60-1-39-4-43-32-39-30 4-70-26-81-62-5-13-10-13-29 5-28 27-55 28-74 3-20-25-32-23-41 6z m106 25c23-9 31-8 36 6 4 10 25 25 46 34 24 9 40 23 40 36 0 12 13 34 28 50 24 23 26 33 16 57-8 19-8 38-1 55 9 22 6 33-16 56-15 16-27 40-27 54 0 17-7 25-24 25-13 0-36 13-51 29-21 23-32 26-52 17-16-8-34-8-50 0-20 9-31 6-52-17-15-16-38-29-51-29-16 0-24-8-24-25 0-14-12-38-27-54-22-23-25-34-16-56 8-17 7-36-1-55-10-24-7-34 16-57 15-16 28-38 28-50 0-13 16-27 40-36 22-9 43-24 46-34 5-14 14-15 36-6 19 8 41 8 60 0z m-112 58c-100 66-108 213-16 289 17 15 42 26 56 26 19-1 15-6-19-25-73-41-100-133-62-211 26-52 63-75 123-75 61 0 98 23 123 75 38 78 11 170-60 209-24 13-38 27-32 31 18 12 84-37 110-81 45-76 16-190-61-239-39-25-124-25-162 1z m148 84c33 43 51 54 51 34 0-21-48-76-66-76-13 0-9 11 15 42z m34 70c4 6 9 12 12 12 3 0 5-6 5-12 0-7-5-13-12-13-7 0-9 6-5 13z m-112 161c0 7 6 13 12 13 7 0 12-6 12-13 0-7-5-12-12-12-6 0-12 5-12 12z" horiz-adv-x="707" />

<glyph glyph-name="list55" unicode="&#xe804;" d="M281-85c-128 141-259 404-269 543-10 139 62 274 185 347 55 33 73 37 161 37 87 0 105-4 161-37 77-46 134-115 164-201 28-80 30-150 5-240-56-200-256-506-331-506-13 0-47 25-76 57z m141 6c128 126 272 423 273 563 0 134-112 294-233 332-78 25-130 25-209 0-121-38-232-198-232-332 0-90 60-245 157-406 55-90 155-208 178-208 7 0 37 23 66 51z m-170 361c-21 15-51 47-65 71-15 24-37 54-50 68-27 30-31 78-6 88 9 4 30 31 46 60 16 30 46 65 67 79 21 14 45 37 53 51 20 36 99 35 123-1 9-14 35-39 57-55 22-16 49-49 60-73 10-24 29-49 42-57 29-16 29-60-1-92-13-14-35-44-49-68-42-69-94-99-171-99-50 0-76 7-106 28z m207 23c40 26 85 111 84 160 0 80-77 185-135 185-31 0-49-32-29-53 8-8 14-19 14-24 0-17-64-11-89 8-21 16-27 15-55-13-39-39-41-14-1 28 16 17 26 35 22 40-13 14-73-70-88-122-18-65 0-133 49-185 62-66 150-75 228-24z m-122 31c-8 4-14 15-14 25 0 16 3 17 17 4 14-12 21-12 35 0 14 13 18 12 18-3 0-15-28-38-39-33-1 1-9 4-17 7z m-93 118c10 31 43 42 63 20 11-12 16-26 11-31-6-5-12-3-15 6-6 18-38 21-38 3 0-7-6-13-13-13-7 0-10 7-8 15z m151 0c10 31 43 42 63 20 11-12 16-26 11-31-6-5-12-3-15 6-6 18-38 21-38 3 0-7-6-13-13-13-7 0-10 7-8 15z m-250 26c-4 8-6 1-6-16 0-17 2-24 6-15 3 8 3 22 0 31z m430 0c-4 8-6 1-6-16 0-17 2-24 6-15 3 8 3 22 0 31z m-225 145c5 24 17 42 33 48l26 10-26 15c-53 30-112-50-70-95 22-23 30-18 37 22z" horiz-adv-x="707" />

<glyph glyph-name="list66" unicode="&#xe805;" d="M274-90c-128 142-259 406-270 546-10 140 62 276 186 349 55 32 71 44 159 44 88 0 108-12 164-44 78-46 134-116 165-202 28-81 30-151 4-241-56-202-256-510-331-510-13 0-48 26-77 58z m165 34c122 137 250 409 250 532 1 140-109 300-233 340-79 25-131 25-210 0-121-39-233-199-233-334 0-90 61-247 158-408 58-95 156-209 181-209 9 0 48 35 87 79z m-261 253c3 12 15 28 28 35 17 9 22 23 19 55-3 28 4 54 21 78 23 33 23 36 4 42-45 15-56 28-60 67-5 50 25 88 69 88 21 0 38 9 45 24 11 21 8 24-20 28-40 5-55 60-15 60 20 0 22 4 12 32-14 39-14 42-1 42 6 0 14-14 18-31 9-38 40-54 54-30 18 29 12 47-15 53-19 3-15 5 12 7 38 1 39 0 31-36-5-29-3-37 11-37 9 0 21-6 25-13 11-20-17-50-48-50-24 0-25-2-13-30 11-25 20-29 49-23 68 13 104 45 124 110 17 54 20 57 21 24 2-79-75-155-156-155-35 0-40-29-12-72 10-15 17-38 15-50-2-12 6-35 17-52 22-34 27-112 8-112-7 0-11 9-10 21 6 42-13 86-42 101-42 20-57 18-93-12-25-21-30-35-27-71l3-46 105-3c103-4 134-15 134-48 0-14-31-17-158-17-144 0-158 2-155 21z m229 13c-36 3-99 3-140 0-40-2-10-4 67-4 77 0 110 2 73 4z m-27 215c-4 7-27 12-53 12-25 0-46-5-46-12 0-7 24-13 53-13 33 0 51 5 46 13z m-80 87c0 52-79 40-95-15-6-20-1-33 19-51 27-23 28-23 52 9 13 17 24 43 24 57z m43-42c-8 4-22 4-30 0-8-3-1-6 15-6 16 0 23 3 15 6z m-3 49c0 11-6 16-12 12-6-5-12-13-12-20 0-6 6-12 12-12 6 0 12 9 12 20z m11 48c0 13-22 19-29 7-4-7 1-12 11-12 10 0 18 2 18 5z m21 78c-18 3-49 3-70 0-21-2-7-5 32-5 38 0 55 2 38 5z" horiz-adv-x="707" />

<glyph glyph-name="list77" unicode="&#xe806;" d="M278-90c-129 141-261 405-271 544-10 140 62 276 186 348 56 33 61 45 149 45 89 0 120-12 175-45 79-46 135-115 166-201 28-81 30-151 4-240-56-202-257-509-332-509-13 0-48 26-77 58z m142 6c129 127 274 425 275 565 0 133-113 294-235 332-79 25-131 25-210 0-122-38-234-198-234-333 0-90 61-245 158-406 56-91 157-209 179-209 8 0 38 23 67 51z m-233 280c-12 13-9 64 5 73 7 4 10 22 6 38-6 25 6 45 69 116 42 47 76 97 76 111 0 31 53 76 90 76 16 0 41-14 57-31 51-54 30-143-38-161-18-5-66-43-106-84-60-61-78-73-102-67-35 9-67-37-39-56 44-30 123 14 212 119 59 69 75 81 108 81 56 0 80-30 72-90-5-46-62-142-75-128-4 4 8 28 25 54 52 80 33 164-32 147-15-4-57-43-94-87-36-43-83-88-105-99-41-21-114-27-129-12z m66 118c-28 30-43 26-32-7 5-11 19-20 33-20h24z m88 51l50 54-27 27-28 27-51-56c-50-54-51-55-30-80 12-14 25-25 29-25 4 0 30 24 57 53z m96 75c0 2-18 22-41 45-31 32-41 37-41 21 0-26 41-70 65-70 9 0 17 1 17 4z m47 27c21 27 18 82-7 101-28 22-80 21-99-2-13-17-8-27 30-69 51-55 55-56 76-30z m-309 99c-9 26 4 56 25 56 12 0 15 7 9 22-22 55-20 60 27 75 61 19 58 21 78-30 22-57 22-85 0-104-14-13-21-13-35 0-23 20-22 58 2 72 12 7 16 19 11 33-6 16-15 19-39 13-18-5-34-10-36-12-1-2 5-28 15-57 10-30 16-62 13-70-8-23-61-21-70 2z m45 31c-5 10-12 11-20 2-6-7-8-19-3-27 6-9 12-10 20-2 7 7 8 19 3 27z m94 12c8 14-14 29-29 19-13-9-5-31 12-31 5 0 13 5 17 12z" horiz-adv-x="707" />

<glyph glyph-name="emo-happy" unicode="&#xe807;" d="M261 800c-60 0-109-65-109-144 0-80 49-145 109-145s110 65 110 145c0 79-49 144-110 144z m477 0c-61 0-110-65-110-144 0-80 49-145 110-145 60 0 110 65 110 145 0 79-50 144-110 144z m208-599c-13 0-27-5-37-16-4-4-8-8-12-12-111-109-253-164-396-165-142-2-285 50-396 155l-3 3-12 12c-21 21-54 20-75-1-20-21-20-55 1-76 3-4 8-8 14-14l3-3c132-124 301-186 469-184 169 1 337 67 468 195 5 5 9 10 14 14 20 22 20 56-1 77-10 10-23 15-37 15z" horiz-adv-x="999" />

<glyph glyph-name="emo-unhappy" unicode="&#xe808;" d="M261 800c-60 0-109-65-109-144 0-80 49-145 109-145s110 65 110 145c0 79-49 144-110 144z m477 0c-61 0-110-65-110-144 0-80 49-145 110-145 60 0 110 65 110 145 0 79-50 144-110 144z m-244-599c-165 0-331-62-461-184l-3-3c-6-5-11-10-14-14-21-21-21-55-1-76 21-21 54-21 75-1l12 12 3 3c111 105 254 157 396 155 143-1 285-56 396-165 4-4 8-8 12-12 20-21 54-21 74-1 21 21 21 55 1 77-5 5-9 10-14 14-131 129-299 194-468 195-3 0-6 0-8 0z" horiz-adv-x="999" />

<glyph glyph-name="top10" unicode="&#xe809;" d="M-1236 65c-83 96-199 300-199 352 0 76 161 18 232-85 80-113 83-112 367 185 266 276 401 362 401 254 0-25-46-87-103-138-57-52-191-221-298-377-210-304-274-335-400-191z m67 352c-35 42-114 83-177 92-173 25-176 219-6 353 175 137 342 141 500 13l122-98-173-218c-95-120-179-218-188-218-8 0-43 34-78 76z m182 215c0 68-41 110-119 121-87 12-118-10-118-83 0-56 16-117 37-137 70-70 200-6 200 99z" horiz-adv-x="1053" />

<glyph glyph-name="star" unicode="&#xe80a;" d="M929 489q0-12-15-27l-202-197 48-279q0-4 0-12 0-11-6-19t-17-9q-10 0-22 7l-251 132-250-132q-12-7-23-7-11 0-17 9t-6 19q0 4 1 12l48 279-203 197q-14 15-14 27 0 21 31 26l280 40 126 254q11 23 27 23t28-23l125-254 280-40q32-5 32-26z" horiz-adv-x="928.6" />

<glyph glyph-name="comment" unicode="&#xe80b;" d="M781 662l-625 0q-21 0-37-15t-15-36l0-365q0-21 15-37t37-16l157 0 0-8 8 8 460 0q22 0 37 16t16 37l0 365q0 21-16 36t-37 15z m0 105q65 0 111-46t46-110l0-365q0-65-46-111t-111-45l-416 0-156-157 0 157-53 0q-65 0-110 45t-46 111l0 365q0 65 46 110t110 46l625 0z" horiz-adv-x="938" />

<glyph glyph-name="camera-outline" unicode="&#xe80c;" d="M885-66l-729 0q-65 0-110 46t-46 110l0 417q0 65 46 110t110 46l83 0 52 52q23 23 58 37t67 15l209 0q33 0 68-15t58-37l52-52 82 0q65 0 111-46t45-110l0-417q0-65-45-110t-111-46z m-729 625q-21 0-37-16t-15-36l0-417q0-21 15-37t37-15l729 0q21 0 37 15t16 37l0 417q0 21-16 36t-37 16l-104 0q-21 0-36 15l-67 68q-22 21-53 21l-209 0q-30 0-51-21l-67-68q-15-15-38-15l-104 0z m365-105q-53 0-92-38t-39-92 39-92 92-38 92 38 38 92-38 92-92 38z m0 53q77 0 129-54t53-129q0-75-54-129t-128-53q-76 0-129 53t-53 129q0 76 53 129t129 54z m313 16q27 0 47-20t20-49-19-48-48-19-49 20-20 47q0 29 20 49t49 20z" horiz-adv-x="1041" />

<glyph glyph-name="search" unicode="&#xe80d;" d="M643 386q0 103-73 176t-177 74-177-74-73-176 73-177 177-73 177 73 73 177z m286-465q0-29-22-50t-50-21q-30 0-50 21l-191 191q-100-69-223-69-80 0-153 31t-125 84-84 125-31 153 31 152 84 126 125 84 153 31 153-31 125-84 84-126 31-152q0-123-69-223l191-191q21-21 21-51z" horiz-adv-x="928.6" />

<glyph glyph-name="location" unicode="&#xe80e;" d="M0 475q0 156 109 266t266 109 266-109 109-266q0-78-28-160t-85-166-101-141-110-133q-20-25-49-25l-4 0q-29 0-49 25-66 77-110 133t-101 141-85 166-28 160z m63 0q0-72 28-150t85-161 95-128 100-120l2 0q2-2 2-4l4 4q62 73 100 120t94 128 86 161 29 150q0 129-92 221t-221 91-221-91-91-221z m125 8q0 78 54 133t133 54 133-54 55-133-55-133-133-55-133 55-54 133z m31 0q0-65 46-111t110-45 110 45 46 111-46 110-110 46-110-46-46-110z" horiz-adv-x="750" />

<glyph glyph-name="th-list-1" unicode="&#xe80f;" d="M0-150l0 250 250 0 0-250-250 0z m0 375l0 250 250 0 0-250-250 0z m0 375l0 250 250 0 0-250-250 0z m391-750l0 250 609 0 0-250-609 0z m0 375l0 250 609 0 0-250-609 0z m0 375l0 250 609 0 0-250-609 0z" horiz-adv-x="1000" />

<glyph glyph-name="th-large-1" unicode="&#xe810;" d="M0-150l0 438 438 0 0-438-438 0z m0 563l0 437 438 0 0-437-438 0z m563-563l0 438 437 0 0-438-437 0z m0 563l0 437 437 0 0-437-437 0z" horiz-adv-x="1000" />

<glyph glyph-name="star-empty" unicode="&#xe811;" d="M635 290l170 166-235 34-106 213-105-213-236-34 171-166-41-235 211 111 211-111z m294 199q0-12-15-27l-202-197 48-279q0-4 0-12 0-28-23-28-10 0-22 7l-251 132-250-132q-12-7-23-7-11 0-17 9t-6 19q0 4 1 12l48 279-203 197q-14 15-14 27 0 21 31 26l280 40 126 254q11 23 27 23t28-23l125-254 280-40q32-5 32-26z" horiz-adv-x="928.6" />

<glyph glyph-name="sport" unicode="&#xe812;" d="M386-132c-10 9-92 18-182 19l-164 2-4 158c-2 87-12 180-23 206-13 32-5 64 23 91 39 40 48 37 122-34l80-76 189 189 190 189-77 80c-71 74-74 83-34 123 28 27 60 35 91 22 26-11 119-21 206-23l158-3 3-158c2-87 12-180 23-206 13-31 5-63-22-91-40-40-49-37-123 34l-80 77-189-190-189-189 75-78c63-66 70-86 42-120-35-42-85-52-115-22z m-256 102c-17 21-42 31-55 22-15-9-12-30 6-52 17-20 41-30 55-22 14 9 12 31-6 52z m186-47c0 37-235 253-255 234-10-10 34-72 97-136 112-114 158-142 158-98z m158 0c0 26-376 401-402 401-55 0-1-83 158-243 159-160 244-215 244-158z m77 385c113 115 162 183 151 211-28 73-81 46-252-127-114-115-163-183-152-211 28-72 81-46 253 127z m-183-68c0 36 174 191 193 171 11-10-19-57-66-105-82-86-127-109-127-66z m579 169c0 43-344 388-387 388-60 0-36-35 156-229 191-192 231-220 231-159z m0 146c0 37-235 253-254 234-10-11 33-72 97-137 111-113 157-142 157-97z m-28 205c-16 20-41 30-55 22-14-9-12-31 6-52 17-21 42-30 55-22 15 9 12 30-6 52z" horiz-adv-x="1000" />

<glyph glyph-name="restoran" unicode="&#xe813;" d="M93-121c86 11 89 16 89 133 0 118-2 121-89 124l-89 3 103 20c133 26 163 56 56 56-88 0-176 72-128 105 15 10 49 77 75 148 55 146 167 254 292 281 58 13 80 31 70 57-9 25 4 39 39 39 34 0 47-14 38-39-10-26 13-44 70-57 125-27 237-135 292-281 27-71 61-139 77-151 19-13 7-39-33-72-33-29-61-69-61-90 0-21-60-84-133-139-127-97-143-102-342-102-122 0-209-11-209-27 0-15-47-26-103-23-101 4-101 4-14 15z m675 187c135 119 109 154-39 56-86-57-139-72-227-66-146 11-159 83-19 108 82 14 74 17-56 20-171 4-217-26-217-138v-77l225 1c218 1 230 4 333 96z m-79 80l82 67-89 1c-62 1-89-11-89-40 0-27-28-41-82-41-46 0-82-12-82-27 0-55 177-27 260 40z m260 124c0 17-165 27-438 27-274 0-438-10-438-27 0-17 164-27 438-27 273 0 438 10 438 27z m-55 130c0 71-97 216-180 271-96 63-311 63-407 0-83-55-179-200-180-271 0-43 37-48 384-48 346 0 383 5 383 48z" horiz-adv-x="1000" />

<glyph glyph-name="place" unicode="&#xe814;" d="M291-127c-136 29-272 116-282 180-11 74 79 153 220 192l115 32-54 107c-99 194-56 371 106 439 100 41 198 18 282-65 78-79 83-217 12-373l-49-109 118-30c65-16 148-59 184-95 60-60 63-72 29-125-21-32-80-79-133-105-106-53-402-79-548-48z m558 98c115 68 115 136-2 198-145 78-230 66-294-43-29-50-58-92-62-92-5 0-35 43-67 95-54 86-67 94-150 80-211-34-284-164-132-235 134-62 177-69 404-62 156 5 237 21 303 59z m-238 359c114 235 117 302 18 408-102 110-300 54-348-98-10-30-3-98 15-152 33-101 178-375 199-375 6 0 59 98 116 217z m-195 200c-58 64-55 99 13 146 109 76 221-49 127-142-64-65-85-65-140-4z m136 64c10 54-66 91-106 51-40-40-3-116 51-106 26 5 50 30 55 55z" horiz-adv-x="1000" />

<glyph glyph-name="magazin" unicode="&#xe815;" d="M95-126c-9 10-17 130-17 265 0 185-9 255-37 282-53 49-48 81 39 263l77 160h345 346l76-160c87-181 92-214 40-262-26-25-38-109-43-294l-7-258-401-8c-220-4-408 1-418 12z m133 221c0 170 4 185 60 201 131 37 151 12 159-193l8-191h210 211v210c0 205-2 211-74 252-43 24-81 31-89 16-21-37-146-32-181 8-23 26-36 26-60 0-35-40-160-45-181-8-8 15-46 8-88-16-73-41-75-47-75-252 0-191 5-210 50-210 45 0 50 19 50 183z m304-36c-41 47-38 178 6 219 19 18 78 29 131 24 91-8 95-13 103-119 5-69-4-119-25-133-49-36-181-30-215 9z m195 107c0 78-7 85-88 85-74 0-87-9-87-66 0-85 18-103 104-103 62 0 71 10 71 84z m-325-84c0 162-2 169-62 169-60 0-62-7-62-169 0-162 2-170 62-170 60 0 62 8 62 170z m-180 388c7 24-20 35-82 35-81 0-89-5-61-43 37-50 127-45 143 8z m230-7c27 36 18 42-59 42-85 0-111-23-74-65 29-33 101-21 133 23z m244 7c7 24-20 35-83 35-80 0-88-5-60-43 37-50 127-45 143 8z m230-7c27 36 18 42-59 42-85 0-111-23-74-65 29-33 101-21 133 23z m-55 212l-57 113h-312-312l-56-113-57-113h425 426z" horiz-adv-x="1000" />

<glyph glyph-name="shop" unicode="&#xe816;" d="M364-114c-27 73 0 135 59 136 77 1 122-72 79-130-39-53-120-57-138-6z m91 56c0 14-12 30-27 35-14 5-26-11-26-36 1-24 13-40 27-34 14 5 26 21 26 35z m216-49c-46 58-4 133 74 134 49 1 59-12 60-79 0-61-11-82-50-89-28-5-66 11-84 34z m97 54c0 22-11 40-23 40-31 0-53-42-33-63 28-30 57-18 56 23z m-541 292c-17 84-46 230-65 324-32 157-68 218-147 248-15 5-21 18-13 27 29 36 169-38 170-89 1-48 24-51 385-45 211 3 398-4 417-17 27-18 27-56-3-229-20-114-36-211-36-217 0-6-143-13-317-16-265-4-317-12-316-45 0-34 50-39 305-35 187 3 305-5 305-22 0-16-125-28-327-32l-327-5z m678 144c12 55 28 134 36 174l14 74-380-7c-351-5-379-9-367-52 7-26 21-83 30-126 39-186 13-174 343-168l303 5z m-399 0c-25 29-37 62-28 73 10 10 28 1 40-20 19-32 34-26 85 36 87 105 95 92 21-33-34-60-65-108-68-108-3 0-25 23-50 52z" horiz-adv-x="1000" />

<glyph glyph-name="book" unicode="&#xe817;" d="M37-104c-33 33-41 106-41 368 0 201 10 327 26 327 16 0 26-131 26-342v-342h211c139 0 210 10 210 30 0 20-60 25-197 17l-197-13v374 375l82 16c123 25 257 20 314-11 46-24 51-57 51-328 0-166 5-302 10-302 5 0 65 24 132 54l121 54v314c0 173-6 315-14 315-8 0-62-25-121-55-59-30-113-48-121-40-20 20 261 148 287 131 12-7 22-160 22-340v-327l-157-79c-87-44-170-80-184-80-18 0-28 120-28 326 0 323 0 327-63 342-34 9-117 9-184 0l-121-17v-338-337l178 0c97 0 201 0 230 0 29 0 127 0 218 0l166 1-8 354c-4 194 1 353 12 353 11 0 20-170 20-378v-378l-181 13c-118 9-187 3-199-17-13-21 44-29 194-29h212v342c0 211 10 342 26 342 17 0 27-131 27-341 0-311-5-344-51-369-29-15-228-27-459-27-335 0-415 8-449 42z m169 248c52 33 177 33 198 0 10-16-33-26-111-26-91 0-115 7-87 26z m421 92c86 49 133 49 68-1-28-21-70-38-92-38-27 1-18 15 24 39z m-385 18c51 19 92 19 131 0 48-23 36-28-75-27-121 0-125 2-56 27z m333 47c0 12 35 34 79 49 43 15 79 19 79 9 0-11-36-33-79-49-44-17-79-20-79-9z m-395 32c0 12 56 20 125 19 138-2 126-15-26-30-55-5-99 0-99 11z m395 60c0 7 35 31 79 53 43 23 79 31 79 18 0-12-31-36-67-53-74-33-91-37-91-18z m-395 42c0 14 55 25 123 25 67 0 115-8 106-17-26-27-229-34-229-8z m433 91c28 21 69 38 92 38 26-1 17-15-25-39-86-49-133-48-67 1z m-407 12c52 34 177 34 198 0 10-16-33-26-111-25-91 0-115 7-87 25z m421 93c86 49 133 48 68-1-28-21-70-38-92-38-27 1-18 14 24 39z" horiz-adv-x="1000" />

<glyph glyph-name="angle-double-left" unicode="&#xf100;" d="M350 82q0-7-6-13l-28-28q-5-5-12-5t-13 5l-260 261q-6 5-6 12t6 13l260 260q5 6 13 6t12-6l28-28q6-5 6-13t-6-12l-219-220 219-219q6-6 6-13z m214 0q0-7-5-13l-28-28q-6-5-13-5t-13 5l-260 261q-6 5-6 12t6 13l260 260q6 6 13 6t13-6l28-28q5-5 5-13t-5-12l-220-220 220-219q5-6 5-13z" horiz-adv-x="571.4" />

<glyph glyph-name="angle-double-right" unicode="&#xf101;" d="M332 314q0-7-5-12l-261-261q-5-5-12-5t-13 5l-28 28q-6 6-6 13t6 13l219 219-219 220q-6 5-6 12t6 13l28 28q5 6 13 6t12-6l261-260q5-5 5-13z m214 0q0-7-5-12l-260-261q-6-5-13-5t-13 5l-28 28q-5 6-5 13t5 13l219 219-219 220q-5 5-5 12t5 13l28 28q6 6 13 6t13-6l260-260q5-5 5-13z" horiz-adv-x="571.4" />

<glyph glyph-name="angle-left" unicode="&#xf104;" d="M350 546q0-7-6-12l-219-220 219-219q6-6 6-13t-6-13l-28-28q-5-5-12-5t-13 5l-260 261q-6 5-6 12t6 13l260 260q5 6 13 6t12-6l28-28q6-5 6-13z" horiz-adv-x="357.1" />

<glyph glyph-name="angle-right" unicode="&#xf105;" d="M332 314q0-7-5-12l-261-261q-5-5-12-5t-13 5l-28 28q-6 6-6 13t6 13l219 219-219 220q-6 5-6 12t6 13l28 28q5 6 13 6t12-6l261-260q5-5 5-13z" horiz-adv-x="357.1" />

<glyph glyph-name="star-half-alt" unicode="&#xf123;" d="M662 316l143 140-198 29-37 5-17 34-89 179v-537l33-17 178-94-34 198-6 37z m252 146l-202-197 48-279q2-19-4-29t-19-11q-9 0-22 7l-251 132-250-132q-13-7-23-7-12 0-19 11t-3 29l48 279-203 197q-18 18-13 33t30 20l280 40 126 254q11 23 27 23 16 0 28-23l125-254 280-40q25-4 31-20t-14-33z" horiz-adv-x="928.6" />
</font>
</defs>
</svg>
