<?xml version="1.0" standalone="no"?>
<!DOCTYPE svg PUBLIC "-//W3C//DTD SVG 1.1//EN" "http://www.w3.org/Graphics/SVG/1.1/DTD/svg11.dtd" >
<svg>
<metadata>
Created by FontForge 20090914 at Tue Mar  5 14:52:02 2019
 By www-data
Copyright (c) 2013 by Mariya Pigoulevskaya. All rights reserved.
</metadata>
<defs>
<font id="Acrom-Bold" horiz-adv-x="643" >
  <font-face 
    font-family="Acrom Bold"
    font-weight="700"
    font-stretch="normal"
    units-per-em="1000"
    panose-1="0 0 8 0 0 0 0 0 0 0"
    ascent="750"
    descent="-250"
    x-height="500"
    cap-height="700"
    bbox="0 -395.999 1226 1060"
    underline-thickness="50"
    underline-position="-150"
    unicode-range="U+0020-U+25CA"
  />
<missing-glyph horiz-adv-x="500" 
d="M0 0v700h500v-700h-500zM250 395l170 255h-340zM280 350l170 -255v510zM80 50h340l-170 255zM50 605v-510l170 255z" />
    <glyph glyph-name=".notdef" horiz-adv-x="500" 
d="M0 0v700h500v-700h-500zM250 395l170 255h-340zM280 350l170 -255v510zM80 50h340l-170 255zM50 605v-510l170 255z" />
    <glyph glyph-name="space" unicode=" " horiz-adv-x="337" 
 />
    <glyph glyph-name="exclam" unicode="!" horiz-adv-x="262" 
d="M200 700v-269l-12 -241h-114l-12 240v270h138zM131 128c20.667 0 38.334 -6.5 53.001 -19.5s22 -29.167 22 -48.5c0 -18.667 -7.33301 -34.5 -22 -47.5s-32.334 -19.5 -53.001 -19.5c-21.333 0 -39.333 6.5 -54 19.5s-22 28.833 -22 47.5c0 19.333 7.33301 35.5 22 48.5
s32.667 19.5 54 19.5z" />
    <glyph glyph-name="quotedbl" unicode="&#x22;" horiz-adv-x="327" 
d="M133 516h-69l-9 184h87zM263 516h-69l-9 184h87z" />
    <glyph glyph-name="numbersign" unicode="#" horiz-adv-x="687" 
d="M466 280h122l-15 -71h-122l-44 -209h-80l44 209h-117l-44 -209h-80l45 209h-120l15 71h120l28 134h-119l15 72h119l46 214h80l-46 -214h117l46 214h80l-46 -214h121l-15 -72h-121zM298 414l-28 -134h117l28 134h-117z" />
    <glyph glyph-name="dollar" unicode="$" horiz-adv-x="685" 
d="M630 209c0 -62 -23.334 -112.333 -70.001 -151s-107 -60 -181 -64v-45h-79v47c-53.333 6.66699 -101 22.5 -143 47.5s-76 55.167 -102 90.5l90 83c34.667 -48 86.334 -78 155.001 -90v176c-152.667 20 -229 83.667 -229 191c0 59.333 21.5 108 64.5 146
s97.833 59.667 164.5 65v45h79v-46c85.333 -11.333 161.666 -49 228.999 -113l-90 -83c-39.333 32 -85.666 53.333 -138.999 64v-148h3c78 -9.33301 138.833 -30.5 182.5 -63.5s65.5 -83.5 65.5 -151.5zM208.999 499c0 -32.667 30.333 -54.334 91 -65.001v141
c-25.333 -3.33301 -46.833 -11.166 -64.5 -23.499s-26.5 -29.833 -26.5 -52.5zM378.999 294v-170c34.667 3.33301 62.167 12.333 82.5 27s30.5 34 30.5 58c0 26 -9.83301 45.167 -29.5 57.5s-47.5 21.5 -83.5 27.5z" />
    <glyph glyph-name="percent" unicode="%" horiz-adv-x="826" 
d="M228 707c48.667 0 89.834 -16.167 123.501 -48.5s50.5 -71.5 50.5 -117.5s-16.833 -85.167 -50.5 -117.5s-74.834 -48.5 -123.501 -48.5s-89.667 16.167 -123 48.5s-50 71.5 -50 117.5s16.667 85.167 50 117.5s74.333 48.5 123 48.5zM642 700l-377 -700h-81l377 700h81z
M229 625c-24 0 -43.833 -7.83301 -59.5 -23.5s-23.5 -35.834 -23.5 -60.501s7.83301 -44.667 23.5 -60s35.5 -23 59.5 -23s43.833 7.66699 59.5 23s23.5 35.333 23.5 60s-7.83301 44.834 -23.5 60.501s-35.5 23.5 -59.5 23.5zM597 325
c48.667 0 89.834 -16.167 123.501 -48.5s50.5 -71.5 50.5 -117.5s-16.833 -85.167 -50.5 -117.5s-74.834 -48.5 -123.501 -48.5s-89.667 16.167 -123 48.5s-50 71.5 -50 117.5s16.833 85.167 50.5 117.5s74.5 48.5 122.5 48.5zM597 242c-24 0 -43.833 -7.66699 -59.5 -23
s-23.5 -35.333 -23.5 -60c0 -25.333 7.83301 -45.666 23.5 -60.999s35.5 -23 59.5 -23s43.833 7.66699 59.5 23s23.5 35.666 23.5 60.999c0 24.667 -7.83301 44.667 -23.5 60s-35.5 23 -59.5 23z" />
    <glyph glyph-name="ampersand" unicode="&#x26;" horiz-adv-x="693" 
d="M504 0l-43 46.998c-41.333 -32.667 -94 -49 -158 -49h-6c-76.667 0.666992 -136.167 19.834 -178.5 57.501s-63.5 86.5 -63.5 146.5c0 38 10.167 71.5 30.5 100.5s47.5 50.167 81.5 63.5l-24 25c-39.333 42.667 -59 87.334 -59 134.001c0 47.333 18 87.833 54 121.5
s87 50.5 153 50.5h12c62.667 -0.666992 113.5 -19.667 152.5 -57s58.5 -83.333 58.5 -138v-14h-131c0 27.333 -8.16699 48 -24.5 62s-37.833 21 -64.5 21c-22.667 0 -42.167 -6.5 -58.5 -19.5s-24.5 -31.167 -24.5 -54.5s9.33301 -45.333 28 -66l210 -224
c7.33301 18.667 11 38 11 58h95c0 -52.667 -10.333 -100 -31 -142l113 -123h-133zM305 124.998c28.667 0 51.333 6.33203 68 18.999l-145 155c-28 -15.333 -42 -38.666 -42 -69.999c0 -32 11 -57.333 33 -76s50.667 -28 86 -28z" />
    <glyph glyph-name="quotesingle" unicode="'" horiz-adv-x="197" 
d="M133 516h-69l-9 184h87z" />
    <glyph glyph-name="parenleft" unicode="(" horiz-adv-x="382" 
d="M326 747v-131c-42.667 -41.333 -75.334 -89.5 -98.001 -144.5s-34 -108.167 -34 -159.5v-15c0 -52 11.167 -105.667 33.5 -161s55.166 -104 98.499 -146v-130c-85.333 48 -151.833 112 -199.5 192s-71.5 161.667 -71.5 245v15c0.666992 83.333 24.834 165 72.501 245
s113.834 143.333 198.501 190z" />
    <glyph glyph-name="parenright" unicode=")" horiz-adv-x="382" 
d="M55 616l0.00195312 131c85.333 -46.667 151.833 -110.167 199.5 -190.5s71.5 -161.833 71.5 -244.5v-15c0 -83.333 -23.833 -165 -71.5 -245s-114.167 -144 -199.5 -192v130c43.333 42 76.333 90.667 99 146s34 109 34 161v15c-0.666992 52 -12.334 105.5 -35.001 160.5
s-55.334 102.833 -98.001 143.5z" />
    <glyph glyph-name="asterisk" unicode="*" horiz-adv-x="479" 
d="M388 405l-56 -46l-93 131l-94 -131l-55 45l107 117l-142 31l19 69l138 -48l-9 144h72l-9 -145l138 49l19 -69l-143 -31z" />
    <glyph glyph-name="plus" unicode="+" horiz-adv-x="525" 
d="M305 311h164v-79h-164v-167h-86v167h-164v79h164v168h86v-168z" />
    <glyph glyph-name="comma" unicode="," horiz-adv-x="329" 
d="M273 128l-125 -272h-93l84 272h134z" />
    <glyph glyph-name="hyphen" unicode="-" horiz-adv-x="359" 
d="M303 249h-248v79h248v-79z" />
    <glyph glyph-name="period" unicode="." horiz-adv-x="262" 
d="M131 128c20.667 0 38.334 -6.5 53.001 -19.5s22 -29.167 22 -48.5c0 -18.667 -7.33301 -34.5 -22 -47.5s-32.334 -19.5 -53.001 -19.5c-21.333 0 -39.333 6.5 -54 19.5s-22 28.833 -22 47.5c0 19.333 7.33301 35.5 22 48.5s32.667 19.5 54 19.5z" />
    <glyph glyph-name="slash" unicode="/" horiz-adv-x="430" 
d="M374 700l-239 -700h-80l239 700h80z" />
    <glyph glyph-name="zero" unicode="0" horiz-adv-x="816" 
d="M408 693c96.667 0 179.167 -34.167 247.5 -102.5s102.5 -150.833 102.5 -247.5s-34 -179.167 -102 -247.5s-150.667 -102.5 -248 -102.5s-180 34.167 -248 102.5s-102 150.833 -102 247.5s34.167 179.167 102.5 247.5s150.833 102.5 247.5 102.5zM408 563
c-60 0 -110.167 -20.667 -150.5 -62s-60.5 -94 -60.5 -158c0 -64.667 20.167 -117.334 60.5 -158.001s90.5 -61 150.5 -61c60.667 0 111.167 20.333 151.5 61s60.5 93.334 60.5 158.001c0 64 -20.333 116.667 -61 158s-91 62 -151 62z" />
    <glyph glyph-name="one" unicode="1" horiz-adv-x="446" 
d="M342 0h-138v442l-72 -86l-89 68l217 261h82v-685z" />
    <glyph glyph-name="two" unicode="2" horiz-adv-x="635" 
d="M583 0h-530v83l288 241c32 26 55.833 49 71.5 69s23.5 42 23.5 66c0 32 -10.833 57.167 -32.5 75.5s-49.167 27.833 -82.5 28.5h-6c-47.333 0 -100.333 -25.667 -159 -77l-90 82c82.667 83.333 169.334 125 260.001 125h8
c75.333 -0.666992 133.666 -21.167 174.999 -61.5s62 -88.5 62 -144.5c0 -48 -15 -92.833 -45 -134.5s-77 -87.5 -141 -137.5l-98 -85h296v-130z" />
    <glyph glyph-name="three" unicode="3" horiz-adv-x="651" 
d="M568 604l-197 -190.002c18.667 1.33301 34.334 1.66602 47.001 0.999023c57.333 -8 101.666 -30.167 132.999 -66.5s47 -80.166 47 -131.499c0 -64 -21.5 -117.167 -64.5 -159.5s-106.833 -63.833 -191.5 -64.5h-7c-110.667 0.666992 -204.667 43.334 -282 128.001l90 83
c62.667 -54 126 -81 190 -81h7c37.333 0.666992 68 11.834 92 33.501s36 48.5 36 80.5c0 70.667 -44.667 106 -134 106c-25.333 0 -58.333 -8.66699 -99 -26l-65 49l197 190h-251v129h452v-81z" />
    <glyph glyph-name="four" unicode="4" horiz-adv-x="628" 
d="M518 111v-111h-138v111h-337v81l393 493h82v-444h68v-130h-68zM379 461l-175 -220h175v220z" />
    <glyph glyph-name="five" unicode="5" horiz-adv-x="647" 
d="M529 556l-302 -0.000976562v-139c35.333 24.667 82 37 140 37c73.333 0 129.666 -20.833 168.999 -62.5s59 -96.167 59 -163.5c0 -63.333 -22.167 -118.166 -66.5 -164.499s-108.833 -69.833 -193.5 -70.5h-8c-105.333 0.666992 -196.666 43.334 -273.999 128.001l90 83
c35.333 -30 66.666 -51 93.999 -63s57.333 -18 90 -18h7c36.667 0.666992 67.5 11.167 92.5 31.5s37.5 48.166 37.5 83.499c0 36.667 -12.167 65.167 -36.5 85.5s-58.166 30.5 -101.499 30.5c-51.333 0 -103.333 -18.333 -156 -55l-65 49v337h424v-129z" />
    <glyph glyph-name="six" unicode="6" horiz-adv-x="621" 
d="M336 693l6 -0.000976562c86 -0.666992 156.667 -32 212 -94l-89 -83c-42.667 31.333 -84 47 -124 47h-5c-42 0 -76 -16.5 -102 -49.5s-42 -75.833 -48 -128.5c32 53.333 84.333 80 157 80c64 0 117.667 -20.667 161 -62s65 -97.333 65 -168
c0 -64.667 -22.333 -121.167 -67 -169.5s-105.667 -72.5 -183 -72.5s-141 27.333 -191 82s-75 125.334 -75 212.001v38c0 108.667 25.333 197.167 76 265.5s119.667 102.5 207 102.5zM311 347.999c-34.667 0 -63.333 -10.333 -86 -31s-34 -46.667 -34 -78
c0 -33.333 11 -60.833 33 -82.5s51 -32.5 87 -32.5c34 0 62.333 10.5 85 31.5s34 47.5 34 79.5c0 32.667 -11.333 59.667 -34 81s-51 32 -85 32z" />
    <glyph glyph-name="seven" unicode="7" horiz-adv-x="559" 
d="M517 604l-326 -604h-147l300 556h-301v129h474v-81z" />
    <glyph glyph-name="eight" unicode="8" horiz-adv-x="605" 
d="M435 364c35.333 -12.667 63.832 -33.501 85.499 -62.501s32.5 -62.833 32.5 -101.5c0 -60.667 -21.667 -110.167 -65 -148.5s-103.666 -57.833 -180.999 -58.5h-6c-78 0 -138.833 19.333 -182.5 58s-65.5 88.334 -65.5 149.001c0 38.667 10.833 72.5 32.5 101.5
s50.167 49.833 85.5 62.5c-63.333 32 -95 81.667 -95 149c0 48 19.5 90 58.5 126s93.5 54 163.5 54h12c69.333 0 123.5 -18.167 162.5 -54.5s58.5 -78.166 58.5 -125.499c0 -66.667 -32 -116.334 -96 -149.001zM205.999 487.999c0 -26.667 9.16699 -47.167 27.5 -61.5
s41.5 -21.5 69.5 -21.5s51 7.16699 69 21.5s27 34.833 27 61.5s-9 47.167 -27 61.5s-41 21.5 -69 21.5c-28.667 0 -52 -7.16699 -70 -21.5s-27 -34.833 -27 -61.5zM302.999 120.999c35.333 0 64 9.33301 86 28s33 43.667 33 75s-10.833 56.166 -32.5 74.499
s-50.5 27.5 -86.5 27.5c-30.667 0 -58.167 -8.66699 -82.5 -26s-36.5 -42.666 -36.5 -75.999c0 -31.333 11 -56.333 33 -75s50.667 -28 86 -28z" />
    <glyph glyph-name="nine" unicode="9" horiz-adv-x="621" 
d="M286 -7l-5.99902 0.00195312c-86.667 0.666992 -157.667 32 -213 94l90 83c41.333 -31.333 82.666 -47 123.999 -47h5c42 0 76 16.5 102 49.5s42 75.833 48 128.5c-32 -53.333 -84.333 -80 -157 -80c-64 0 -117.667 20.667 -161 62s-65 97 -65 167
c0 65.333 22.333 122.166 67 170.499s105.667 72.5 183 72.5s141 -27.333 191 -82s75 -125.334 75 -212.001v-38c0 -108.667 -25.333 -197.167 -76 -265.5s-119.667 -102.5 -207 -102.5zM311.001 338.002c34 0 62.333 10.332 85 30.999s34 46.334 34 77.001
c0 33.333 -11 61 -33 83s-50.667 33 -86 33c-34.667 0 -63.334 -10.5 -86.001 -31.5s-34 -47.833 -34 -80.5s11.333 -59.5 34 -80.5s51.334 -31.5 86.001 -31.5z" />
    <glyph glyph-name="colon" unicode=":" horiz-adv-x="262" 
d="M131 452c20.667 0 38.334 -6.5 53.001 -19.5s22 -28.833 22 -47.5c0 -19.333 -7.33301 -35.5 -22 -48.5s-32.334 -19.5 -53.001 -19.5c-21.333 0 -39.333 6.5 -54 19.5s-22 29.167 -22 48.5c0 18.667 7.33301 34.5 22 47.5s32.667 19.5 54 19.5zM131 128
c20.667 0 38.334 -6.5 53.001 -19.5s22 -29.167 22 -48.5c0 -18.667 -7.33301 -34.5 -22 -47.5s-32.334 -19.5 -53.001 -19.5c-21.333 0 -39.333 6.5 -54 19.5s-22 28.833 -22 47.5c0 19.333 7.33301 35.5 22 48.5s32.667 19.5 54 19.5z" />
    <glyph glyph-name="semicolon" unicode=";" horiz-adv-x="345" 
d="M214 452c20.667 0 38.334 -6.5 53.001 -19.5s22 -28.833 22 -47.5c0 -19.333 -7.33301 -35.5 -22 -48.5s-32.334 -19.5 -53.001 -19.5c-21.333 0 -39.333 6.5 -54 19.5s-22 29.167 -22 48.5c0 18.667 7.33301 34.5 22 47.5s32.667 19.5 54 19.5zM273 128l-125 -272h-93
l84 272h134z" />
    <glyph glyph-name="less" unicode="&#x3c;" horiz-adv-x="478" 
d="M423 432l-167 -91l167 -89v-113l-368 203l368 202v-112z" />
    <glyph glyph-name="equal" unicode="=" horiz-adv-x="525" 
d="M469 294h-414v79h414v-79zM469 152h-414v79h414v-79z" />
    <glyph glyph-name="greater" unicode="&#x3e;" horiz-adv-x="478" 
d="M423 342l-368 -203v113l166 89l-166 91v112z" />
    <glyph glyph-name="question" unicode="?" horiz-adv-x="656" 
d="M337 707l7.99902 -0.000976562c84 -1.33301 147.5 -23 190.5 -65s64.5 -93.667 64.5 -155c0 -58.667 -19.167 -106.167 -57.5 -142.5s-89.166 -59.166 -152.499 -68.499v-83h-138v159c145.333 -8 218 30.333 218 115c0 32 -12 58.167 -36 78.5s-55 30.833 -93 31.5h-6
c-62 0 -125.333 -27 -190 -81l-90 83c80.667 85.333 174.667 128 282 128zM320.999 127.999c20.667 0 38.334 -6.5 53.001 -19.5s22 -29.167 22 -48.5c0 -18.667 -7.33301 -34.5 -22 -47.5s-32.334 -19.5 -53.001 -19.5c-21.333 0 -39.333 6.5 -54 19.5s-22 28.833 -22 47.5
c0 19.333 7.33301 35.5 22 48.5s32.667 19.5 54 19.5z" />
    <glyph glyph-name="at" unicode="@" horiz-adv-x="921" 
d="M460 661c114.667 0 211 -38.167 289 -114.5s117 -169.5 117 -279.5v-58c0 -54 -13.167 -96.667 -39.5 -128s-62.5 -47.333 -108.5 -48c-54 1.33301 -90.333 20.333 -109 57l-4 23c-36.667 -55.333 -90 -83 -160 -83c-60.667 0 -111 21.333 -151 64s-60 94.667 -60 156
c0 62 20 114.333 60 157s90.333 64 151 64c61.333 0 110.333 -23.333 147 -70l5 64h70v-288c0 -21.333 4.83301 -37.333 14.5 -48s22.5 -16 38.5 -16c17.333 0 30.833 6.66699 40.5 20s14.5 38.666 14.5 75.999v54c0 63.333 -15 119.5 -45 168.5s-68.667 85.667 -116 110
s-98.666 36.5 -153.999 36.5c-83.333 0 -156.5 -29.667 -219.5 -89s-94.5 -137.333 -94.5 -234c0 -97.333 31.5 -175.333 94.5 -234s136.167 -88 219.5 -88c62.667 0 120.667 17.667 174 53l60 -61c-70 -50 -148 -75 -234 -75c-112.667 0 -208.334 39.333 -287.001 118
s-118 174.334 -118 287.001c0 112 39.5 207.667 118.5 287s174.5 119 286.5 119zM455 371c-31.333 0 -58.501 -11.333 -81.501 -34s-34.5 -51.667 -34.5 -87s11.5 -64.166 34.5 -86.499s50.167 -33.5 81.5 -33.5c32 0 59.5 11.167 82.5 33.5s34.5 51.166 34.5 86.499
s-11.667 64.333 -35 87s-50.666 34 -81.999 34z" />
    <glyph glyph-name="A" unicode="A" horiz-adv-x="739" 
d="M246 128l-50 -128h-153l288 700h81l284 -700h-153l-50 128h-247zM370 450l-76 -191h151z" />
    <glyph glyph-name="B" unicode="B" horiz-adv-x="692" 
d="M105 700l270 0.00390625c48 0 88.667 -6.16699 122 -18.5s57.833 -28.833 73.5 -49.5s26.5 -40.334 32.5 -59.001s9 -38.334 9 -59.001c0 -74.667 -30.667 -124.334 -92 -149.001c36.667 -8.66699 65.667 -27.834 87 -57.501s32 -65.167 32 -106.5
c0 -134 -86.333 -201 -259 -201h-275v700zM243 570.004v-150h147c33.333 0 57 7.5 71 22.5s21 32.5 21 52.5c0 50 -30.667 75 -92 75h-147zM243 301.004v-170h166c35.333 0 60.833 7.83301 76.5 23.5s23.5 36.167 23.5 61.5c0 24 -8.16699 44.167 -24.5 60.5
s-41.5 24.5 -75.5 24.5h-166z" />
    <glyph glyph-name="C" unicode="C" horiz-adv-x="731" 
d="M414 707c104 0 192 -38.6689 264 -116.002l-90 -83c-47.333 46 -105.333 69 -174 69c-62 0 -113.833 -21.333 -155.5 -64s-62.5 -97 -62.5 -163c0 -66.667 20.833 -121.167 62.5 -163.5s93.5 -63.5 155.5 -63.5c70 0 128 23 174 69l90 -83
c-72 -77.333 -160 -116 -264 -116c-98.667 0 -182.667 34.833 -252 104.5s-104 153.834 -104 252.501s34.667 182.834 104 252.501s153.333 104.5 252 104.5z" />
    <glyph glyph-name="D" unicode="D" horiz-adv-x="762" 
d="M105 700h243c99.333 0 183.5 -33.167 252.5 -99.5s103.5 -149.833 103.5 -250.5s-34.333 -184.167 -103 -250.5s-153 -99.5 -253 -99.5h-243v700zM243 130h105c63.333 0 115.5 19.5 156.5 58.5s61.5 92.833 61.5 161.5s-20.5 122.5 -61.5 161.5s-93.167 58.5 -156.5 58.5
h-105v-440z" />
    <glyph glyph-name="E" unicode="E" horiz-adv-x="624" 
d="M243 417h303v-130h-303v-157h328v-130h-466v700h466v-130h-328v-153z" />
    <glyph glyph-name="F" unicode="F" horiz-adv-x="624" 
d="M243 417h303v-130h-303v-287h-138v700h466v-130h-328v-153z" />
    <glyph glyph-name="G" unicode="G" horiz-adv-x="773" 
d="M414 706c104 0 192 -38.6689 264 -116.002l-90 -83c-46 46 -104 69 -174 69c-62 0 -113.833 -21.167 -155.5 -63.5s-62.5 -96.833 -62.5 -163.5c0 -66 20.833 -120.333 62.5 -163s93.5 -64 155.5 -64c47.333 0 89.333 13 126 39v121h-128v104h266v-278
c-72 -77.333 -160 -116 -264 -116c-98.667 0 -182.667 34.833 -252 104.5s-104 153.834 -104 252.501s34.667 182.834 104 252.501s153.333 104.5 252 104.5z" />
    <glyph glyph-name="H" unicode="H" horiz-adv-x="758" 
d="M652 0h-138v287h-271v-287h-138v700h138v-283h271v283h138v-700z" />
    <glyph glyph-name="I" unicode="I" horiz-adv-x="517" 
d="M327 130h84v-130h-306v130h84v440h-84v130h306v-130h-84v-440z" />
    <glyph glyph-name="J" unicode="J" horiz-adv-x="608" 
d="M550 700l-0.00195312 -444c0 -88.667 -23 -154.667 -69 -198s-105 -65 -177 -65s-131 21.667 -177 65s-69 109.333 -69 198v39h138v-59c0 -35.333 10.333 -63 31 -83s46.334 -30 77.001 -30s56.334 10 77.001 30s31 47.667 31 83v334h-205v130h343z" />
    <glyph glyph-name="K" unicode="K" horiz-adv-x="745" 
d="M546 0l-143.999 224.997c-16 24.667 -30 41.334 -42 50.001s-29.667 13 -53 13h-64v-288h-138v700h138v-279h60c22.667 0 40.167 4.33301 52.5 13s26.5 25.334 42.5 50.001l138 216h156l-165 -258c-32.667 -44.667 -59.667 -72.667 -81 -84
c25.333 -11.333 53.666 -41.666 84.999 -90.999l171 -267h-156z" />
    <glyph glyph-name="L" unicode="L" horiz-adv-x="601" 
d="M558 0h-453v700h138v-570h315v-130z" />
    <glyph glyph-name="M" unicode="M" horiz-adv-x="897" 
d="M792 0h-138v447l-211 -262l-210 262v-447h-138v700h82l266 -334l267 334h82v-700z" />
    <glyph glyph-name="N" unicode="N" horiz-adv-x="741" 
d="M646 0h-82l-331 441v-441h-138v700h81l332 -441v441h138v-700z" />
    <glyph glyph-name="O" unicode="O" horiz-adv-x="829" 
d="M414 707c98.667 0 182.834 -34.833 252.501 -104.5s104.5 -153.834 104.5 -252.501s-34.833 -182.834 -104.5 -252.501s-153.834 -104.5 -252.501 -104.5s-182.667 34.833 -252 104.5s-104 153.834 -104 252.501s34.667 182.834 104 252.501s153.333 104.5 252 104.5z
M414 577c-62 0 -113.834 -21.333 -155.501 -64s-62.5 -97 -62.5 -163c0 -66.667 20.833 -121.167 62.5 -163.5s93.5 -63.5 155.5 -63.5c62.667 0 114.834 21.167 156.501 63.5s62.5 96.833 62.5 163.5c0 66 -21 120.333 -63 163s-94 64 -156 64z" />
    <glyph glyph-name="P" unicode="P" horiz-adv-x="705" 
d="M105 700l230 -0.000976562c96 0 172 -25.167 228 -75.5s84 -114.833 84 -193.5c0 -79.333 -28 -144.166 -84 -194.499s-132 -75.5 -228 -75.5h-92v-161h-138v700zM243 290.999h103c48.667 0 89.167 11.667 121.5 35s48.5 58.333 48.5 105c0 44.667 -16.333 79 -49 103
s-73 36 -121 36h-103v-279z" />
    <glyph glyph-name="Q" unicode="Q" horiz-adv-x="865" 
d="M414 707c98.667 0 182.833 -34.833 252.5 -104.5s104.5 -153.834 104.5 -252.501c0 -45.333 -9.16699 -87.833 -27.5 -127.5s-43.5 -72.834 -75.5 -99.501h140v-130h-394c-98.667 0 -182.667 34.833 -252 104.5s-104 153.834 -104 252.501s34.667 182.834 104 252.501
s153.333 104.5 252 104.5zM413.999 577c-62 0 -113.834 -21.333 -155.501 -64s-62.5 -97 -62.5 -163c0 -66.667 20.833 -121.167 62.5 -163.5s93.5 -63.5 155.5 -63.5c62.667 0 114.834 21.167 156.501 63.5s62.5 96.833 62.5 163.5c0 66 -21 120.333 -63 163
s-94 64 -156 64z" />
    <glyph glyph-name="R" unicode="R" horiz-adv-x="703" 
d="M105 700l238 0.000976562c95.333 0 169.833 -24.833 223.5 -74.5s80.5 -112.834 80.5 -189.501c0 -52 -13.167 -97 -39.5 -135s-63.5 -66.333 -111.5 -85c29.333 -18.667 64 -59.667 104 -123l60 -93h-155l-45 70c-28 42.667 -49.833 70 -65.5 82s-40.5 18.333 -74.5 19
h-77v-171h-138v700zM243 570.001v-269.001h113c48 0 86.667 11.333 116 34s44 56.334 44 101.001c0 42.667 -14.833 75.667 -44.5 99s-68.167 35 -115.5 35h-113z" />
    <glyph glyph-name="S" unicode="S" horiz-adv-x="680" 
d="M328 707l8.00098 0.000976562c48 0 95.667 -10.5 143 -31.5s89.666 -49.167 126.999 -84.5l-90 -83c-25.333 20.667 -55.166 37.334 -89.499 50.001s-64.5 19 -90.5 19h-8c-29.333 0 -56.833 -6.16699 -82.5 -18.5s-38.5 -32.166 -38.5 -59.499
c0 -21.333 10.167 -37 30.5 -47s49.166 -17.333 86.499 -22l56 -6c78 -9.33301 138.833 -30.5 182.5 -63.5s65.5 -83.5 65.5 -151.5c0 -65.333 -25.5 -117.5 -76.5 -156.5s-116.167 -58.833 -195.5 -59.5h-6c-66 0 -124.5 13.167 -175.5 39.5s-91.5 60.166 -121.5 101.499
l90 83c18 -25.333 45 -47.333 81 -66s78 -28 126 -28h6c40.667 0.666992 73.167 8.66699 97.5 24s36.5 36 36.5 62c0 28 -11 48.167 -33 60.5s-54 21.166 -96 26.499l-55 6c-158 18.667 -237 82.667 -237 192c0 64 24.5 115.167 73.5 153.5s110.833 58.166 185.5 59.499z
" />
    <glyph glyph-name="T" unicode="T" horiz-adv-x="608" 
d="M373 570v-570h-138v570h-192v130h522v-130h-192z" />
    <glyph glyph-name="U" unicode="U" horiz-adv-x="768" 
d="M673 700v-406c0 -96 -27.667 -170.167 -83 -222.5s-122.333 -78.5 -201 -78.5c-79.333 0 -146.5 26.167 -201.5 78.5s-82.5 126.5 -82.5 222.5v406h138v-403c0 -60.667 14 -104.834 42 -132.501s62.667 -41.5 104 -41.5s76 13.833 104 41.5s42 71.834 42 132.501v403h138
z" />
    <glyph glyph-name="V" unicode="V" horiz-adv-x="741" 
d="M414 0h-82l-289 700h153l175 -447l175 447h153z" />
    <glyph glyph-name="W" unicode="W" horiz-adv-x="1155" 
d="M830 0h-82l-170 421l-171 -421h-81l-283 700h153l169 -446l172 446h81l172 -446l169 446h153z" />
    <glyph glyph-name="X" unicode="X" horiz-adv-x="726" 
d="M362 238l-161 -238h-158l243 365l-227 335h157l149 -214l146 214h157l-227 -341l243 -359h-157z" />
    <glyph glyph-name="Y" unicode="Y" horiz-adv-x="722" 
d="M430 0h-138v234l-249 466h157l162 -296l161 296h157l-250 -466v-234z" />
    <glyph glyph-name="Z" unicode="Z" horiz-adv-x="626" 
d="M574 0h-521v81l321 489h-294v130h485v-82l-321 -488h330v-130z" />
    <glyph glyph-name="bracketleft" unicode="[" horiz-adv-x="314" 
d="M193 -9h65v-131h-203v890h203v-130h-65v-629z" />
    <glyph glyph-name="backslash" unicode="\" horiz-adv-x="430" 
d="M374 0h-79l-240 700h80z" />
    <glyph glyph-name="bracketright" unicode="]" horiz-adv-x="314" 
d="M55 620v130h203v-890h-203v131h65v629h-65z" />
    <glyph glyph-name="asciicircum" unicode="^" horiz-adv-x="513" 
d="M457 388h-81l-120 183l-120 -183h-81l201 307z" />
    <glyph glyph-name="underscore" unicode="_" horiz-adv-x="525" 
d="M470 -111h-415v60h415v-60z" />
    <glyph glyph-name="grave" unicode="`" horiz-adv-x="332" 
d="M191 737l85 -146h-96l-125 146h136z" />
    <glyph glyph-name="a" unicode="a" 
d="M557 0h-85l-7 71c-40.667 -51.333 -96 -77 -166 -77s-128.167 24.667 -174.5 74s-69.5 110 -69.5 182s23.167 132.833 69.5 182.5s104.5 74.5 174.5 74.5s125.333 -26 166 -78l7 71h85v-500zM311 117c34.667 0 64.8359 12.333 90.5029 37s38.5 56.667 38.5 96
s-12.833 71.5 -38.5 96.5s-55.834 37.5 -90.501 37.5s-64.834 -12.5 -90.501 -37.5s-38.5 -57.167 -38.5 -96.5s12.667 -71.333 38 -96s55.666 -37 90.999 -37z" />
    <glyph glyph-name="b" unicode="b" 
d="M212 700v-249c32.667 37.333 76.667 56 132 56c70 0 128 -24.833 174 -74.5s69 -110.5 69 -182.5s-23 -132.667 -69 -182s-104 -74 -174 -74s-125.667 25.667 -167 77l-7 -71h-85v700h127zM331 384c-34.667 0 -64.832 -12.5 -90.499 -37.5s-38.5 -57.167 -38.5 -96.5
s12.833 -71.333 38.5 -96s55.834 -37 90.501 -37c35.333 0 65.666 12.333 90.999 37s38 56.667 38 96s-12.833 71.5 -38.5 96.5s-55.834 37.5 -90.501 37.5z" />
    <glyph glyph-name="c" unicode="c" horiz-adv-x="559" 
d="M311 506c80 0 145.667 -30.667 197 -92l-76 -82c-36.667 34 -77 51 -121 51c-35.333 0 -65.666 -12.333 -90.999 -37s-38 -56.667 -38 -96s12.667 -71.333 38 -96s55.666 -37 90.999 -37c44 0 84.333 17 121 51l76 -82c-51.333 -61.333 -117 -92 -197 -92
c-71.333 0 -131.833 25 -181.5 75s-74.5 110.333 -74.5 181s24.833 131 74.5 181s110.167 75 181.5 75z" />
    <glyph glyph-name="d" unicode="d" 
d="M557 0h-85.001l-7 71c-40.667 -51.333 -96 -77 -166 -77s-128.167 24.667 -174.5 74s-69.5 110 -69.5 182s23.167 132.833 69.5 182.5s104.5 74.5 174.5 74.5c54.667 0 98.334 -18.667 131.001 -56v249h127v-700zM310.999 117c34.667 0 64.8359 12.333 90.5029 37
s38.5 56.667 38.5 96s-12.833 71.5 -38.5 96.5s-55.834 37.5 -90.501 37.5s-64.834 -12.5 -90.501 -37.5s-38.5 -57.167 -38.5 -96.5s12.667 -71.333 38 -96s55.666 -37 90.999 -37z" />
    <glyph glyph-name="e" unicode="e" horiz-adv-x="595" 
d="M307 507c106 0 179.333 -44.999 220 -134.999c10 -22 15.667 -48.5 17 -79.5s-1.66699 -56.833 -9 -77.5h-349c0 -32.667 11.833 -58.334 35.5 -77.001s53.167 -28 88.5 -28c55.333 0 105.666 11.667 150.999 35l67 -73c-70 -52 -142.667 -78 -218 -78
s-136.666 24.167 -183.999 72.5s-71 109.5 -71 183.5c0 73.333 23 134.5 69 183.5s107 73.5 183 73.5zM307 391.001c-32.667 0 -59.833 -9.66797 -81.5 -29.001s-33.167 -41.666 -34.5 -66.999h229c0 14.667 -4 28 -12 40c-20 37.333 -53.667 56 -101 56z" />
    <glyph glyph-name="f" unicode="f" horiz-adv-x="405" 
d="M354 705v-115h-9c-31.333 0 -55.333 -5.5 -72 -16.5s-25 -31.5 -25 -61.5v-12h106v-123h-107v-378h-127v378h-65v123h67v16c0 64 20.167 112.667 60.5 146s92.5 48 156.5 44z" />
    <glyph glyph-name="g" unicode="g" horiz-adv-x="638" 
d="M294 507c70 0 125.334 -25.666 166.001 -76.999l7 70h85v-436c0 -74.667 -22.667 -135.834 -68 -183.501s-106.333 -71.5 -183 -71.5c-84.667 0 -158.334 26 -221.001 78l72 77c53.333 -26.667 103 -39.667 149 -39c37.333 0 67 9.5 89 28.5s33 46.167 33 81.5v28
c-32.667 -36 -75.667 -54 -129 -54c-70 0 -128.167 24.333 -174.5 73s-69.5 107 -69.5 175c0 68.667 23.167 127.5 69.5 176.5s104.5 73.5 174.5 73.5zM306.001 384.001c-34.667 0 -64.834 -12 -90.501 -36s-38.5 -54.333 -38.5 -91c0 -36 12.833 -65.833 38.5 -89.5
s55.834 -35.5 90.501 -35.5c34 0 64 11.833 90 35.5s39 53.5 39 89.5c0 36.667 -13 67 -39 91s-56 36 -90 36z" />
    <glyph glyph-name="h" unicode="h" horiz-adv-x="655" 
d="M356 507c70.667 0 124.667 -21.832 162 -65.499s56 -102.834 56 -177.501v-264h-127v256c0 85.333 -37 128 -111 128c-38 0 -67.333 -11.5 -88 -34.5s-31 -57.833 -31 -104.5v-245h-127v700h127v-252c30.667 39.333 77 59 139 59z" />
    <glyph glyph-name="i" unicode="i" horiz-adv-x="324" 
d="M164 545c-20.667 0 -38.167 6.33301 -52.5 19s-21.5 28.334 -21.5 47.001s7.16699 34.334 21.5 47.001s31.833 19 52.5 19c21.333 0 39.166 -6.33301 53.499 -19s21.5 -28.334 21.5 -47.001s-7.16699 -34.334 -21.5 -47.001s-32.166 -19 -53.499 -19zM101 0v500h127v-500
h-127z" />
    <glyph glyph-name="j" unicode="j" horiz-adv-x="324" 
d="M164 677c21.333 0 39.166 -6.33301 53.499 -19s21.5 -28.334 21.5 -47.001s-7.16699 -34.334 -21.5 -47.001s-32.166 -19 -53.499 -19c-20.667 0 -38.167 6.33301 -52.5 19s-21.5 28.334 -21.5 47.001s7.16699 34.334 21.5 47.001s31.833 19 52.5 19zM228 -184h-128v684
h128v-684z" />
    <glyph glyph-name="k" unicode="k" horiz-adv-x="607" 
d="M433 0l-86 132.997c-16 24.667 -30.167 41.334 -42.5 50.001s-29.833 13 -52.5 13h-35v-196h-127v700h127v-382h31c22.667 0 40 4.33301 52 13s26 25.334 42 50.001l78 119h141l-112 -169c-25.333 -39.333 -49 -63.666 -71 -72.999c22.667 -7.33301 48 -32.333 76 -75
l120 -183h-141z" />
    <glyph glyph-name="l" unicode="l" horiz-adv-x="299" 
d="M90 0v700h128v-700h-128z" />
    <glyph glyph-name="m" unicode="m" horiz-adv-x="1007" 
d="M708 507c70.667 0 124.668 -21.832 162.001 -65.499s56 -102.834 56 -177.501v-264h-127v256c0 85.333 -37 128 -111 128c-38 0 -67.333 -11.5 -88 -34.5s-31 -57.833 -31 -104.5v-245h-127v256c0 85.333 -37 128 -111 128c-38 0 -67.333 -11.5 -88 -34.5
s-31 -57.833 -31 -104.5v-245h-127v500h85l9 -78c34.667 56.667 92 85 172 85c85.333 0 144.666 -32.333 177.999 -97c16 31.333 39.667 55.333 71 72s67.333 25 108 25z" />
    <glyph glyph-name="n" unicode="n" horiz-adv-x="650" 
d="M351 507c70.667 0 124.667 -21.832 162 -65.499s56 -102.834 56 -177.501v-264h-127v256c0 85.333 -37 128 -111 128c-38 0 -67.333 -11.5 -88 -34.5s-31 -57.833 -31 -104.5v-245h-127v500h85l9 -78c34.667 56.667 92 85 172 85z" />
    <glyph glyph-name="o" unicode="o" horiz-adv-x="623" 
d="M311 507c71.333 0 132 -25.167 182 -75.5s75 -110.833 75 -181.5s-25 -131 -75 -181s-110.667 -75 -182 -75s-131.833 25 -181.5 75s-74.5 110.333 -74.5 181c0 71.333 25 132 75 182s110.333 75 181 75zM311 384c-34.667 0 -64.832 -12.5 -90.499 -37.5
s-38.5 -57.167 -38.5 -96.5s12.667 -71.333 38 -96s55.666 -37 90.999 -37c34.667 0 64.834 12.333 90.501 37s38.5 56.667 38.5 96s-12.833 71.5 -38.5 96.5s-55.834 37.5 -90.501 37.5z" />
    <glyph glyph-name="p" unicode="p" horiz-adv-x="636" 
d="M337 506c70 0 128 -24.667 174 -74s69 -110 69 -182s-23 -132.833 -69 -182.5s-104 -74.5 -174 -74.5c-54 0 -98 18.667 -132 56v-233h-127v684h85l7 -71c41.333 51.333 97 77 167 77zM325 383c-34.667 0 -64.8359 -12.333 -90.5029 -37s-38.5 -56.667 -38.5 -96
s12.833 -71.5 38.5 -96.5s55.834 -37.5 90.501 -37.5s64.834 12.5 90.501 37.5s38.5 57.167 38.5 96.5s-12.667 71.333 -38 96s-55.666 37 -90.999 37z" />
    <glyph glyph-name="q" unicode="q" 
d="M557 -184h-127v233c-34 -37.333 -77.667 -56 -131 -56c-70 0 -128.167 24.833 -174.5 74.5s-69.5 110.5 -69.5 182.5s23.167 132.667 69.5 182s104.5 74 174.5 74s125.333 -25.667 166 -77l7 71h85v-684zM311 116c34.667 0 64.832 12.5 90.499 37.5
s38.5 57.167 38.5 96.5s-12.833 71.333 -38.5 96s-55.834 37 -90.501 37c-35.333 0 -65.666 -12.333 -90.999 -37s-38 -56.667 -38 -96s12.833 -71.5 38.5 -96.5s55.834 -37.5 90.501 -37.5z" />
    <glyph glyph-name="r" unicode="r" horiz-adv-x="436" 
d="M403 384h-51c-45.333 0 -80 -14.167 -104 -42.5s-36 -66.833 -36 -115.5v-226h-127v500h85l14 -108c40.667 76.667 106.667 115 198 115h21v-123z" />
    <glyph glyph-name="s" unicode="s" horiz-adv-x="552" 
d="M270 507l7.99902 0.00195312c41.333 0 80.833 -8.33301 118.5 -25s67.5 -39.334 89.5 -68.001l-72 -67c-15.333 17.333 -36.166 31.5 -62.499 42.5s-50.5 16.5 -72.5 16.5h-8c-23.333 -0.666992 -42 -5.33398 -56 -14.001s-21 -20.667 -21 -36
c0 -14 6.16699 -24.333 18.5 -31s33.833 -11.334 64.5 -14.001l34 -4c123.333 -8.66699 185 -60.667 185 -156c0 -45.333 -18.333 -82.833 -55 -112.5s-85.334 -44.5 -146.001 -44.5h-5c-49.333 0 -95.666 8.83301 -138.999 26.5s-75.333 40.834 -96 69.501l72 68
c14.667 -17.333 37.667 -31.833 69 -43.5s62.333 -17.5 93 -17.5h5c50 0 75 16.333 75 49c0 18.667 -6.66699 31.667 -20 39s-35.333 12.333 -66 15l-28 3c-125.333 10.667 -188 59 -188 145c0 49.333 19.333 88 58 116s87 42.333 145 43z" />
    <glyph glyph-name="t" unicode="t" horiz-adv-x="359" 
d="M248 377v-377h-128v377h-65v123h65v168h128v-168h65v-123h-65z" />
    <glyph glyph-name="u" unicode="u" horiz-adv-x="645" 
d="M564 0l-84.999 -0.000976562l-9 78c-34.667 -56.667 -91.667 -85 -171 -85c-70.667 0 -124.834 21.833 -162.501 65.5s-56.5 102.834 -56.5 177.501v264h127v-256c0 -85.333 37.333 -128 112 -128c37.333 0 66.333 11.5 87 34.5s31 57.833 31 104.5v245h127v-500z" />
    <glyph glyph-name="v" unicode="v" horiz-adv-x="609" 
d="M346 0h-82l-231 500h135l137 -313l138 313h134z" />
    <glyph glyph-name="w" unicode="w" horiz-adv-x="955" 
d="M695 0h-81l-136 297l-136 -297h-82l-227 500h135l133 -313l136 313h82l136 -313l133 313h135z" />
    <glyph glyph-name="x" unicode="x" horiz-adv-x="600" 
d="M299 154l-119 -154h-147l195 260l-184 240h147l111 -138l108 138h146l-184 -245l196 -255h-147z" />
    <glyph glyph-name="y" unicode="y" horiz-adv-x="650" 
d="M569 500l0.00195312 -435.999c0 -74.667 -22.667 -135.834 -68 -183.501s-106 -71.5 -182 -71.5c-85.333 0 -159.333 26 -222 78l72 77c53.333 -26.667 103.333 -39.667 150 -39c37.333 0 67 9.5 89 28.5s33 46.167 33 81.5v32c-30.667 -39.333 -76.334 -59 -137.001 -59
c-70.667 0 -124.834 22 -162.501 66s-56.5 103.333 -56.5 178v248h127v-241c0 -85.333 37.333 -128 112 -128c37.333 0 66.333 11.5 87 34.5s31 57.833 31 104.5v230h127z" />
    <glyph glyph-name="z" unicode="z" horiz-adv-x="535" 
d="M480 0h-425l1 96l233 281h-215v123h396l-1 -96l-233 -281h244v-123z" />
    <glyph glyph-name="braceleft" unicode="{" horiz-adv-x="408" 
d="M352 620h-19c-14 0 -26 -5.33301 -36 -16s-15 -24 -15 -40v-107c0 -86 -30.667 -134.333 -92 -145c60.667 -10.667 91 -53.334 91 -128.001v-137c0 -16 5.16699 -29.333 15.5 -40s22.5 -16 36.5 -16h19v-130h-42c-50 0 -90 14.667 -120 44s-45.333 70.333 -46 123l-1 120
c-1.33301 42 -8 69.5 -20 82.5s-33 20.167 -63 21.5h-5v119h5c30.667 1.33301 52 8.33301 64 21s18.333 39.334 19 80.001l1 111c0.666992 52.667 16 93.667 46 123s70 44 120 44h42v-130z" />
    <glyph glyph-name="bar" unicode="|" horiz-adv-x="197" 
d="M142 -60h-87v760h87v-760z" />
    <glyph glyph-name="braceright" unicode="}" horiz-adv-x="408" 
d="M55 750l42 -0.00292969c50 0 90 -14.667 120 -44s45.333 -70.333 46 -123l1 -111c0.666992 -41.333 7 -68.166 19 -80.499s33.333 -19.166 64 -20.499h5v-119h-5c-30 -1.33301 -51 -8.5 -63 -21.5s-18.667 -40.5 -20 -82.5l-1 -120
c-0.666992 -52.667 -16 -93.667 -46 -123s-70 -44 -120 -44h-42v130h20c14 0 26 5.33301 36 16s15 24 15 40v137c0 74.667 30.333 117.334 91 128.001c-60.667 10.667 -91 59 -91 145v107c0 16 -5 29.333 -15 40s-22 16 -36 16h-20v130z" />
    <glyph glyph-name="asciitilde" unicode="~" horiz-adv-x="545" 
d="M490 330l-42 -87.002c-11.333 -24 -26.833 -40.833 -46.5 -50.5s-38.667 -13.5 -57 -11.5s-35.833 8 -52.5 18l-61 36c-43.333 24.667 -74.333 21.667 -93 -9l-17 -28h-66l42 87c11.333 24 26.833 40.833 46.5 50.5s38.667 13.334 57 11.001s35.833 -8.5 52.5 -18.5
l61 -35c17.333 -10.667 34.833 -15.667 52.5 -15s31.167 8.33398 40.5 23.001l18 29h65z" />
    <glyph glyph-name="exclamdown" unicode="&#xa1;" horiz-adv-x="262" 
d="M131 546c20.667 0 38.334 -6.5 53.001 -19.5s22 -29.167 22 -48.5c0 -18.667 -7.33301 -34.5 -22 -47.5s-32.334 -19.5 -53.001 -19.5c-21.333 0 -39.333 6.5 -54 19.5s-22 28.833 -22 47.5c0 19.333 7.33301 35.5 22 48.5s32.667 19.5 54 19.5zM62 -161v270l12 239h114
l12 -240v-269h-138z" />
    <glyph glyph-name="cent" unicode="&#xa2;" horiz-adv-x="564" 
d="M348 379v-257.998c28.667 6 56.667 21.667 84 47l76 -82c-42.667 -50.667 -96 -80.334 -160 -89.001v-95h-79v95c-61.333 10 -112.333 38.833 -153 86.5s-61 103.167 -61 166.5s20.333 118.833 61 166.5s91.667 76.5 153 86.5v98h79v-98
c64 -8.66699 117.333 -38.334 160 -89.001l-76 -82c-27.333 25.333 -55.333 41 -84 47zM182 250.002c0 -30.667 8.16699 -57.332 24.5 -79.999s37.166 -38 62.499 -46v252c-25.333 -8 -46.166 -23.333 -62.499 -46s-24.5 -49.334 -24.5 -80.001z" />
    <glyph glyph-name="sterling" unicode="&#xa3;" horiz-adv-x="686" 
d="M434 262h-161c7.33301 -28.667 8.83301 -54.167 4.5 -76.5s-17.166 -40.833 -38.499 -55.5h326v-130h-508v86c38.667 24.667 63.167 50.5 73.5 77.5s12.5 59.833 6.5 98.5h-82v130h55c-6 35.333 -10.333 66.333 -13 93c-4 71.333 19 126.166 69 164.499
s113.667 57.5 191 57.5h8c48 -0.666992 95.167 -11.5 141.5 -32.5s87.5 -48.833 123.5 -83.5l-89 -83c-26 20.667 -56.167 37.334 -90.5 50.001s-64.5 19 -90.5 19h-9c-13.333 0 -26 -1.5 -38 -4.5s-24.833 -8.16699 -38.5 -15.5s-24 -19 -31 -35s-9.83301 -35.667 -8.5 -59
c1.33301 -19.333 4.66602 -43 9.99902 -71h189v-130z" />
    <glyph glyph-name="currency" unicode="&#xa4;" horiz-adv-x="636" 
d="M580 469l-64 -63.999c30.667 -42 46 -89.167 46 -141.5s-15.333 -99.833 -46 -142.5l63 -63l-56 -56l-63 64c-42 -30.667 -89.167 -46 -141.5 -46s-99.5 15.333 -141.5 46l-65 -65l-56 56l65 65c-31.333 42 -47 89.167 -47 141.5s15.667 99.5 47 141.5l-65 64l56 56
l65 -65c42 30.667 89.167 46.167 141.5 46.5s99.5 -14.834 141.5 -45.501l64 64zM283 157.001c26.667 -10 53.667 -8.5 81 4.5s45.666 35.167 54.999 66.5c9.33301 32 7.16602 60.833 -6.50098 86.5s-33.834 43.5 -60.501 53.5c-26.667 10.667 -53.667 9.5 -81 -3.5
s-45.666 -35.5 -54.999 -67.5s-7.16602 -60.833 6.50098 -86.5s33.834 -43.5 60.501 -53.5z" />
    <glyph glyph-name="yen" unicode="&#xa5;" horiz-adv-x="748" 
d="M498 339h137v-154h-193v-185h-138v185h-192v154h136l-193 361h157l162 -296l161 296h157z" />
    <glyph glyph-name="brokenbar" unicode="&#xa6;" horiz-adv-x="197" 
d="M142 368h-87v332h87v-332zM142 -60h-87v331h87v-331z" />
    <glyph glyph-name="section" unicode="&#xa7;" horiz-adv-x="552" 
d="M266 624h12c41.333 0 80.833 -8.33301 118.5 -25s67.5 -39.334 89.5 -68.001l-72 -67c-15.333 17.333 -36.166 31.5 -62.499 42.5s-50.5 16.5 -72.5 16.5h-10c-22.667 -0.666992 -40.834 -5.33398 -54.501 -14.001s-20.5 -20.667 -20.5 -36
c0 -24.667 16.667 -38.667 50 -42l32 -2c66 -0.666992 119.167 -14.167 159.5 -40.5s60.5 -66.5 60.5 -120.5c0 -38 -13.333 -70.333 -40 -97c18.667 -21.333 28 -48.333 28 -81c0 -48 -18.833 -86.167 -56.5 -114.5s-84.834 -43.166 -141.501 -44.499h-12
c-42 0 -81.667 8.33301 -119 25s-67.333 39.334 -90 68.001l72 67c15.333 -17.333 36.166 -31.5 62.499 -42.5s50.5 -16.5 72.5 -16.5h8c51.333 1.33301 77 18 77 50c0 24.667 -16.667 38.667 -50 42l-32 2c-27.333 0 -53.166 2.66699 -77.499 8
s-47.666 13.833 -69.999 25.5s-40 28.334 -53 50.001s-19.5 47.5 -19.5 77.5c0 36.667 13.333 69 40 97c-18.667 21.333 -28 48.333 -28 81c0 48 18.833 86.167 56.5 114.5s85.167 43.166 142.5 44.499zM204 329c-14.667 -8.66699 -22 -21 -22 -37c0 -30 28 -48 84 -54
l31 -3c19.333 -2 36 -5 50 -9c14.667 8.66699 22 21 22 37c0 16.667 -7 29.167 -21 37.5s-35.333 13.833 -64 16.5l-29 3c-20 2 -37 5 -51 9z" />
    <glyph glyph-name="dieresis" unicode="&#xa8;" horiz-adv-x="475" 
d="M129 606c-20.667 0 -38.167 6.33301 -52.5 19s-21.5 28.334 -21.5 47.001s7.16699 34.5 21.5 47.5s31.833 19.5 52.5 19.5c21.333 0 39.166 -6.5 53.499 -19.5s21.5 -28.833 21.5 -47.5s-7.16699 -34.334 -21.5 -47.001s-32.166 -19 -53.499 -19zM345 606
c-20.667 0 -38.167 6.33301 -52.5 19s-21.5 28.334 -21.5 47.001s7.16699 34.5 21.5 47.5s31.833 19.5 52.5 19.5c21.333 0 39.166 -6.5 53.499 -19.5s21.5 -28.833 21.5 -47.5s-7.16699 -34.334 -21.5 -47.001s-32.166 -19 -53.499 -19z" />
    <glyph glyph-name="copyright" unicode="&#xa9;" horiz-adv-x="648" 
d="M324 700c74.667 0 138 -26.3311 190 -78.998s78 -116.334 78 -191.001s-26 -138.334 -78 -191.001s-115.333 -79 -190 -79s-138.167 26.5 -190.5 79.5s-78.5 116.5 -78.5 190.5s26.167 137.5 78.5 190.5s115.833 79.5 190.5 79.5zM324 649.002
c-60.667 0 -112 -21.333 -154 -64s-63 -94.334 -63 -155.001s21 -112.334 63 -155.001s93.333 -64 154 -64s112 21.333 154 64s63 94.334 63 155.001s-21 112.334 -63 155.001s-93.333 64 -154 64zM324 587.002c48.667 0 89 -18.666 121 -55.999l-46 -49
c-24 21.333 -49 32 -75 32c-21.333 0 -40 -7.83301 -56 -23.5s-24 -35.834 -24 -60.501c0 -24 8 -43.833 24 -59.5s34.667 -23.5 56 -23.5c26 0 51 11 75 33l45 -50c-30.667 -38 -70.667 -57 -120 -57c-43.333 0 -80.333 15.333 -111 46s-46 67.667 -46 111
s15.333 80.333 46 111s67.667 46 111 46z" />
    <glyph glyph-name="guillemotleft" unicode="&#xab;" horiz-adv-x="489" 
d="M253 331l-81 -73l81 -72v-112l-198 184l198 185v-112zM433 331l-81 -73l81 -72v-112l-198 184l198 185v-112z" />
    <glyph glyph-name="logicalnot" unicode="&#xac;" horiz-adv-x="525" 
d="M383 232h-328v79h414v-182h-86v103z" />
    <glyph glyph-name="registered" unicode="&#xae;" horiz-adv-x="648" 
d="M324 700c74.667 0 138 -26.3311 190 -78.998s78 -116.334 78 -191.001s-26 -138.334 -78 -191.001s-115.333 -79 -190 -79s-138.167 26.5 -190.5 79.5s-78.5 116.5 -78.5 190.5s26.167 137.5 78.5 190.5s115.833 79.5 190.5 79.5zM324 649.002
c-60.667 0 -112 -21.333 -154 -64s-63 -94.334 -63 -155.001s21 -112.334 63 -155.001s93.333 -64 154 -64s112 21.333 154 64s63 94.334 63 155.001s-21 112.334 -63 155.001s-93.333 64 -154 64zM192 579.002h146c44.667 0 76.5 -10.5 95.5 -31.5s28.5 -46.167 28.5 -75.5
c0 -20 -6 -38 -18 -54s-29 -26.333 -51 -31l75 -105h-78l-68 91h-56v-91h-74v297zM266 508.002v-72h79c28.667 0 43 12 43 36s-14.333 36 -43 36h-79z" />
    <glyph glyph-name="macron" unicode="&#xaf;" horiz-adv-x="373" 
d="M317 643h-262v94h262v-94z" />
    <glyph glyph-name="degree" unicode="&#xb0;" horiz-adv-x="362" 
d="M181 739c34.667 0 64.1689 -12.3311 88.502 -36.998s36.5 -54.334 36.5 -89.001s-12.167 -64.167 -36.5 -88.5s-53.833 -36.5 -88.5 -36.5s-64.334 12.167 -89.001 36.5s-37 53.833 -37 88.5c0 35.333 12.167 65.166 36.5 89.499s54.166 36.5 89.499 36.5z
M181.002 667.002c-15.333 0 -28.166 -5.1709 -38.499 -15.5039s-15.5 -23.166 -15.5 -38.499s5.16699 -28.166 15.5 -38.499s23.166 -15.5 38.499 -15.5c14.667 0 27.167 5.33301 37.5 16s15.5 23.334 15.5 38.001s-5.16699 27.334 -15.5 38.001s-22.833 16 -37.5 16z" />
    <glyph glyph-name="plusminus" unicode="&#xb1;" horiz-adv-x="525" 
d="M305 394h164v-79h-164v-102h-86v102h-164v79h164v102h86v-102zM469 97h-414v79h414v-79z" />
    <glyph glyph-name="acute" unicode="&#xb4;" horiz-adv-x="332" 
d="M151 591h-96l85 146h136z" />
    <glyph glyph-name="paragraph" unicode="&#xb6;" horiz-adv-x="661" 
d="M606 620l-60 -0.000976562v-783h-87v783h-75v-783h-87v471c-72 0 -130.333 15.333 -175 46s-67 79.334 -67 146.001c0 67.333 22.667 117.5 68 150.5s104 49.5 176 49.5h307v-80z" />
    <glyph glyph-name="periodcentered" unicode="&#xb7;" horiz-adv-x="262" 
d="M131 377c21.333 0 39.166 -7.33301 53.499 -22s21.5 -32.334 21.5 -53.001s-7.16699 -38.334 -21.5 -53.001s-32.166 -22 -53.499 -22c-22 0 -40.167 7.33301 -54.5 22s-21.5 32.334 -21.5 53.001s7.16699 38.334 21.5 53.001s32.5 22 54.5 22z" />
    <glyph glyph-name="cedilla" unicode="&#xb8;" horiz-adv-x="255" 
d="M126 0l-11 -34.002c20 6.66699 39.167 5.16699 57.5 -4.5s27.5 -28.167 27.5 -55.5c0 -31.333 -13.833 -52.5 -41.5 -63.5s-62.167 -5.5 -103.5 16.5v34c17.333 -9.33301 32.5 -12.166 45.5 -8.49902s19.5 11.834 19.5 24.501c0 12 -4.33301 19.667 -13 23
s-23.667 1 -45 -7l27 75h37z" />
    <glyph glyph-name="guillemotright" unicode="&#xbb;" horiz-adv-x="489" 
d="M253 258l-198 -184v112l81 72l-81 73v112zM433 258l-198 -184v112l81 72l-81 73v112z" />
    <glyph glyph-name="onequarter" unicode="&#xbc;" horiz-adv-x="703" 
d="M141 580l-39 -47l-47 36l109 131h67v-318h-90v198zM219 0h-80l345 700h80zM614 54v-54h-90v54h-161v46l189 218h62v-192h33v-72h-33zM524 209l-74 -83h74v83z" />
    <glyph glyph-name="onehalf" unicode="&#xbd;" horiz-adv-x="753" 
d="M231 382h-90v198l-39 -47l-47 36l109 131h67v-318zM219 0h-80l345 700h80zM698 0l-283 -0.000976562v46l149 110c27.333 20 41 37 41 51c0 10.667 -4.16699 19.5 -12.5 26.5s-18.833 10.833 -31.5 11.5h-4c-24 0 -50.667 -11 -80 -33l-55 51
c48.667 42 99.334 63 152.001 63h4c33.333 -0.666992 60.666 -10.667 81.999 -30s32 -42.666 32 -69.999c0 -24 -7.16699 -44.667 -21.5 -62s-36.5 -35 -66.5 -53l-45 -28h139v-83z" />
    <glyph glyph-name="threequarters" unicode="&#xbe;" horiz-adv-x="767" 
d="M318 641l-90.998 -70.001c10 -0.666992 21.667 -2.66699 35 -6c50 -12.667 75 -41.334 75 -86.001c0 -28 -11.333 -52.333 -34 -73s-54.334 -31 -95.001 -31h-4c-56.667 0 -106.334 20.667 -149.001 62l51 47c27.333 -20.667 54 -31 80 -31
c18.667 0.666992 34 4.83398 46 12.501s18 17.5 18 29.5c0 10.667 -5 19.334 -15 26.001s-23 9.66699 -39 9s-29 -3.66699 -39 -9l-28 22l96 80h-138v77h231v-59zM283.002 -0.000976562h-80l345 700h80zM679.002 53.999v-54h-90v54h-161v46l189 218h62v-192h33v-72h-33z
M588.002 208.999l-74 -83h74v83z" />
    <glyph glyph-name="questiondown" unicode="&#xbf;" horiz-adv-x="656" 
d="M335 416c-21.333 0 -39.333 6.5 -54 19.5s-22 28.833 -22 47.5c0 19.333 7.33301 35.5 22 48.5s32.667 19.5 54 19.5c20.667 0 38.334 -6.5 53.001 -19.5s22 -29.167 22 -48.5c0 -18.667 -7.33301 -34.5 -22 -47.5s-32.334 -19.5 -53.001 -19.5zM319 -163
l-9.00098 -0.000976562c-83.333 1.33301 -146.666 22.833 -189.999 64.5s-65 93.167 -65 154.5c0 59.333 19.333 107.166 58 143.499s89.667 58.833 153 67.5v83h138v-159c-145.333 8.66699 -218 -29.666 -218 -114.999c0 -31.333 11.833 -57.166 35.5 -77.499
s54.5 -30.833 92.5 -31.5h7c60.667 0 124 27 190 81l89 -83c-79.333 -85.333 -173 -128 -281 -128z" />
    <glyph glyph-name="Agrave" unicode="&#xc0;" horiz-adv-x="739" 
d="M423 750h-96l-125 146h136zM696 0h-153l-50 128h-247l-50 -128h-153l288 700h81zM294 259h151l-75 191z" />
    <glyph glyph-name="Aacute" unicode="&#xc1;" horiz-adv-x="739" 
d="M416 750h-96l85 146h136zM696 0h-153l-50 128h-247l-50 -128h-153l288 700h81zM294 259h151l-75 191z" />
    <glyph glyph-name="Acircumflex" unicode="&#xc2;" horiz-adv-x="739" 
d="M521 750h-96l-55 52l-56 -52h-96l88 147h127zM696 0h-153l-50 128h-247l-50 -128h-153l288 700h81zM294 259h151l-75 191z" />
    <glyph glyph-name="Atilde" unicode="&#xc3;" horiz-adv-x="739" 
d="M531 861l-26.999 -69.999c-12.667 -33.333 -33.667 -51 -63 -53c-20.667 -2 -39.334 3 -56.001 15l-41 29c-13.333 9.33301 -26.333 13.333 -39 12c-12 -2 -21 -10.333 -27 -25l-7 -19h-57l27 70c12 32 32.667 49.667 62 53c22.667 2 41.667 -3 57 -15l41 -29
c13.333 -8.66699 25.333 -12.667 36 -12c14 1.33301 24 9.66602 30 24.999l7 19h57zM246.001 128.001l-50 -128h-153l288 700h81l284 -700h-153l-50 128h-247zM370.001 450.001l-76 -191h151z" />
    <glyph glyph-name="Adieresis" unicode="&#xc4;" horiz-adv-x="739" 
d="M262 750c-20.667 0 -38.167 6.33301 -52.5 19s-21.5 28.334 -21.5 47.001s7.16699 34.334 21.5 47.001s31.833 19 52.5 19c21.333 0 39.166 -6.33301 53.499 -19s21.5 -28.334 21.5 -47.001s-7.16699 -34.334 -21.5 -47.001s-32.166 -19 -53.499 -19zM477 750
c-20.667 0 -38.167 6.33301 -52.5 19s-21.5 28.334 -21.5 47.001s7.16699 34.334 21.5 47.001s31.833 19 52.5 19c21.333 0 39.166 -6.33301 53.499 -19s21.5 -28.334 21.5 -47.001s-7.16699 -34.334 -21.5 -47.001s-32.166 -19 -53.499 -19zM246 128l-50 -128h-153l288 700
h81l284 -700h-153l-50 128h-247zM370 450l-76 -191h151z" />
    <glyph glyph-name="Aring" unicode="&#xc5;" horiz-adv-x="739" 
d="M369 939c26 0 48.333 -9.33301 67 -28s28 -40.667 28 -66c0 -26.667 -9.33301 -49.167 -28 -67.5s-41 -27.5 -67 -27.5s-48.167 9.16699 -66.5 27.5s-27.5 40.833 -27.5 67.5c0 25.333 9.16699 47.333 27.5 66s40.5 28 66.5 28zM370 877
c-9.33301 0 -17 -3.16699 -23 -9.5s-9 -13.833 -9 -22.5c0 -9.33301 3 -17.166 9 -23.499s13.667 -9.5 23 -9.5c8.66699 0 16.167 3.16699 22.5 9.5s9.5 14.166 9.5 23.499c0 8.66699 -3.16699 16.167 -9.5 22.5s-13.833 9.5 -22.5 9.5zM246 128l-50 -128h-153l288 700h81
l284 -700h-153l-50 128h-247zM370 450l-76 -191h151z" />
    <glyph glyph-name="AE" unicode="&#xc6;" horiz-adv-x="888" 
d="M507 417h303v-130h-303v-157h329v-130h-467v128h-123l-50 -128h-153l288 700h505v-130h-329v-153zM369 448l-75 -189h75v189z" />
    <glyph glyph-name="Ccedilla" unicode="&#xc7;" horiz-adv-x="731" 
d="M414 123c70 0 128 22.9971 174 68.9971l90 -83c-72 -77.333 -160 -116 -264 -116h-3l-9 -27c20 6.66699 39.167 5.16699 57.5 -4.5s27.5 -28.167 27.5 -55.5c0 -31.333 -13.833 -52.5 -41.5 -63.5s-62.167 -5.5 -103.5 16.5v34
c17.333 -9.33301 32.5 -12.166 45.5 -8.49902s19.5 11.834 19.5 24.501c0 12 -4.5 19.667 -13.5 23s-23.833 1 -44.5 -7l25 70c-89.333 10 -164.333 48.833 -225 116.5s-91 147.167 -91 238.5c0 98.667 34.667 182.834 104 252.501s153.333 104.5 252 104.5
c104 0 192 -38.667 264 -116l-90 -83c-47.333 46 -105.333 69 -174 69c-62 0 -113.833 -21.333 -155.5 -64s-62.5 -97 -62.5 -163c0 -66.667 20.833 -121.167 62.5 -163.5s93.5 -63.5 155.5 -63.5z" />
    <glyph glyph-name="Egrave" unicode="&#xc8;" horiz-adv-x="624" 
d="M409 750h-96l-125 146h136zM571 570h-328v-153h303v-130h-303v-157h328v-130h-466v700h466v-130z" />
    <glyph glyph-name="Eacute" unicode="&#xc9;" horiz-adv-x="624" 
d="M349 750h-96l85 146h136zM571 570h-328v-153h303v-130h-303v-157h328v-130h-466v700h466v-130z" />
    <glyph glyph-name="Ecircumflex" unicode="&#xca;" horiz-adv-x="624" 
d="M488 750h-96l-55 52l-56 -52h-96l88 147h127zM571 570h-328v-153h303v-130h-303v-157h328v-130h-466v700h466v-130z" />
    <glyph glyph-name="Edieresis" unicode="&#xcb;" horiz-adv-x="624" 
d="M228 883c20.667 0 38.332 -6.5 52.999 -19.5s22 -28.833 22 -47.5s-7.16699 -34.334 -21.5 -47.001s-32.166 -19 -53.499 -19c-20.667 0 -38.167 6.33301 -52.5 19s-21.5 28.334 -21.5 47.001s7.16699 34.5 21.5 47.5s31.833 19.5 52.5 19.5zM442.998 883
c20.667 0 38.332 -6.5 52.999 -19.5s22 -28.833 22 -47.5s-7.16699 -34.334 -21.5 -47.001s-32.166 -19 -53.499 -19c-20.667 0 -38.167 6.33301 -52.5 19s-21.5 28.334 -21.5 47.001s7.16699 34.5 21.5 47.5s31.833 19.5 52.5 19.5zM570.996 570h-328v-153h303v-130h-303
v-157h328v-130h-466v700h466v-130z" />
    <glyph glyph-name="Igrave" unicode="&#xcc;" horiz-adv-x="517" 
d="M255 896l85 -146h-96l-125 146h136zM327 130h84v-130h-306v130h84v440h-84v130h306v-130h-84v-440z" />
    <glyph glyph-name="Iacute" unicode="&#xcd;" horiz-adv-x="517" 
d="M263 750h-96l85 146h136zM411 570h-84v-440h84v-130h-306v130h84v440h-84v130h306v-130z" />
    <glyph glyph-name="Icircumflex" unicode="&#xce;" horiz-adv-x="536" 
d="M422 750h-96l-55 52l-56 -52h-96l88 147h127zM421 570h-84v-440h84v-130h-306v130h84v440h-84v130h306v-130z" />
    <glyph glyph-name="Idieresis" unicode="&#xcf;" horiz-adv-x="575" 
d="M179 882c21.333 0 39.166 -6.33301 53.499 -19s21.5 -28.334 21.5 -47.001s-7.16699 -34.334 -21.5 -47.001s-32.166 -19 -53.499 -19c-20.667 0 -38.167 6.33301 -52.5 19s-21.5 28.334 -21.5 47.001s7.16699 34.334 21.5 47.001s31.833 19 52.5 19zM395 882
c21.333 0 39.166 -6.33301 53.499 -19s21.5 -28.334 21.5 -47.001s-7.16699 -34.334 -21.5 -47.001s-32.166 -19 -53.499 -19c-20.667 0 -38.167 6.33301 -52.5 19s-21.5 28.334 -21.5 47.001s7.16699 34.334 21.5 47.001s31.833 19 52.5 19zM440 570h-84v-440h84v-130h-306
v130h84v440h-84v130h306v-130z" />
    <glyph glyph-name="Eth" unicode="&#xd0;" horiz-adv-x="810" 
d="M154 700h243c99.333 0 183.5 -33.167 252.5 -99.5s103.5 -149.833 103.5 -250.5s-34.333 -184.167 -103 -250.5s-153 -99.5 -253 -99.5h-243v311h-49v79h49v310zM292 130h105c63.333 0 115.5 19.5 156.5 58.5s61.5 92.833 61.5 161.5s-20.5 122.5 -61.5 161.5
s-93.167 58.5 -156.5 58.5h-105v-180h63v-79h-63v-181z" />
    <glyph glyph-name="Ntilde" unicode="&#xd1;" horiz-adv-x="741" 
d="M306 873c22.667 2 41.668 -2.99902 57.001 -14.999l41 -29c13.333 -8.66699 25.333 -12.667 36 -12c14 1.33301 24 9.66602 30 24.999l7 19h57l-27 -70c-12.667 -33.333 -33.667 -51 -63 -53c-20.667 -2 -39.334 3 -56.001 15l-41 29
c-13.333 9.33301 -26.333 13.333 -39 12c-12 -2 -21 -10.333 -27 -25l-7 -19h-57l27 70c12 32 32.667 49.667 62 53zM646.001 0.000976562h-82l-331 441v-441h-138v700h81l332 -441v441h138v-700z" />
    <glyph glyph-name="Ograve" unicode="&#xd2;" horiz-adv-x="829" 
d="M405 896l85 -146h-96l-125 146h136zM414 707c98.667 0 182.834 -34.833 252.501 -104.5s104.5 -153.834 104.5 -252.501s-34.833 -182.834 -104.5 -252.501s-153.834 -104.5 -252.501 -104.5s-182.667 34.833 -252 104.5s-104 153.834 -104 252.501
s34.667 182.834 104 252.501s153.333 104.5 252 104.5zM414 577c-62 0 -113.834 -21.333 -155.501 -64s-62.5 -97 -62.5 -163c0 -66.667 20.833 -121.167 62.5 -163.5s93.5 -63.5 155.5 -63.5c62.667 0 114.834 21.167 156.501 63.5s62.5 96.833 62.5 163.5
c0 66 -21 120.333 -63 163s-94 64 -156 64z" />
    <glyph glyph-name="Oacute" unicode="&#xd3;" horiz-adv-x="829" 
d="M429 750h-96l85 146h136zM414 707c98.667 0 182.834 -34.833 252.501 -104.5s104.5 -153.834 104.5 -252.501s-34.833 -182.834 -104.5 -252.501s-153.834 -104.5 -252.501 -104.5s-182.667 34.833 -252 104.5s-104 153.834 -104 252.501s34.667 182.834 104 252.501
s153.333 104.5 252 104.5zM414 577c-62 0 -113.834 -21.333 -155.501 -64s-62.5 -97 -62.5 -163c0 -66.667 20.833 -121.167 62.5 -163.5s93.5 -63.5 155.5 -63.5c62.667 0 114.834 21.167 156.501 63.5s62.5 96.833 62.5 163.5c0 66 -21 120.333 -63 163s-94 64 -156 64z
" />
    <glyph glyph-name="Ocircumflex" unicode="&#xd4;" horiz-adv-x="829" 
d="M565 750h-96l-55 52l-56 -52h-96l88 147h127zM414 707c98.667 0 182.834 -34.833 252.501 -104.5s104.5 -153.834 104.5 -252.501s-34.833 -182.834 -104.5 -252.501s-153.834 -104.5 -252.501 -104.5s-182.667 34.833 -252 104.5s-104 153.834 -104 252.501
s34.667 182.834 104 252.501s153.333 104.5 252 104.5zM414 577c-62 0 -113.834 -21.333 -155.501 -64s-62.5 -97 -62.5 -163c0 -66.667 20.833 -121.167 62.5 -163.5s93.5 -63.5 155.5 -63.5c62.667 0 114.834 21.167 156.501 63.5s62.5 96.833 62.5 163.5
c0 66 -21 120.333 -63 163s-94 64 -156 64z" />
    <glyph glyph-name="Otilde" unicode="&#xd5;" horiz-adv-x="829" 
d="M573 861l-26.999 -69.999c-12.667 -33.333 -33.667 -51 -63 -53c-20.667 -2 -39.334 3 -56.001 15l-41 29c-13.333 9.33301 -26.333 13.333 -39 12c-12 -2 -21 -10.333 -27 -25l-7 -19h-57l27 70c12 32 32.667 49.667 62 53c22.667 2 41.667 -3 57 -15l41 -29
c13.333 -8.66699 25.333 -12.667 36 -12c14 1.33301 24 9.66602 30 24.999l7 19h57zM414.001 707.001c98.667 0 182.834 -34.833 252.501 -104.5s104.5 -153.834 104.5 -252.501s-34.833 -182.834 -104.5 -252.501s-153.834 -104.5 -252.501 -104.5
s-182.667 34.833 -252 104.5s-104 153.834 -104 252.501s34.667 182.834 104 252.501s153.333 104.5 252 104.5zM414.001 577.001c-62 0 -113.834 -21.333 -155.501 -64s-62.5 -97 -62.5 -163c0 -66.667 20.833 -121.167 62.5 -163.5s93.5 -63.5 155.5 -63.5
c62.667 0 114.834 21.167 156.501 63.5s62.5 96.833 62.5 163.5c0 66 -21 120.333 -63 163s-94 64 -156 64z" />
    <glyph glyph-name="Odieresis" unicode="&#xd6;" horiz-adv-x="829" 
d="M306 750c-20.667 0 -38.167 6.33301 -52.5 19s-21.5 28.334 -21.5 47.001s7.16699 34.334 21.5 47.001s31.833 19 52.5 19c21.333 0 39.166 -6.33301 53.499 -19s21.5 -28.334 21.5 -47.001s-7.16699 -34.334 -21.5 -47.001s-32.166 -19 -53.499 -19zM522 750
c-20.667 0 -38.167 6.33301 -52.5 19s-21.5 28.334 -21.5 47.001s7.16699 34.334 21.5 47.001s31.833 19 52.5 19c21.333 0 39.166 -6.33301 53.499 -19s21.5 -28.334 21.5 -47.001s-7.16699 -34.334 -21.5 -47.001s-32.166 -19 -53.499 -19zM414 707
c98.667 0 182.834 -34.833 252.501 -104.5s104.5 -153.834 104.5 -252.501s-34.833 -182.834 -104.5 -252.501s-153.834 -104.5 -252.501 -104.5s-182.667 34.833 -252 104.5s-104 153.834 -104 252.501s34.667 182.834 104 252.501s153.333 104.5 252 104.5zM414 577
c-62 0 -113.834 -21.333 -155.501 -64s-62.5 -97 -62.5 -163c0 -66.667 20.833 -121.167 62.5 -163.5s93.5 -63.5 155.5 -63.5c62.667 0 114.834 21.167 156.501 63.5s62.5 96.833 62.5 163.5c0 66 -21 120.333 -63 163s-94 64 -156 64z" />
    <glyph glyph-name="multiply" unicode="&#xd7;" horiz-adv-x="459" 
d="M404 390l-118 -118l118 -119l-56 -56l-119 118l-118 -118l-56 56l118 119l-118 118l56 56l118 -118l119 118z" />
    <glyph glyph-name="Oslash" unicode="&#xd8;" horiz-adv-x="829" 
d="M771 700l-95.999 -106.001c64 -69.333 96 -150.666 96 -243.999c0 -98.667 -34.833 -182.834 -104.5 -252.501s-153.834 -104.5 -252.501 -104.5c-80.667 0 -152.667 24.333 -216 73l-59 -66h-81l96 106c-64 68 -96 149.333 -96 244c0 98.667 34.667 182.834 104 252.501
s153.333 104.5 252 104.5c80.667 0 152.667 -24.333 216 -73l59 66h82zM196.001 349.999c0 -56.667 15.668 -105 47.001 -145l299 332c-36.667 26.667 -79.334 40 -128.001 40c-62 0 -113.833 -21.333 -155.5 -64s-62.5 -97 -62.5 -163zM633.002 349.999
c0 56.667 -15.6689 105 -47.002 145l-300 -332c36.667 -26.667 79.334 -40 128.001 -40c62.667 0 114.834 21.167 156.501 63.5s62.5 96.833 62.5 163.5z" />
    <glyph glyph-name="Ugrave" unicode="&#xd9;" horiz-adv-x="768" 
d="M385 896l85 -146h-96l-125 146h136zM673 700v-406c0 -96 -27.667 -170.167 -83 -222.5s-122.333 -78.5 -201 -78.5c-79.333 0 -146.5 26.167 -201.5 78.5s-82.5 126.5 -82.5 222.5v406h138v-403c0 -60.667 14 -104.834 42 -132.501s62.667 -41.5 104 -41.5
s76 13.833 104 41.5s42 71.834 42 132.501v403h138z" />
    <glyph glyph-name="Uacute" unicode="&#xda;" horiz-adv-x="768" 
d="M399 750h-96l85 146h136zM673 700v-406c0 -96 -27.667 -170.167 -83 -222.5s-122.333 -78.5 -201 -78.5c-79.333 0 -146.5 26.167 -201.5 78.5s-82.5 126.5 -82.5 222.5v406h138v-403c0 -60.667 14 -104.834 42 -132.501s62.667 -41.5 104 -41.5s76 13.833 104 41.5
s42 71.834 42 132.501v403h138z" />
    <glyph glyph-name="Ucircumflex" unicode="&#xdb;" horiz-adv-x="768" 
d="M444 750l-55 52l-56 -52h-96l88 147h127l88 -147h-96zM673 700v-406c0 -96 -27.667 -170.167 -83 -222.5s-122.333 -78.5 -201 -78.5c-79.333 0 -146.5 26.167 -201.5 78.5s-82.5 126.5 -82.5 222.5v406h138v-403c0 -60.667 14 -104.834 42 -132.501
s62.667 -41.5 104 -41.5s76 13.833 104 41.5s42 71.834 42 132.501v403h138z" />
    <glyph glyph-name="Udieresis" unicode="&#xdc;" horiz-adv-x="768" 
d="M281 750c-20.667 0 -38.167 6.33301 -52.5 19s-21.5 28.334 -21.5 47.001s7.16699 34.334 21.5 47.001s31.833 19 52.5 19c21.333 0 39.166 -6.33301 53.499 -19s21.5 -28.334 21.5 -47.001s-7.16699 -34.334 -21.5 -47.001s-32.166 -19 -53.499 -19zM497 750
c-20.667 0 -38.167 6.33301 -52.5 19s-21.5 28.334 -21.5 47.001s7.16699 34.334 21.5 47.001s31.833 19 52.5 19c21.333 0 39.166 -6.33301 53.499 -19s21.5 -28.334 21.5 -47.001s-7.16699 -34.334 -21.5 -47.001s-32.166 -19 -53.499 -19zM673 700v-406
c0 -96 -27.667 -170.167 -83 -222.5s-122.333 -78.5 -201 -78.5c-79.333 0 -146.5 26.167 -201.5 78.5s-82.5 126.5 -82.5 222.5v406h138v-403c0 -60.667 14 -104.834 42 -132.501s62.667 -41.5 104 -41.5s76 13.833 104 41.5s42 71.834 42 132.501v403h138z" />
    <glyph glyph-name="Yacute" unicode="&#xdd;" horiz-adv-x="722" 
d="M371 750h-96l85 146h136zM430 0h-138v234l-249 466h157l162 -296l161 296h157l-250 -466v-234z" />
    <glyph glyph-name="Thorn" unicode="&#xde;" horiz-adv-x="705" 
d="M243 629l92 0.000976562c96 0 172 -25.333 228 -76s84 -115.334 84 -194.001s-28 -143.167 -84 -193.5s-132 -75.5 -228 -75.5h-92v-90h-138v700h138v-71zM243 220.001h103c48.667 0 89.167 11.667 121.5 35s48.5 58 48.5 104c0 45.333 -16.333 80 -49 104
s-73 36 -121 36h-103v-279z" />
    <glyph glyph-name="germandbls" unicode="&#xdf;" horiz-adv-x="655" 
d="M319 707l29.998 -0.00292969c36 0 68.167 -4.33301 96.5 -13s50.666 -19.5 66.999 -32.5s29.833 -28.333 40.5 -46s17.834 -34.167 21.501 -49.5s5.5 -31 5.5 -47c0 -38 -8.66699 -71.333 -26 -100s-40 -48.667 -68 -60c35.333 -8.66699 63.5 -27.667 84.5 -57
s31.5 -64.666 31.5 -105.999c0 -60.667 -20.833 -109.5 -62.5 -146.5s-107.5 -55.833 -197.5 -56.5h-76v130h77c85.333 0 128 29.333 128 88c0 24.667 -8.16699 45 -24.5 61s-41.166 24 -74.499 24h-74v129h60c34 0 57.833 7.33301 71.5 22s20.5 32.334 20.5 53.001
c0 51.333 -33.667 77 -101 77h-35c-32.667 0 -57.167 -7.66699 -73.5 -23s-24.5 -35.666 -24.5 -60.999v-493h-131v512c0 16 1.83301 32 5.5 48s10.834 33.167 21.501 51.5s24.167 34.333 40.5 48s39 25 68 34s61.833 13.5 98.5 13.5z" />
    <glyph glyph-name="agrave" unicode="&#xe0;" 
d="M322 691l85 -146h-96l-125 146h136zM557 0h-85l-7 71c-40.667 -51.333 -96 -77 -166 -77s-128.167 24.667 -174.5 74s-69.5 110 -69.5 182s23.167 132.833 69.5 182.5s104.5 74.5 174.5 74.5s125.333 -26 166 -78l7 71h85v-500zM311 117
c34.667 0 64.8359 12.333 90.5029 37s38.5 56.667 38.5 96s-12.833 71.5 -38.5 96.5s-55.834 37.5 -90.501 37.5s-64.834 -12.5 -90.501 -37.5s-38.5 -57.167 -38.5 -96.5s12.667 -71.333 38 -96s55.666 -37 90.999 -37z" />
    <glyph glyph-name="aacute" unicode="&#xe1;" 
d="M333 545h-96l85 146h136zM557 0h-85l-7 71c-40.667 -51.333 -96 -77 -166 -77s-128.167 24.667 -174.5 74s-69.5 110 -69.5 182s23.167 132.833 69.5 182.5s104.5 74.5 174.5 74.5s125.333 -26 166 -78l7 71h85v-500zM311 117c34.667 0 64.8359 12.333 90.5029 37
s38.5 56.667 38.5 96s-12.833 71.5 -38.5 96.5s-55.834 37.5 -90.501 37.5s-64.834 -12.5 -90.501 -37.5s-38.5 -57.167 -38.5 -96.5s12.667 -71.333 38 -96s55.666 -37 90.999 -37z" />
    <glyph glyph-name="acircumflex" unicode="&#xe2;" 
d="M367 545l-55 52l-56 -52h-96l88 146h127l88 -146h-96zM557 0h-85l-7 71c-40.667 -51.333 -96 -77 -166 -77s-128.167 24.667 -174.5 74s-69.5 110 -69.5 182s23.167 132.833 69.5 182.5s104.5 74.5 174.5 74.5s125.333 -26 166 -78l7 71h85v-500zM311 117
c34.667 0 64.8359 12.333 90.5029 37s38.5 56.667 38.5 96s-12.833 71.5 -38.5 96.5s-55.834 37.5 -90.501 37.5s-64.834 -12.5 -90.501 -37.5s-38.5 -57.167 -38.5 -96.5s12.667 -71.333 38 -96s55.666 -37 90.999 -37z" />
    <glyph glyph-name="atilde" unicode="&#xe3;" 
d="M476 655l-27 -69c-12 -32.667 -33 -50.667 -63 -54c-20.667 -2 -39.334 3 -56.001 15l-41 30c-14.667 9.33301 -27.667 13 -39 11c-12 -0.666992 -21 -9 -27 -25l-7 -18h-57l27 69c12.667 33.333 33.334 51 62.001 53c20.667 2.66699 39.667 -2 57 -14l41 -29
c13.333 -8.66699 25.333 -12.667 36 -12c14 0 24 8.33301 30 25l7 18h57zM557 0h-85l-7 71c-40.667 -51.333 -96 -77 -166 -77s-128.167 24.667 -174.5 74s-69.5 110 -69.5 182s23.167 132.833 69.5 182.5s104.5 74.5 174.5 74.5s125.333 -26 166 -78l7 71h85v-500zM311 117
c34.667 0 64.8359 12.333 90.5029 37s38.5 56.667 38.5 96s-12.833 71.5 -38.5 96.5s-55.834 37.5 -90.501 37.5s-64.834 -12.5 -90.501 -37.5s-38.5 -57.167 -38.5 -96.5s12.667 -71.333 38 -96s55.666 -37 90.999 -37z" />
    <glyph glyph-name="adieresis" unicode="&#xe4;" 
d="M203 545c-20.667 0 -38.167 6.33301 -52.5 19s-21.5 28.334 -21.5 47.001s7.16699 34.334 21.5 47.001s31.833 19 52.5 19c21.333 0 39.166 -6.33301 53.499 -19s21.5 -28.334 21.5 -47.001s-7.16699 -34.334 -21.5 -47.001s-32.166 -19 -53.499 -19zM419 545
c-20.667 0 -38.167 6.33301 -52.5 19s-21.5 28.334 -21.5 47.001s7.16699 34.334 21.5 47.001s31.833 19 52.5 19c21.333 0 39.166 -6.33301 53.499 -19s21.5 -28.334 21.5 -47.001s-7.16699 -34.334 -21.5 -47.001s-32.166 -19 -53.499 -19zM557 0h-85l-7 71
c-40.667 -51.333 -96 -77 -166 -77s-128.167 24.667 -174.5 74s-69.5 110 -69.5 182s23.167 132.833 69.5 182.5s104.5 74.5 174.5 74.5s125.333 -26 166 -78l7 71h85v-500zM311 117c34.667 0 64.8359 12.333 90.5029 37s38.5 56.667 38.5 96s-12.833 71.5 -38.5 96.5
s-55.834 37.5 -90.501 37.5s-64.834 -12.5 -90.501 -37.5s-38.5 -57.167 -38.5 -96.5s12.667 -71.333 38 -96s55.666 -37 90.999 -37z" />
    <glyph glyph-name="aring" unicode="&#xe5;" 
d="M311 734c26 0 48.333 -9.33301 67 -28s28 -41 28 -67s-9.33301 -48.167 -28 -66.5s-41 -27.5 -67 -27.5s-48.167 9.16699 -66.5 27.5s-27.5 40.5 -27.5 66.5s9.16699 48.333 27.5 67s40.5 28 66.5 28zM311 672c-9.33301 0 -17 -3.16699 -23 -9.5s-9 -14.166 -9 -23.499
s3 -17.166 9 -23.499s13.667 -9.5 23 -9.5c8.66699 0 16.167 3.16699 22.5 9.5s9.5 14.166 9.5 23.499s-3.16699 17.166 -9.5 23.499s-13.833 9.5 -22.5 9.5zM557 0h-85l-7 71c-40.667 -51.333 -96 -77 -166 -77s-128.167 24.667 -174.5 74s-69.5 110 -69.5 182
s23.167 132.833 69.5 182.5s104.5 74.5 174.5 74.5s125.333 -26 166 -78l7 71h85v-500zM311 117c34.667 0 64.8359 12.333 90.5029 37s38.5 56.667 38.5 96s-12.833 71.5 -38.5 96.5s-55.834 37.5 -90.501 37.5s-64.834 -12.5 -90.501 -37.5s-38.5 -57.167 -38.5 -96.5
s12.667 -71.333 38 -96s55.666 -37 90.999 -37z" />
    <glyph glyph-name="ae" unicode="&#xe6;" horiz-adv-x="981" 
d="M299 507c70 0 125.333 -25.9961 166 -77.9961l7 71h85v-46c35.333 35.333 80.666 53 135.999 53c52 0 96.833 -11.833 134.5 -35.5s65.834 -56.834 84.501 -99.501c10.667 -22.667 16.667 -49.334 18 -80.001s-2 -56.334 -10 -77.001h-349
c0 -32.667 12 -58.334 36 -77.001s53.667 -28 89 -28c54.667 0 104.667 11.667 150 35l67 -73c-68.667 -52 -141 -78 -217 -78c-58.667 0 -105 17.667 -139 53v-47h-85l-7 71c-40.667 -51.333 -96 -77 -166 -77s-128.167 24.667 -174.5 74s-69.5 110 -69.5 182
s23.167 132.833 69.5 182.5s104.5 74.5 174.5 74.5zM693 391.004c-32.667 0 -59.833 -9.66797 -81.5 -29.001s-33.167 -41.666 -34.5 -66.999h229c0 14.667 -4 28 -12 40c-20 37.333 -53.667 56 -101 56zM311.001 384.003c-34.667 0 -64.832 -12.5 -90.499 -37.5
s-38.5 -57.167 -38.5 -96.5s12.667 -71.333 38 -96s55.666 -37 90.999 -37c34.667 0 64.834 12.333 90.501 37s38.5 56.667 38.5 96s-12.833 71.5 -38.5 96.5s-55.834 37.5 -90.501 37.5z" />
    <glyph glyph-name="ccedilla" unicode="&#xe7;" horiz-adv-x="559" 
d="M311 117c44 0 84.334 16.998 121.001 50.998l76 -82c-50.667 -60 -115.334 -90.667 -194.001 -92l-9 -28c20 6.66699 39.167 5.16699 57.5 -4.5s27.5 -28.167 27.5 -55.5c0 -31.333 -13.833 -52.5 -41.5 -63.5s-62.167 -5.5 -103.5 16.5v34
c17.333 -9.33301 32.5 -12.166 45.5 -8.49902s19.5 11.834 19.5 24.501c0 12 -4.33301 19.667 -13 23s-23.667 1 -45 -7l26 71c-63.333 8 -116.333 36 -159 84s-64 104.667 -64 170c0 70.667 24.833 131 74.5 181s110.167 75 181.5 75c80 0 145.667 -30.667 197 -92l-76 -82
c-36.667 34 -77 51 -121 51c-35.333 0 -65.666 -12.333 -90.999 -37s-38 -56.667 -38 -96s12.667 -71.333 38 -96s55.666 -37 90.999 -37z" />
    <glyph glyph-name="egrave" unicode="&#xe8;" horiz-adv-x="595" 
d="M391 545h-96l-125 146h136zM307 507c106 0 179.333 -44.999 220 -134.999c10 -22 15.667 -48.5 17 -79.5s-1.66699 -56.833 -9 -77.5h-349c0 -32.667 11.833 -58.334 35.5 -77.001s53.167 -28 88.5 -28c55.333 0 105.666 11.667 150.999 35l67 -73
c-70 -52 -142.667 -78 -218 -78s-136.666 24.167 -183.999 72.5s-71 109.5 -71 183.5c0 73.333 23 134.5 69 183.5s107 73.5 183 73.5zM307 391.001c-32.667 0 -59.833 -9.66797 -81.5 -29.001s-33.167 -41.666 -34.5 -66.999h229c0 14.667 -4 28 -12 40
c-20 37.333 -53.667 56 -101 56z" />
    <glyph glyph-name="eacute" unicode="&#xe9;" horiz-adv-x="595" 
d="M325 545h-96l85 146h136zM307 507c106 0 179.333 -44.999 220 -134.999c10 -22 15.667 -48.5 17 -79.5s-1.66699 -56.833 -9 -77.5h-349c0 -32.667 11.833 -58.334 35.5 -77.001s53.167 -28 88.5 -28c55.333 0 105.666 11.667 150.999 35l67 -73
c-70 -52 -142.667 -78 -218 -78s-136.666 24.167 -183.999 72.5s-71 109.5 -71 183.5c0 73.333 23 134.5 69 183.5s107 73.5 183 73.5zM307 391.001c-32.667 0 -59.833 -9.66797 -81.5 -29.001s-33.167 -41.666 -34.5 -66.999h229c0 14.667 -4 28 -12 40
c-20 37.333 -53.667 56 -101 56z" />
    <glyph glyph-name="ecircumflex" unicode="&#xea;" horiz-adv-x="595" 
d="M459 544h-96l-55 53l-56 -52h-96l88 146h127zM307 507c106 0 179.333 -44.999 220 -134.999c10 -22 15.667 -48.5 17 -79.5s-1.66699 -56.833 -9 -77.5h-349c0 -32.667 11.833 -58.334 35.5 -77.001s53.167 -28 88.5 -28c55.333 0 105.666 11.667 150.999 35l67 -73
c-70 -52 -142.667 -78 -218 -78s-136.666 24.167 -183.999 72.5s-71 109.5 -71 183.5c0 73.333 23 134.5 69 183.5s107 73.5 183 73.5zM307 391.001c-32.667 0 -59.833 -9.66797 -81.5 -29.001s-33.167 -41.666 -34.5 -66.999h229c0 14.667 -4 28 -12 40
c-20 37.333 -53.667 56 -101 56z" />
    <glyph glyph-name="edieresis" unicode="&#xeb;" horiz-adv-x="595" 
d="M201 677c21.333 0 39.166 -6.33301 53.499 -19s21.5 -28.334 21.5 -47.001s-7.16699 -34.334 -21.5 -47.001s-32.166 -19 -53.499 -19c-20.667 0 -38.167 6.33301 -52.5 19s-21.5 28.334 -21.5 47.001s7.16699 34.334 21.5 47.001s31.833 19 52.5 19zM416 677
c21.333 0 39.166 -6.33301 53.499 -19s21.5 -28.334 21.5 -47.001s-7.16699 -34.334 -21.5 -47.001s-32.166 -19 -53.499 -19c-20.667 0 -38.167 6.33301 -52.5 19s-21.5 28.334 -21.5 47.001s7.16699 34.334 21.5 47.001s31.833 19 52.5 19zM307 507
c106 0 179.333 -44.999 220 -134.999c10 -22 15.667 -48.5 17 -79.5s-1.66699 -56.833 -9 -77.5h-349c0 -32.667 11.833 -58.334 35.5 -77.001s53.167 -28 88.5 -28c55.333 0 105.666 11.667 150.999 35l67 -73c-70 -52 -142.667 -78 -218 -78
s-136.666 24.167 -183.999 72.5s-71 109.5 -71 183.5c0 73.333 23 134.5 69 183.5s107 73.5 183 73.5zM307 391.001c-32.667 0 -59.833 -9.66797 -81.5 -29.001s-33.167 -41.666 -34.5 -66.999h229c0 14.667 -4 28 -12 40c-20 37.333 -53.667 56 -101 56z" />
    <glyph glyph-name="igrave" unicode="&#xec;" horiz-adv-x="397" 
d="M226 691l86 -146h-97l-125 146h136zM175 0v500h127v-500h-127z" />
    <glyph glyph-name="iacute" unicode="&#xed;" horiz-adv-x="397" 
d="M186 545h-96l85 146h136zM107 0v500h127v-500h-127z" />
    <glyph glyph-name="icircumflex" unicode="&#xee;" horiz-adv-x="479" 
d="M305 691l88 -146h-96l-55 52l-56 -52h-96l88 146h127zM305 0h-127v500h127v-500z" />
    <glyph glyph-name="idieresis" unicode="&#xef;" horiz-adv-x="540" 
d="M164 545c-20.667 0 -38.167 6.33301 -52.5 19s-21.5 28.334 -21.5 47.001s7.16699 34.334 21.5 47.001s31.833 19 52.5 19c21.333 0 39.166 -6.33301 53.499 -19s21.5 -28.334 21.5 -47.001s-7.16699 -34.334 -21.5 -47.001s-32.166 -19 -53.499 -19zM380 545
c-20.667 0 -38.167 6.33301 -52.5 19s-21.5 28.334 -21.5 47.001s7.16699 34.334 21.5 47.001s31.833 19 52.5 19c21.333 0 39.166 -6.33301 53.499 -19s21.5 -28.334 21.5 -47.001s-7.16699 -34.334 -21.5 -47.001s-32.166 -19 -53.499 -19zM210 0v500h127v-500h-127z" />
    <glyph glyph-name="eth" unicode="&#xf0;" horiz-adv-x="653" 
d="M555 652l-36.002 -31.998c32.667 -44 49 -97.333 49 -160v-199c0 -80.667 -24.333 -145.667 -73 -195s-109.667 -74 -183 -74c-76.667 0 -138.667 24.167 -186 72.5s-71 107.166 -71 176.499s21.5 127.166 64.5 173.499s99.167 69.5 168.5 69.5
c32.667 0 62.834 -7.33301 90.501 -22s48.5 -34 62.5 -58v56c0 30.667 -4.66699 57 -14 79l-53 -47l-43 47l52 47c-18.667 9.33301 -40.667 14 -66 14c-48 0 -97.667 -13.333 -149 -40l-72 78c62.667 52 136.334 78 221.001 78c60.667 0 113 -16.667 157 -50l38 34z
M311.998 115.002c35.333 0 65.667 11.833 91 35.5s38 53.834 38 90.501c0 36 -12.833 66 -38.5 90s-55.834 36 -90.501 36c-34 0 -64 -12 -90 -36s-39 -54 -39 -90c0 -36.667 12.833 -66.834 38.5 -90.501s55.834 -35.5 90.501 -35.5z" />
    <glyph glyph-name="ntilde" unicode="&#xf1;" horiz-adv-x="650" 
d="M487 655l-27 -69c-12 -32.667 -33 -50.667 -63 -54c-20.667 -2 -39.334 3 -56.001 15l-41 30c-14.667 9.33301 -27.667 13 -39 11c-12 -0.666992 -21 -9 -27 -25l-7 -18h-57l27 69c12.667 33.333 33.334 51 62.001 53c20.667 2.66699 39.667 -2 57 -14l41 -29
c13.333 -8.66699 25.333 -12.667 36 -12c14 0 24 8.33301 30 25l7 18h57zM351 507c70.667 0 124.667 -21.832 162 -65.499s56 -102.834 56 -177.501v-264h-127v256c0 85.333 -37 128 -111 128c-38 0 -67.333 -11.5 -88 -34.5s-31 -57.833 -31 -104.5v-245h-127v500h85l9 -78
c34.667 56.667 92 85 172 85z" />
    <glyph glyph-name="ograve" unicode="&#xf2;" horiz-adv-x="623" 
d="M300 691l85 -146h-96l-125 146h136zM311 507c71.333 0 132 -25.167 182 -75.5s75 -110.833 75 -181.5s-25 -131 -75 -181s-110.667 -75 -182 -75s-131.833 25 -181.5 75s-74.5 110.333 -74.5 181c0 71.333 25 132 75 182s110.333 75 181 75zM311 384
c-34.667 0 -64.832 -12.5 -90.499 -37.5s-38.5 -57.167 -38.5 -96.5s12.667 -71.333 38 -96s55.666 -37 90.999 -37c34.667 0 64.834 12.333 90.501 37s38.5 56.667 38.5 96s-12.833 71.5 -38.5 96.5s-55.834 37.5 -90.501 37.5z" />
    <glyph glyph-name="oacute" unicode="&#xf3;" horiz-adv-x="623" 
d="M319 545h-96l85 146h136zM311 507c71.333 0 132 -25.167 182 -75.5s75 -110.833 75 -181.5s-25 -131 -75 -181s-110.667 -75 -182 -75s-131.833 25 -181.5 75s-74.5 110.333 -74.5 181c0 71.333 25 132 75 182s110.333 75 181 75zM311 384
c-34.667 0 -64.832 -12.5 -90.499 -37.5s-38.5 -57.167 -38.5 -96.5s12.667 -71.333 38 -96s55.666 -37 90.999 -37c34.667 0 64.834 12.333 90.501 37s38.5 56.667 38.5 96s-12.833 71.5 -38.5 96.5s-55.834 37.5 -90.501 37.5z" />
    <glyph glyph-name="ocircumflex" unicode="&#xf4;" horiz-adv-x="623" 
d="M367 545l-55 52l-56 -53h-96l88 147h127l88 -146h-96zM311 507c71.333 0 132 -25.167 182 -75.5s75 -110.833 75 -181.5s-25 -131 -75 -181s-110.667 -75 -182 -75s-131.833 25 -181.5 75s-74.5 110.333 -74.5 181c0 71.333 25 132 75 182s110.333 75 181 75zM311 384
c-34.667 0 -64.832 -12.5 -90.499 -37.5s-38.5 -57.167 -38.5 -96.5s12.667 -71.333 38 -96s55.666 -37 90.999 -37c34.667 0 64.834 12.333 90.501 37s38.5 56.667 38.5 96s-12.833 71.5 -38.5 96.5s-55.834 37.5 -90.501 37.5z" />
    <glyph glyph-name="otilde" unicode="&#xf5;" horiz-adv-x="623" 
d="M469 655l-27 -69c-12 -32.667 -33 -50.667 -63 -54c-20.667 -2 -39.334 3 -56.001 15l-41 30c-14.667 9.33301 -27.667 13 -39 11c-12 -0.666992 -21 -9 -27 -25l-7 -18h-57l27 69c12.667 33.333 33.334 51 62.001 53c20.667 2.66699 39.667 -2 57 -14l41 -29
c13.333 -8.66699 25.333 -12.667 36 -12c14 0 24 8.33301 30 25l7 18h57zM311 507c71.333 0 132 -25.167 182 -75.5s75 -110.833 75 -181.5s-25 -131 -75 -181s-110.667 -75 -182 -75s-131.833 25 -181.5 75s-74.5 110.333 -74.5 181c0 71.333 25 132 75 182
s110.333 75 181 75zM311 384c-34.667 0 -64.832 -12.5 -90.499 -37.5s-38.5 -57.167 -38.5 -96.5s12.667 -71.333 38 -96s55.666 -37 90.999 -37c34.667 0 64.834 12.333 90.501 37s38.5 56.667 38.5 96s-12.833 71.5 -38.5 96.5s-55.834 37.5 -90.501 37.5z" />
    <glyph glyph-name="odieresis" unicode="&#xf6;" horiz-adv-x="623" 
d="M204 545c-20.667 0 -38.167 6.33301 -52.5 19s-21.5 28.334 -21.5 47.001s7.16699 34.334 21.5 47.001s31.833 19 52.5 19c21.333 0 39.166 -6.33301 53.499 -19s21.5 -28.334 21.5 -47.001s-7.16699 -34.334 -21.5 -47.001s-32.166 -19 -53.499 -19zM420 545
c-20.667 0 -38.167 6.33301 -52.5 19s-21.5 28.334 -21.5 47.001s7.16699 34.334 21.5 47.001s31.833 19 52.5 19c21.333 0 39.166 -6.33301 53.499 -19s21.5 -28.334 21.5 -47.001s-7.16699 -34.334 -21.5 -47.001s-32.166 -19 -53.499 -19zM311 507
c71.333 0 132 -25.167 182 -75.5s75 -110.833 75 -181.5s-25 -131 -75 -181s-110.667 -75 -182 -75s-131.833 25 -181.5 75s-74.5 110.333 -74.5 181c0 71.333 25 132 75 182s110.333 75 181 75zM311 384c-34.667 0 -64.832 -12.5 -90.499 -37.5s-38.5 -57.167 -38.5 -96.5
s12.667 -71.333 38 -96s55.666 -37 90.999 -37c34.667 0 64.834 12.333 90.501 37s38.5 56.667 38.5 96s-12.833 71.5 -38.5 96.5s-55.834 37.5 -90.501 37.5z" />
    <glyph glyph-name="divide" unicode="&#xf7;" horiz-adv-x="525" 
d="M263 492c21.333 0 39.168 -6.5 53.501 -19.5s21.5 -28.833 21.5 -47.5c0 -19.333 -7.33301 -35.5 -22 -48.5s-32.334 -19.5 -53.001 -19.5c-21.333 0 -39.333 6.5 -54 19.5s-22 29.167 -22 48.5c0 18.667 7.33301 34.5 22 47.5s32.667 19.5 54 19.5zM469.002 219h-414v78
h414v-78zM263.002 156c21.333 0 39.166 -6.5 53.499 -19.5s21.5 -28.833 21.5 -47.5s-7.16699 -34.5 -21.5 -47.5s-32.166 -19.5 -53.499 -19.5s-39.333 6.5 -54 19.5s-22 28.833 -22 47.5s7.33301 34.5 22 47.5s32.667 19.5 54 19.5z" />
    <glyph glyph-name="oslash" unicode="&#xf8;" horiz-adv-x="623" 
d="M568 500l-67.001 -77c44.667 -48.667 67 -106.334 67 -173.001c0 -70.667 -25 -131 -75 -181s-110.667 -75 -182 -75c-52 0 -99.667 14.333 -143 43l-32 -37h-81l67 77c-44.667 48.667 -67 106.334 -67 173.001c0 71.333 25 132 75 182s110.333 75 181 75
c52.667 0 100.334 -14.667 143.001 -44l32 37h82zM181.999 250c0 -29.333 7.33301 -55 22 -77l168 195c-19.333 10.667 -39.666 16 -60.999 16c-34.667 0 -64.834 -12.5 -90.501 -37.5s-38.5 -57.167 -38.5 -96.5zM439.999 250c0 30 -7.33398 55.333 -22.001 76l-168 -194
c18.667 -10 39 -15 61 -15c34.667 0 64.834 12.333 90.501 37s38.5 56.667 38.5 96z" />
    <glyph glyph-name="ugrave" unicode="&#xf9;" horiz-adv-x="645" 
d="M389 545h-96l-125 146h136zM564 0l-84.999 -0.000976562l-9 78c-34.667 -56.667 -91.667 -85 -171 -85c-70.667 0 -124.834 21.833 -162.501 65.5s-56.5 102.834 -56.5 177.501v264h127v-256c0 -85.333 37.333 -128 112 -128c37.333 0 66.333 11.5 87 34.5
s31 57.833 31 104.5v245h127v-500z" />
    <glyph glyph-name="uacute" unicode="&#xfa;" horiz-adv-x="645" 
d="M440 691l-125 -146h-96l85 146h136zM564 0l-84.999 -0.000976562l-9 78c-34.667 -56.667 -91.667 -85 -171 -85c-70.667 0 -124.834 21.833 -162.501 65.5s-56.5 102.834 -56.5 177.501v264h127v-256c0 -85.333 37.333 -128 112 -128c37.333 0 66.333 11.5 87 34.5
s31 57.833 31 104.5v245h127v-500z" />
    <glyph glyph-name="ucircumflex" unicode="&#xfb;" horiz-adv-x="645" 
d="M374 545l-55 52l-56 -52h-96l88 146h127l88 -146h-96zM564 0l-84.999 -0.000976562l-9 78c-34.667 -56.667 -91.667 -85 -171 -85c-70.667 0 -124.834 21.833 -162.501 65.5s-56.5 102.834 -56.5 177.501v264h127v-256c0 -85.333 37.333 -128 112 -128
c37.333 0 66.333 11.5 87 34.5s31 57.833 31 104.5v245h127v-500z" />
    <glyph glyph-name="udieresis" unicode="&#xfc;" horiz-adv-x="645" 
d="M214 677c21.333 0 39.166 -6.33301 53.499 -19s21.5 -28.334 21.5 -47.001s-7.16699 -34.334 -21.5 -47.001s-32.166 -19 -53.499 -19c-20.667 0 -38.167 6.33301 -52.5 19s-21.5 28.334 -21.5 47.001s7.16699 34.334 21.5 47.001s31.833 19 52.5 19zM429 677
c21.333 0 39.166 -6.33301 53.499 -19s21.5 -28.334 21.5 -47.001s-7.16699 -34.334 -21.5 -47.001s-32.166 -19 -53.499 -19c-20.667 0 -38.167 6.33301 -52.5 19s-21.5 28.334 -21.5 47.001s7.16699 34.334 21.5 47.001s31.833 19 52.5 19zM564 0l-84.999 -0.000976562
l-9 78c-34.667 -56.667 -91.667 -85 -171 -85c-70.667 0 -124.834 21.833 -162.501 65.5s-56.5 102.834 -56.5 177.501v264h127v-256c0 -85.333 37.333 -128 112 -128c37.333 0 66.333 11.5 87 34.5s31 57.833 31 104.5v245h127v-500z" />
    <glyph glyph-name="yacute" unicode="&#xfd;" horiz-adv-x="650" 
d="M321 545h-96l85 146h136zM569 500l0.00195312 -435.999c0 -74.667 -22.667 -135.834 -68 -183.501s-106 -71.5 -182 -71.5c-85.333 0 -159.333 26 -222 78l72 77c53.333 -26.667 103.333 -39.667 150 -39c37.333 0 67 9.5 89 28.5s33 46.167 33 81.5v32
c-30.667 -39.333 -76.334 -59 -137.001 -59c-70.667 0 -124.834 22 -162.501 66s-56.5 103.333 -56.5 178v248h127v-241c0 -85.333 37.333 -128 112 -128c37.333 0 66.333 11.5 87 34.5s31 57.833 31 104.5v230h127z" />
    <glyph glyph-name="thorn" unicode="&#xfe;" horiz-adv-x="644" 
d="M214 700v-250c32.667 37.333 76.667 56 132 56c70 0 128 -24.667 174 -74s69 -110 69 -182s-23 -132.833 -69 -182.5s-104 -74.5 -174 -74.5c-54 0 -98 18.667 -132 56v-233h-127v884h127zM333 383c-34.667 0 -64.8359 -12.333 -90.5029 -37s-38.5 -56.667 -38.5 -96
s12.833 -71.5 38.5 -96.5s55.834 -37.5 90.501 -37.5s64.834 12.5 90.501 37.5s38.5 57.167 38.5 96.5s-12.667 71.333 -38 96s-55.666 37 -90.999 37z" />
    <glyph glyph-name="ydieresis" unicode="&#xff;" horiz-adv-x="650" 
d="M217 677c21.333 0 39.166 -6.33301 53.499 -19s21.5 -28.334 21.5 -47.001s-7.16699 -34.334 -21.5 -47.001s-32.166 -19 -53.499 -19c-20.667 0 -38.167 6.33301 -52.5 19s-21.5 28.334 -21.5 47.001s7.16699 34.334 21.5 47.001s31.833 19 52.5 19zM433 677
c21.333 0 39.166 -6.33301 53.499 -19s21.5 -28.334 21.5 -47.001s-7.16699 -34.334 -21.5 -47.001s-32.166 -19 -53.499 -19c-20.667 0 -38.167 6.33301 -52.5 19s-21.5 28.334 -21.5 47.001s7.16699 34.334 21.5 47.001s31.833 19 52.5 19zM212 500l0.00195312 -240.999
c0 -85.333 37.333 -128 112 -128c37.333 0 66.333 11.5 87 34.5s31 57.833 31 104.5v230h127v-436c0 -74.667 -22.667 -135.834 -68 -183.501s-106 -71.5 -182 -71.5c-85.333 0 -159.333 26 -222 78l72 77c53.333 -26.667 103.333 -39.667 150 -39c37.333 0 67 9.5 89 28.5
s33 46.167 33 81.5v32c-30.667 -39.333 -76.334 -59 -137.001 -59c-70.667 0 -124.834 22 -162.501 66s-56.5 103.333 -56.5 178v248h127z" />
    <glyph glyph-name="Amacron" unicode="&#x100;" horiz-adv-x="739" 
d="M501 750h-262v94h262v-94zM246 128l-50 -128h-153l288 700h81l284 -700h-153l-50 128h-247zM370 450l-76 -191h151z" />
    <glyph glyph-name="amacron" unicode="&#x101;" 
d="M455 545h-262v93h262v-93zM557 0h-85l-7 71c-40.667 -51.333 -96 -77 -166 -77s-128.167 24.667 -174.5 74s-69.5 110 -69.5 182s23.167 132.833 69.5 182.5s104.5 74.5 174.5 74.5s125.333 -26 166 -78l7 71h85v-500zM311 117c34.667 0 64.8359 12.333 90.5029 37
s38.5 56.667 38.5 96s-12.833 71.5 -38.5 96.5s-55.834 37.5 -90.501 37.5s-64.834 -12.5 -90.501 -37.5s-38.5 -57.167 -38.5 -96.5s12.667 -71.333 38 -96s55.666 -37 90.999 -37z" />
    <glyph glyph-name="Abreve" unicode="&#x102;" horiz-adv-x="739" 
d="M440 902h87.001c0 -43.333 -15.167 -79.5 -45.5 -108.5s-67.5 -43.5 -111.5 -43.5s-81.167 14.5 -111.5 43.5s-45.5 65.167 -45.5 108.5h88c0 -18 6.66699 -33.167 20 -45.5s29.666 -18.5 48.999 -18.5s35.833 6.16699 49.5 18.5s20.5 27.5 20.5 45.5zM696.001 0h-153
l-50 128h-247l-50 -128h-153l288 700h81zM294.001 259h151l-75 191z" />
    <glyph glyph-name="abreve" unicode="&#x103;" 
d="M381 696h87.001c0 -43.333 -15.167 -79.333 -45.5 -108s-67.5 -43 -111.5 -43s-81.167 14.333 -111.5 43s-45.5 64.667 -45.5 108h88c0 -18 6.66699 -33.167 20 -45.5s29.666 -18.5 48.999 -18.5s35.833 6.16699 49.5 18.5s20.5 27.5 20.5 45.5zM299.001 507
c70 0 125.333 -26 166 -78l7 71h85v-500h-85l-7 71c-40.667 -51.333 -96 -77 -166 -77s-128.167 24.667 -174.5 74s-69.5 110 -69.5 182s23.167 132.833 69.5 182.5s104.5 74.5 174.5 74.5zM311.001 384c-34.667 0 -64.832 -12.5 -90.499 -37.5s-38.5 -57.167 -38.5 -96.5
s12.667 -71.333 38 -96s55.666 -37 90.999 -37c34.667 0 64.834 12.333 90.501 37s38.5 56.667 38.5 96s-12.833 71.5 -38.5 96.5s-55.834 37.5 -90.501 37.5z" />
    <glyph glyph-name="Aogonek" unicode="&#x104;" horiz-adv-x="739" 
d="M635 -53c0 -21.333 15 -31.999 45 -31.999h16v-79h-9c-30 0 -55 6.33301 -75 19s-30 31.667 -30 57c0 36.667 26 66 78 88h-117l-50 128h-247l-50 -128h-153l288 700h81l284 -700c-40.667 -16.667 -61 -34.334 -61 -53.001zM445 259.001l-75 191l-76 -191h151z" />
    <glyph glyph-name="aogonek" unicode="&#x105;" 
d="M557 500v-499.999c-40.667 -16.667 -61 -34.334 -61 -53.001c0 -21.333 15 -32 45 -32h16v-79h-9c-30 0 -55 6.33301 -75 19s-30 31.667 -30 57c0 36.667 26 66 78 88h-49l-7 71c-40.667 -51.333 -96 -77 -166 -77s-128.167 24.667 -174.5 74s-69.5 110 -69.5 182
s23.167 132.833 69.5 182.5s104.5 74.5 174.5 74.5s125.333 -26 166 -78l7 71h85zM311 117.001c34.667 0 64.8359 12.333 90.5029 37s38.5 56.667 38.5 96s-12.833 71.5 -38.5 96.5s-55.834 37.5 -90.501 37.5s-64.834 -12.5 -90.501 -37.5s-38.5 -57.167 -38.5 -96.5
s12.667 -71.333 38 -96s55.666 -37 90.999 -37z" />
    <glyph glyph-name="Cacute" unicode="&#x106;" horiz-adv-x="731" 
d="M414 750h-96l85 146h136zM414 707c104 0 192 -38.6689 264 -116.002l-90 -83c-47.333 46 -105.333 69 -174 69c-62 0 -113.833 -21.333 -155.5 -64s-62.5 -97 -62.5 -163c0 -66.667 20.833 -121.167 62.5 -163.5s93.5 -63.5 155.5 -63.5c70 0 128 23 174 69l90 -83
c-72 -77.333 -160 -116 -264 -116c-98.667 0 -182.667 34.833 -252 104.5s-104 153.834 -104 252.501s34.667 182.834 104 252.501s153.333 104.5 252 104.5z" />
    <glyph glyph-name="cacute" unicode="&#x107;" horiz-adv-x="559" 
d="M309 545h-96l85 146h136zM311 506c80 0 145.667 -30.667 197 -92l-76 -82c-36.667 34 -77 51 -121 51c-35.333 0 -65.666 -12.333 -90.999 -37s-38 -56.667 -38 -96s12.667 -71.333 38 -96s55.666 -37 90.999 -37c44 0 84.333 17 121 51l76 -82
c-51.333 -61.333 -117 -92 -197 -92c-71.333 0 -131.833 25 -181.5 75s-74.5 110.333 -74.5 181s24.833 131 74.5 181s110.167 75 181.5 75z" />
    <glyph glyph-name="Cdotaccent" unicode="&#x10a;" horiz-adv-x="731" 
d="M414 882c21.333 0 39.166 -6.33301 53.499 -19s21.5 -28.334 21.5 -47.001s-7.16699 -34.334 -21.5 -47.001s-32.166 -19 -53.499 -19c-20.667 0 -38.167 6.33301 -52.5 19s-21.5 28.334 -21.5 47.001s7.16699 34.334 21.5 47.001s31.833 19 52.5 19zM414 707
c104 0 192 -38.6689 264 -116.002l-90 -83c-47.333 46 -105.333 69 -174 69c-62 0 -113.833 -21.333 -155.5 -64s-62.5 -97 -62.5 -163c0 -66.667 20.833 -121.167 62.5 -163.5s93.5 -63.5 155.5 -63.5c70 0 128 23 174 69l90 -83c-72 -77.333 -160 -116 -264 -116
c-98.667 0 -182.667 34.833 -252 104.5s-104 153.834 -104 252.501s34.667 182.834 104 252.501s153.333 104.5 252 104.5z" />
    <glyph glyph-name="cdotaccent" unicode="&#x10b;" horiz-adv-x="559" 
d="M311 677c21.333 0 39.166 -6.33301 53.499 -19s21.5 -28.334 21.5 -47.001s-7.16699 -34.334 -21.5 -47.001s-32.166 -19 -53.499 -19c-20.667 0 -38.167 6.33301 -52.5 19s-21.5 28.334 -21.5 47.001s7.16699 34.334 21.5 47.001s31.833 19 52.5 19zM311 506
c80 0 145.667 -30.667 197 -92l-76 -82c-36.667 34 -77 51 -121 51c-35.333 0 -65.666 -12.333 -90.999 -37s-38 -56.667 -38 -96s12.667 -71.333 38 -96s55.666 -37 90.999 -37c44 0 84.333 17 121 51l76 -82c-51.333 -61.333 -117 -92 -197 -92
c-71.333 0 -131.833 25 -181.5 75s-74.5 110.333 -74.5 181s24.833 131 74.5 181s110.167 75 181.5 75z" />
    <glyph glyph-name="Ccaron" unicode="&#x10c;" horiz-adv-x="731" 
d="M477 750h-127l-88 146h96l56 -51l55 52h96zM414 707c104 0 192 -38.6689 264 -116.002l-90 -83c-47.333 46 -105.333 69 -174 69c-62 0 -113.833 -21.333 -155.5 -64s-62.5 -97 -62.5 -163c0 -66.667 20.833 -121.167 62.5 -163.5s93.5 -63.5 155.5 -63.5
c70 0 128 23 174 69l90 -83c-72 -77.333 -160 -116 -264 -116c-98.667 0 -182.667 34.833 -252 104.5s-104 153.834 -104 252.501s34.667 182.834 104 252.501s153.333 104.5 252 104.5z" />
    <glyph glyph-name="ccaron" unicode="&#x10d;" horiz-adv-x="559" 
d="M375 545h-127l-88 146h96l56 -52l55 52h96zM311 506c80 0 145.667 -30.667 197 -92l-76 -82c-36.667 34 -77 51 -121 51c-35.333 0 -65.666 -12.333 -90.999 -37s-38 -56.667 -38 -96s12.667 -71.333 38 -96s55.666 -37 90.999 -37c44 0 84.333 17 121 51l76 -82
c-51.333 -61.333 -117 -92 -197 -92c-71.333 0 -131.833 25 -181.5 75s-74.5 110.333 -74.5 181s24.833 131 74.5 181s110.167 75 181.5 75z" />
    <glyph glyph-name="Dcaron" unicode="&#x10e;" horiz-adv-x="762" 
d="M419 750h-127l-88 146h96l56 -51l55 52h96zM105 700h243c99.333 0 183.5 -33.167 252.5 -99.5s103.5 -149.833 103.5 -250.5s-34.333 -184.167 -103 -250.5s-153 -99.5 -253 -99.5h-243v700zM243 570v-440h105c63.333 0 115.5 19.5 156.5 58.5s61.5 92.833 61.5 161.5
s-20.5 122.5 -61.5 161.5s-93.167 58.5 -156.5 58.5h-105z" />
    <glyph glyph-name="dcaron" unicode="&#x10f;" horiz-adv-x="896" 
d="M557 0h-85.001l-7 71c-40.667 -51.333 -96 -77 -166 -77s-128.167 24.667 -174.5 74s-69.5 110 -69.5 182s23.167 132.833 69.5 182.5s104.5 74.5 174.5 74.5c54.667 0 98.334 -18.667 131.001 -56v249h127v-700zM684.999 554h-96l85 146h136zM310.999 117
c34.667 0 64.8359 12.333 90.5029 37s38.5 56.667 38.5 96s-12.833 71.5 -38.5 96.5s-55.834 37.5 -90.501 37.5s-64.834 -12.5 -90.501 -37.5s-38.5 -57.167 -38.5 -96.5s12.667 -71.333 38 -96s55.666 -37 90.999 -37z" />
    <glyph glyph-name="Dcroat" unicode="&#x110;" horiz-adv-x="810" 
d="M154 700h243c99.333 0 183.5 -33.167 252.5 -99.5s103.5 -149.833 103.5 -250.5s-34.333 -184.167 -103 -250.5s-153 -99.5 -253 -99.5h-243v311h-49v79h49v310zM292 130h105c63.333 0 115.5 19.5 156.5 58.5s61.5 92.833 61.5 161.5s-20.5 122.5 -61.5 161.5
s-93.167 58.5 -156.5 58.5h-105v-180h63v-79h-63v-181z" />
    <glyph glyph-name="dcroat" unicode="&#x111;" horiz-adv-x="704" 
d="M619 549h-62.001v-549h-85l-7 71c-40.667 -51.333 -96 -77 -166 -77s-128.167 24.667 -174.5 74s-69.5 110 -69.5 182s23.167 132.833 69.5 182.5s104.5 74.5 174.5 74.5c54.667 0 98.334 -18.667 131.001 -56v98h-61v94h61v57h127v-57h62v-94zM310.999 117
c34.667 0 64.8359 12.333 90.5029 37s38.5 56.667 38.5 96s-12.833 71.5 -38.5 96.5s-55.834 37.5 -90.501 37.5s-64.834 -12.5 -90.501 -37.5s-38.5 -57.167 -38.5 -96.5s12.667 -71.333 38 -96s55.666 -37 90.999 -37z" />
    <glyph glyph-name="Emacron" unicode="&#x112;" horiz-adv-x="624" 
d="M466 750h-262v94h262v-94zM571 570h-328v-153h303v-130h-303v-157h328v-130h-466v700h466v-130z" />
    <glyph glyph-name="emacron" unicode="&#x113;" horiz-adv-x="595" 
d="M438 545h-262v93h262v-93zM307 507c106 0 179.333 -44.999 220 -134.999c10 -22 15.667 -48.5 17 -79.5s-1.66699 -56.833 -9 -77.5h-349c0 -32.667 11.833 -58.334 35.5 -77.001s53.167 -28 88.5 -28c55.333 0 105.666 11.667 150.999 35l67 -73
c-70 -52 -142.667 -78 -218 -78s-136.666 24.167 -183.999 72.5s-71 109.5 -71 183.5c0 73.333 23 134.5 69 183.5s107 73.5 183 73.5zM307 391.001c-32.667 0 -59.833 -9.66797 -81.5 -29.001s-33.167 -41.666 -34.5 -66.999h229c0 14.667 -4 28 -12 40
c-20 37.333 -53.667 56 -101 56z" />
    <glyph glyph-name="Edotaccent" unicode="&#x116;" horiz-adv-x="624" 
d="M334 882c21.333 0 39.166 -6.33301 53.499 -19s21.5 -28.334 21.5 -47.001s-7.16699 -34.334 -21.5 -47.001s-32.166 -19 -53.499 -19c-20.667 0 -38.167 6.33301 -52.5 19s-21.5 28.334 -21.5 47.001s7.16699 34.334 21.5 47.001s31.833 19 52.5 19zM571 570h-328v-153
h303v-130h-303v-157h328v-130h-466v700h466v-130z" />
    <glyph glyph-name="edotaccent" unicode="&#x117;" horiz-adv-x="595" 
d="M307 677c21.333 0 39.166 -6.33301 53.499 -19s21.5 -28.334 21.5 -47.001s-7.16699 -34.334 -21.5 -47.001s-32.166 -19 -53.499 -19c-20.667 0 -38.167 6.33301 -52.5 19s-21.5 28.334 -21.5 47.001s7.16699 34.334 21.5 47.001s31.833 19 52.5 19zM307 507
c106 0 179.333 -44.999 220 -134.999c10 -22 15.667 -48.5 17 -79.5s-1.66699 -56.833 -9 -77.5h-349c0 -32.667 11.833 -58.334 35.5 -77.001s53.167 -28 88.5 -28c55.333 0 105.666 11.667 150.999 35l67 -73c-70 -52 -142.667 -78 -218 -78
s-136.666 24.167 -183.999 72.5s-71 109.5 -71 183.5c0 73.333 23 134.5 69 183.5s107 73.5 183 73.5zM307 391.001c-32.667 0 -59.833 -9.66797 -81.5 -29.001s-33.167 -41.666 -34.5 -66.999h229c0 14.667 -4 28 -12 40c-20 37.333 -53.667 56 -101 56z" />
    <glyph glyph-name="Eogonek" unicode="&#x118;" horiz-adv-x="624" 
d="M511 -53c0 -21.333 15 -31.999 45 -31.999h16v-79h-9c-30 0 -55 6.33301 -75 19s-30 31.667 -30 57c0 36.667 26 66 78 88h-431v700h466v-130h-328v-153h303v-130h-303v-157h328v-130h1c-40.667 -16.667 -61 -34.334 -61 -53.001z" />
    <glyph glyph-name="eogonek" unicode="&#x119;" horiz-adv-x="595" 
d="M527 372c10 -22 15.666 -48.498 16.999 -79.498s-1.66699 -56.833 -9 -77.5h-349c0 -32.667 11.833 -58.334 35.5 -77.001s53.167 -28 88.5 -28c55.333 0 105.666 11.667 150.999 35l67 -73c-49.333 -37.333 -101.666 -61.333 -156.999 -72
c-40.667 -16.667 -61 -34.334 -61 -53.001c0 -21.333 15 -32 45 -32h16v-79h-9c-30 0 -55 6.33301 -75 19s-30 31.667 -30 57c0 34 21.667 61.333 65 82h-12c-75.333 0 -136.666 24.167 -183.999 72.5s-71 109.5 -71 183.5c0 73.333 23 134.5 69 183.5s107 73.5 183 73.5
c106 0 179.333 -45 220 -135zM190.999 295.002l229.001 -0.000976562c0 14.667 -4 28 -12 40c-20 37.333 -53.667 56 -101 56c-32.667 0 -59.834 -9.66699 -81.501 -29s-33.167 -41.666 -34.5 -66.999z" />
    <glyph glyph-name="Ecaron" unicode="&#x11a;" horiz-adv-x="624" 
d="M397 750h-127l-88 146h96l56 -51l55 52h96zM571 570h-328v-153h303v-130h-303v-157h328v-130h-466v700h466v-130z" />
    <glyph glyph-name="ecaron" unicode="&#x11b;" horiz-adv-x="595" 
d="M372 545h-127l-88 146h96l56 -52l55 52h96zM307 507c106 0 179.333 -44.999 220 -134.999c10 -22 15.667 -48.5 17 -79.5s-1.66699 -56.833 -9 -77.5h-349c0 -32.667 11.833 -58.334 35.5 -77.001s53.167 -28 88.5 -28c55.333 0 105.666 11.667 150.999 35l67 -73
c-70 -52 -142.667 -78 -218 -78s-136.666 24.167 -183.999 72.5s-71 109.5 -71 183.5c0 73.333 23 134.5 69 183.5s107 73.5 183 73.5zM307 391.001c-32.667 0 -59.833 -9.66797 -81.5 -29.001s-33.167 -41.666 -34.5 -66.999h229c0 14.667 -4 28 -12 40
c-20 37.333 -53.667 56 -101 56z" />
    <glyph glyph-name="Gbreve" unicode="&#x11e;" horiz-adv-x="773" 
d="M484 902h87.001c0 -43.333 -15.167 -79.5 -45.5 -108.5s-67.5 -43.5 -111.5 -43.5s-81.167 14.5 -111.5 43.5s-45.5 65.167 -45.5 108.5h88c0 -18 6.66699 -33.167 20 -45.5s29.666 -18.5 48.999 -18.5s35.833 6.16699 49.5 18.5s20.5 27.5 20.5 45.5zM414.001 706
c104 0 192 -38.6689 264 -116.002l-90 -83c-46 46 -104 69 -174 69c-62 0 -113.833 -21.167 -155.5 -63.5s-62.5 -96.833 -62.5 -163.5c0 -66 20.833 -120.333 62.5 -163s93.5 -64 155.5 -64c47.333 0 89.333 13 126 39v121h-128v104h266v-278
c-72 -77.333 -160 -116 -264 -116c-98.667 0 -182.667 34.833 -252 104.5s-104 153.834 -104 252.501s34.667 182.834 104 252.501s153.333 104.5 252 104.5z" />
    <glyph glyph-name="gbreve" unicode="&#x11f;" horiz-adv-x="638" 
d="M376 696h87.001c0 -43.333 -15.167 -79.333 -45.5 -108s-67.5 -43 -111.5 -43s-81.167 14.333 -111.5 43s-45.5 64.667 -45.5 108h88c0 -18 6.66699 -33.167 20 -45.5s29.666 -18.5 48.999 -18.5s35.833 6.16699 49.5 18.5s20.5 27.5 20.5 45.5zM294.001 507
c70 0 125.334 -25.666 166.001 -76.999l7 70h85v-436c0 -74.667 -22.667 -135.834 -68 -183.501s-106.333 -71.5 -183 -71.5c-84.667 0 -158.334 26 -221.001 78l72 77c53.333 -26.667 103 -39.667 149 -39c37.333 0 67 9.5 89 28.5s33 46.167 33 81.5v28
c-32.667 -36 -75.667 -54 -129 -54c-70 0 -128.167 24.333 -174.5 73s-69.5 107 -69.5 175c0 68.667 23.167 127.5 69.5 176.5s104.5 73.5 174.5 73.5zM306.002 384.001c-34.667 0 -64.834 -12 -90.501 -36s-38.5 -54.333 -38.5 -91c0 -36 12.833 -65.833 38.5 -89.5
s55.834 -35.5 90.501 -35.5c34 0 64 11.833 90 35.5s39 53.5 39 89.5c0 36.667 -13 67 -39 91s-56 36 -90 36z" />
    <glyph glyph-name="Gdotaccent" unicode="&#x120;" horiz-adv-x="773" 
d="M414 882c21.333 0 39.166 -6.33301 53.499 -19s21.5 -28.334 21.5 -47.001s-7.16699 -34.334 -21.5 -47.001s-32.166 -19 -53.499 -19c-20.667 0 -38.167 6.33301 -52.5 19s-21.5 28.334 -21.5 47.001s7.16699 34.334 21.5 47.001s31.833 19 52.5 19zM414 706
c104 0 192 -38.6689 264 -116.002l-90 -83c-46 46 -104 69 -174 69c-62 0 -113.833 -21.167 -155.5 -63.5s-62.5 -96.833 -62.5 -163.5c0 -66 20.833 -120.333 62.5 -163s93.5 -64 155.5 -64c47.333 0 89.333 13 126 39v121h-128v104h266v-278
c-72 -77.333 -160 -116 -264 -116c-98.667 0 -182.667 34.833 -252 104.5s-104 153.834 -104 252.501s34.667 182.834 104 252.501s153.333 104.5 252 104.5z" />
    <glyph glyph-name="gdotaccent" unicode="&#x121;" horiz-adv-x="638" 
d="M306 677c21.333 0 39.166 -6.33301 53.499 -19s21.5 -28.334 21.5 -47.001s-7.16699 -34.334 -21.5 -47.001s-32.166 -19 -53.499 -19c-20.667 0 -38.167 6.33301 -52.5 19s-21.5 28.334 -21.5 47.001s7.16699 34.334 21.5 47.001s31.833 19 52.5 19zM294 507
c70 0 125.334 -25.666 166.001 -76.999l7 70h85v-436c0 -74.667 -22.667 -135.834 -68 -183.501s-106.333 -71.5 -183 -71.5c-84.667 0 -158.334 26 -221.001 78l72 77c53.333 -26.667 103 -39.667 149 -39c37.333 0 67 9.5 89 28.5s33 46.167 33 81.5v28
c-32.667 -36 -75.667 -54 -129 -54c-70 0 -128.167 24.333 -174.5 73s-69.5 107 -69.5 175c0 68.667 23.167 127.5 69.5 176.5s104.5 73.5 174.5 73.5zM306.001 384.001c-34.667 0 -64.834 -12 -90.501 -36s-38.5 -54.333 -38.5 -91c0 -36 12.833 -65.833 38.5 -89.5
s55.834 -35.5 90.501 -35.5c34 0 64 11.833 90 35.5s39 53.5 39 89.5c0 36.667 -13 67 -39 91s-56 36 -90 36z" />
    <glyph glyph-name="Gcommaaccent" unicode="&#x122;" horiz-adv-x="773" 
d="M414 706c104 0 192 -38.6689 264 -116.002l-90 -83c-46 46 -104 69 -174 69c-62 0 -113.833 -21.167 -155.5 -63.5s-62.5 -96.833 -62.5 -163.5c0 -66 20.833 -120.333 62.5 -163s93.5 -64 155.5 -64c47.333 0 89.333 13 126 39v121h-128v104h266v-278
c-72 -77.333 -160 -116 -264 -116c-98.667 0 -182.667 34.833 -252 104.5s-104 153.834 -104 252.501s34.667 182.834 104 252.501s153.333 104.5 252 104.5zM370 -215.002h-96l85 146h136z" />
    <glyph glyph-name="gcommaaccent" unicode="&#x123;" horiz-adv-x="638" 
d="M294 507c70 0 125.334 -25.666 166.001 -76.999l7 70h85v-436c0 -74.667 -22.667 -135.834 -68 -183.501s-106.333 -71.5 -183 -71.5c-84.667 0 -158.334 26 -221.001 78l72 77c53.333 -26.667 103 -39.667 149 -39c37.333 0 67 9.5 89 28.5s33 46.167 33 81.5v28
c-32.667 -36 -75.667 -54 -129 -54c-70 0 -128.167 24.333 -174.5 73s-69.5 107 -69.5 175c0 68.667 23.167 127.5 69.5 176.5s104.5 73.5 174.5 73.5zM306.001 384.001c-34.667 0 -64.834 -12 -90.501 -36s-38.5 -54.333 -38.5 -91c0 -36 12.833 -65.833 38.5 -89.5
s55.834 -35.5 90.501 -35.5c34 0 64 11.833 90 35.5s39 53.5 39 89.5c0 36.667 -13 67 -39 91s-56 36 -90 36zM270.001 -395.999h-96l85 146h136z" />
    <glyph glyph-name="Hbar" unicode="&#x126;" horiz-adv-x="899" 
d="M794 500h-71v-500h-138v287h-271v-287h-138v500h-71v78h71v122h138v-122h271v122h138v-122h71v-78zM585 500h-271v-83h271v83z" />
    <glyph glyph-name="hbar" unicode="&#x127;" horiz-adv-x="724" 
d="M425 507c70.667 0 124.667 -21.832 162 -65.499s56 -102.834 56 -177.501v-264h-127v256c0 85.333 -37 128 -111 128c-38 0 -67.333 -11.5 -88 -34.5s-31 -57.833 -31 -104.5v-245h-127v542h-69v87h69v71h127v-71h68v-87h-68v-94c30.667 39.333 77 59 139 59z" />
    <glyph glyph-name="Imacron" unicode="&#x12a;" horiz-adv-x="534" 
d="M396 750h-262v94h262v-94zM336 130h84v-130h-306v130h84v440h-84v130h306v-130h-84v-440z" />
    <glyph glyph-name="imacron" unicode="&#x12b;" horiz-adv-x="438" 
d="M352 545h-262v93h262v-93zM157 0v500h127v-500h-127z" />
    <glyph glyph-name="Iogonek" unicode="&#x12e;" horiz-adv-x="517" 
d="M327 570v-439.999h84v-130c-40.667 -16.667 -61 -34.334 -61 -53.001c0 -21.333 15 -32 45 -32h16v-79h-9c-30 0 -55 6.33301 -75 19s-30 31.667 -30 57c0 36.667 26 66 78 88h-270v130h84v440h-84v130h306v-130h-84z" />
    <glyph glyph-name="iogonek" unicode="&#x12f;" horiz-adv-x="343" 
d="M183 545c-20.667 0 -38.167 6.33301 -52.5 19s-21.5 28.334 -21.5 47.001s7.16699 34.334 21.5 47.001s31.833 19 52.5 19c21.333 0 39.166 -6.33301 53.499 -19s21.5 -28.334 21.5 -47.001s-7.16699 -34.334 -21.5 -47.001s-32.166 -19 -53.499 -19zM120 500
l127 0.000976562v-500c-40.667 -16.667 -61 -34.334 -61 -53.001c0 -21.333 15 -32 45 -32h16v-79h-9c-30 0 -55 6.33301 -75 19s-30 31.667 -30 57c0 36.667 26 66 78 88h-91v500z" />
    <glyph glyph-name="Idotaccent" unicode="&#x130;" horiz-adv-x="517" 
d="M258 750c-20.667 0 -38.167 6.33301 -52.5 19s-21.5 28.334 -21.5 47.001s7.16699 34.334 21.5 47.001s31.833 19 52.5 19c21.333 0 39.166 -6.33301 53.499 -19s21.5 -28.334 21.5 -47.001s-7.16699 -34.334 -21.5 -47.001s-32.166 -19 -53.499 -19zM327 130h84v-130
h-306v130h84v440h-84v130h306v-130h-84v-440z" />
    <glyph glyph-name="dotlessi" unicode="&#x131;" horiz-adv-x="302" 
d="M90 0v500h127v-500h-127z" />
    <glyph glyph-name="IJ" unicode="&#x132;" horiz-adv-x="998" 
d="M411 570h-84v-440h84v-130h-306v130h84v440h-84v130h306v-130zM939 700l-0.00195312 -444c0 -88.667 -23 -154.667 -69 -198s-105 -65 -177 -65s-131 21.667 -177 65s-69 109.333 -69 198v39h138v-59c0 -35.333 10.333 -63 31 -83s46.334 -30 77.001 -30
s56.334 10 77.001 30s31 47.667 31 83v334h-205v130h343z" />
    <glyph glyph-name="ij" unicode="&#x133;" horiz-adv-x="543" 
d="M164 677c21.333 0 39.166 -6.33301 53.499 -19s21.5 -28.334 21.5 -47.001s-7.16699 -34.334 -21.5 -47.001s-32.166 -19 -53.499 -19c-20.667 0 -38.167 6.33301 -52.5 19s-21.5 28.334 -21.5 47.001s7.16699 34.334 21.5 47.001s31.833 19 52.5 19zM383 677
c21.333 0 39.166 -6.33301 53.499 -19s21.5 -28.334 21.5 -47.001s-7.16699 -34.334 -21.5 -47.001s-32.166 -19 -53.499 -19c-20.667 0 -38.167 6.33301 -52.5 19s-21.5 28.334 -21.5 47.001s7.16699 34.334 21.5 47.001s31.833 19 52.5 19zM228 0h-127v500h127v-500z
M447 -184h-128v684h128v-684z" />
    <glyph glyph-name="Kcommaaccent" unicode="&#x136;" horiz-adv-x="745" 
d="M692 700l-164.999 -258.003c-32.667 -44.667 -59.667 -72.667 -81 -84c25.333 -11.333 53.666 -41.666 84.999 -90.999l171 -267h-156l-144 225c-16 24.667 -30 41.334 -42 50.001s-29.667 13 -53 13h-64v-288h-138v700h138v-279h60c22.667 0 40.167 4.33301 52.5 13
s26.5 25.334 42.5 50.001l138 216h156zM340.001 -215.003h-96l85 146h136z" />
    <glyph glyph-name="kcommaaccent" unicode="&#x137;" horiz-adv-x="607" 
d="M433 0l-86 132.997c-16 24.667 -30.167 41.334 -42.5 50.001s-29.833 13 -52.5 13h-35v-196h-127v700h127v-382h31c22.667 0 40 4.33301 52 13s26 25.334 42 50.001l78 119h141l-112 -169c-25.333 -39.333 -49 -63.666 -71 -72.999c22.667 -7.33301 48 -32.333 76 -75
l120 -183h-141zM283 -215.003h-96l85 146h136z" />
    <glyph glyph-name="Lacute" unicode="&#x139;" horiz-adv-x="601" 
d="M327 750h-96l85 146h136zM558 0h-453v700h138v-570h315v-130z" />
    <glyph glyph-name="lacute" unicode="&#x13a;" horiz-adv-x="393" 
d="M186 750h-96l85 146h136zM107 700h128v-700h-128v700z" />
    <glyph glyph-name="Lcommaaccent" unicode="&#x13b;" horiz-adv-x="601" 
d="M558 0h-453v700h138v-570h315v-130zM290 -215h-96l85 146h136z" />
    <glyph glyph-name="lcommaaccent" unicode="&#x13c;" horiz-adv-x="393" 
d="M152 700h128v-700h-128v700zM186 -206h-96l85 147h136z" />
    <glyph glyph-name="Lcaron" unicode="&#x13d;" horiz-adv-x="601" 
d="M558 0h-453v700h138v-570h315v-130zM433 554h-96l85 146h136z" />
    <glyph glyph-name="lcaron" unicode="&#x13e;" horiz-adv-x="550" 
d="M90 700h128v-700h-128v700zM343 554h-96l85 146h136z" />
    <glyph glyph-name="Ldot" unicode="&#x13f;" horiz-adv-x="601" 
d="M558 0h-453v700h138v-570h315v-130zM483 303c-22 0 -40.167 7.33301 -54.5 22s-21.5 32.334 -21.5 53.001s7.16699 38.334 21.5 53.001s32.5 22 54.5 22c21.333 0 39.166 -7.33301 53.499 -22s21.5 -32.334 21.5 -53.001s-7.16699 -38.334 -21.5 -53.001
s-32.166 -22 -53.499 -22z" />
    <glyph glyph-name="ldot" unicode="&#x140;" horiz-adv-x="484" 
d="M90 700h128v-700h-128v700zM327 377c21.333 0 39.166 -7.33301 53.499 -22s21.5 -32.334 21.5 -53.001s-7.16699 -38.334 -21.5 -53.001s-32.166 -22 -53.499 -22c-22 0 -40.167 7.33301 -54.5 22s-21.5 32.334 -21.5 53.001s7.16699 38.334 21.5 53.001s32.5 22 54.5 22
z" />
    <glyph glyph-name="Lslash" unicode="&#x141;" horiz-adv-x="661" 
d="M618 130v-130h-453v336l-60 -26v77l60 26v287h138v-226l60 26v-77l-60 -26v-267h315z" />
    <glyph glyph-name="lslash" unicode="&#x142;" horiz-adv-x="430" 
d="M348 423l-64 -28v-395h-128v339l-66 -29v77l66 29v284h128v-228l64 28v-77z" />
    <glyph glyph-name="Nacute" unicode="&#x143;" horiz-adv-x="741" 
d="M380 750h-96l85 146h136zM646 0h-82l-331 441v-441h-138v700h81l332 -441v441h138v-700z" />
    <glyph glyph-name="nacute" unicode="&#x144;" horiz-adv-x="650" 
d="M342 545h-96l85 146h136zM351 507c70.667 0 124.667 -21.832 162 -65.499s56 -102.834 56 -177.501v-264h-127v256c0 85.333 -37 128 -111 128c-38 0 -67.333 -11.5 -88 -34.5s-31 -57.833 -31 -104.5v-245h-127v500h85l9 -78c34.667 56.667 92 85 172 85z" />
    <glyph glyph-name="Ncommaaccent" unicode="&#x145;" horiz-adv-x="741" 
d="M646 0h-82l-331 441v-441h-138v700h81l332 -441v441h138v-700zM341 -215h-96l85 146h136z" />
    <glyph glyph-name="ncommaaccent" unicode="&#x146;" horiz-adv-x="650" 
d="M351 507c70.667 0 124.667 -21.832 162 -65.499s56 -102.834 56 -177.501v-264h-127v256c0 85.333 -37 128 -111 128c-38 0 -67.333 -11.5 -88 -34.5s-31 -57.833 -31 -104.5v-245h-127v500h85l9 -78c34.667 56.667 92 85 172 85zM312 -214.999h-96l85 146h136z" />
    <glyph glyph-name="Ncaron" unicode="&#x147;" horiz-adv-x="741" 
d="M368 845l55 52h96l-88 -147h-127l-88 147h96zM646 0h-82l-331 441v-441h-138v700h81l332 -441v441h138v-700z" />
    <glyph glyph-name="ncaron" unicode="&#x148;" horiz-adv-x="650" 
d="M400 545h-127l-88 146h96l56 -52l55 52h96zM351 507c70.667 0 124.667 -21.832 162 -65.499s56 -102.834 56 -177.501v-264h-127v256c0 85.333 -37 128 -111 128c-38 0 -67.333 -11.5 -88 -34.5s-31 -57.833 -31 -104.5v-245h-127v500h85l9 -78
c34.667 56.667 92 85 172 85z" />
    <glyph glyph-name="Eng" unicode="&#x14a;" horiz-adv-x="741" 
d="M646 700v-655.001c0 -79.333 -19 -139.5 -57 -180.5s-92 -59.5 -162 -55.5l-15 1v115h9c36 0 61.333 7.33301 76 22s22 45.334 22 92.001v21l-286 381v-441h-138v700h81l332 -441v441h138z" />
    <glyph glyph-name="eng" unicode="&#x14b;" horiz-adv-x="650" 
d="M351 507c70.667 0 124.667 -21.833 162 -65.5s56 -102.834 56 -177.501v-219c0 -79.333 -19 -139.5 -57 -180.5s-92 -59.5 -162 -55.5l-15 1v115h9c36.667 0 62.167 7.33301 76.5 22s21.5 45.334 21.5 92.001v217c0 85.333 -37 128 -111 128
c-38 0 -67.333 -11.5 -88 -34.5s-31 -57.833 -31 -104.5v-245h-127v500h85l9 -78c34.667 56.667 92 85 172 85z" />
    <glyph glyph-name="Omacron" unicode="&#x14c;" horiz-adv-x="829" 
d="M545 750h-262v94h262v-94zM414 707c98.667 0 182.834 -34.833 252.501 -104.5s104.5 -153.834 104.5 -252.501s-34.833 -182.834 -104.5 -252.501s-153.834 -104.5 -252.501 -104.5s-182.667 34.833 -252 104.5s-104 153.834 -104 252.501s34.667 182.834 104 252.501
s153.333 104.5 252 104.5zM414 577c-62 0 -113.834 -21.333 -155.501 -64s-62.5 -97 -62.5 -163c0 -66.667 20.833 -121.167 62.5 -163.5s93.5 -63.5 155.5 -63.5c62.667 0 114.834 21.167 156.501 63.5s62.5 96.833 62.5 163.5c0 66 -21 120.333 -63 163s-94 64 -156 64z
" />
    <glyph glyph-name="omacron" unicode="&#x14d;" horiz-adv-x="623" 
d="M441 545h-262v93h262v-93zM311 507c71.333 0 132 -25.167 182 -75.5s75 -110.833 75 -181.5s-25 -131 -75 -181s-110.667 -75 -182 -75s-131.833 25 -181.5 75s-74.5 110.333 -74.5 181c0 71.333 25 132 75 182s110.333 75 181 75zM311 384
c-34.667 0 -64.832 -12.5 -90.499 -37.5s-38.5 -57.167 -38.5 -96.5s12.667 -71.333 38 -96s55.666 -37 90.999 -37c34.667 0 64.834 12.333 90.501 37s38.5 56.667 38.5 96s-12.833 71.5 -38.5 96.5s-55.834 37.5 -90.501 37.5z" />
    <glyph glyph-name="Ohungarumlaut" unicode="&#x150;" horiz-adv-x="829" 
d="M354 750h-96l85 146h136zM527 750h-96l85 146h136zM414 707c98.667 0 182.834 -34.833 252.501 -104.5s104.5 -153.834 104.5 -252.501s-34.833 -182.834 -104.5 -252.501s-153.834 -104.5 -252.501 -104.5s-182.667 34.833 -252 104.5s-104 153.834 -104 252.501
s34.667 182.834 104 252.501s153.333 104.5 252 104.5zM414 577c-62 0 -113.834 -21.333 -155.501 -64s-62.5 -97 -62.5 -163c0 -66.667 20.833 -121.167 62.5 -163.5s93.5 -63.5 155.5 -63.5c62.667 0 114.834 21.167 156.501 63.5s62.5 96.833 62.5 163.5
c0 66 -21 120.333 -63 163s-94 64 -156 64z" />
    <glyph glyph-name="ohungarumlaut" unicode="&#x151;" horiz-adv-x="629" 
d="M242 545h-96l85 146h136zM415 545h-96l85 146h136zM311 507c71.333 0 132 -25.167 182 -75.5s75 -110.833 75 -181.5s-25 -131 -75 -181s-110.667 -75 -182 -75s-131.833 25 -181.5 75s-74.5 110.333 -74.5 181c0 71.333 25 132 75 182s110.333 75 181 75zM311 384
c-34.667 0 -64.832 -12.5 -90.499 -37.5s-38.5 -57.167 -38.5 -96.5s12.667 -71.333 38 -96s55.666 -37 90.999 -37c34.667 0 64.834 12.333 90.501 37s38.5 56.667 38.5 96s-12.833 71.5 -38.5 96.5s-55.834 37.5 -90.501 37.5z" />
    <glyph glyph-name="OE" unicode="&#x152;" horiz-adv-x="1152" 
d="M771 417l303 -0.00195312v-130h-303v-157h328v-130h-466v90c-26 -30 -58.167 -53.667 -96.5 -71s-79.166 -26 -122.499 -26c-98.667 0 -182.667 34.833 -252 104.5s-104 153.834 -104 252.501s34.667 182.834 104 252.501s153.333 104.5 252 104.5
c43.333 0 84.166 -8.66699 122.499 -26s70.5 -41 96.5 -71v90h466v-130h-328v-153zM414 122.998c62.667 0 114.833 21.167 156.5 63.5s62.5 96.833 62.5 163.5c0 66 -21 120.333 -63 163s-94 64 -156 64s-113.833 -21.333 -155.5 -64s-62.5 -97 -62.5 -163
c0 -66.667 20.833 -121.167 62.5 -163.5s93.5 -63.5 155.5 -63.5z" />
    <glyph glyph-name="oe" unicode="&#x153;" horiz-adv-x="980" 
d="M693 507c52 0 96.6699 -11.832 134.003 -35.499s65.666 -56.834 84.999 -99.501c10 -22.667 15.833 -49.167 17.5 -79.5s-1.5 -56.166 -9.5 -77.499h-349c0 -32.667 11.833 -58.334 35.5 -77.001s53.5 -28 89.5 -28c54.667 0 104.667 11.667 150 35l67 -73
c-70 -52 -142.333 -78 -217 -78c-87.333 0 -152.333 31.667 -195 95c-20.667 -29.333 -47.834 -52.5 -81.501 -69.5s-69.834 -25.5 -108.501 -25.5c-71.333 0 -131.833 25 -181.5 75s-74.5 110.333 -74.5 181c0 71.333 25 132 75 182s110.333 75 181 75
c38 0 73.833 -8.5 107.5 -25.5s60.834 -40.167 81.501 -69.5c43.333 63.333 107.666 95 192.999 95zM692.003 391.001c-32.667 0 -59.833 -9.66797 -81.5 -29.001s-33.167 -41.666 -34.5 -66.999h229c0 14.667 -4 28 -12 40c-20 37.333 -53.667 56 -101 56zM311.004 384
c-34.667 0 -64.832 -12.5 -90.499 -37.5s-38.5 -57.167 -38.5 -96.5s12.667 -71.333 38 -96s55.666 -37 90.999 -37c34.667 0 64.834 12.333 90.501 37s38.5 56.667 38.5 96s-12.833 71.5 -38.5 96.5s-55.834 37.5 -90.501 37.5z" />
    <glyph glyph-name="Racute" unicode="&#x154;" horiz-adv-x="703" 
d="M348 750h-96l85 146h136zM105 700l238 0.000976562c95.333 0 169.833 -24.833 223.5 -74.5s80.5 -112.834 80.5 -189.501c0 -52 -13.167 -97 -39.5 -135s-63.5 -66.333 -111.5 -85c29.333 -18.667 64 -59.667 104 -123l60 -93h-155l-45 70
c-28 42.667 -49.833 70 -65.5 82s-40.5 18.333 -74.5 19h-77v-171h-138v700zM243 570.001v-269.001h113c48 0 86.667 11.333 116 34s44 56.334 44 101.001c0 42.667 -14.833 75.667 -44.5 99s-68.167 35 -115.5 35h-113z" />
    <glyph glyph-name="racute" unicode="&#x155;" horiz-adv-x="436" 
d="M249 545h-96l85 146h136zM403 384h-51c-45.333 0 -80 -14.167 -104 -42.5s-36 -66.833 -36 -115.5v-226h-127v500h85l14 -108c40.667 76.667 106.667 115 198 115h21v-123z" />
    <glyph glyph-name="Rcommaaccent" unicode="&#x156;" horiz-adv-x="703" 
d="M105 700l238 0.000976562c95.333 0 169.833 -24.833 223.5 -74.5s80.5 -112.834 80.5 -189.501c0 -52 -13.167 -97 -39.5 -135s-63.5 -66.333 -111.5 -85c29.333 -18.667 64 -59.667 104 -123l60 -93h-155l-45 70c-28 42.667 -49.833 70 -65.5 82s-40.5 18.333 -74.5 19
h-77v-171h-138v700zM243 570.001v-269.001h113c48 0 86.667 11.333 116 34s44 56.334 44 101.001c0 42.667 -14.833 75.667 -44.5 99s-68.167 35 -115.5 35h-113zM320 -215h-96l85 146h136z" />
    <glyph glyph-name="rcommaaccent" unicode="&#x157;" horiz-adv-x="436" 
d="M403 384h-51c-45.333 0 -80 -14.167 -104 -42.5s-36 -66.833 -36 -115.5v-226h-127v500h85l14 -108c40.667 76.667 106.667 115 198 115h21v-123zM213 -215h-96l85 146h136z" />
    <glyph glyph-name="Rcaron" unicode="&#x158;" horiz-adv-x="703" 
d="M416 750h-127l-88 146h96l56 -51l55 52h96zM105 700l238 0.000976562c95.333 0 169.833 -24.833 223.5 -74.5s80.5 -112.834 80.5 -189.501c0 -52 -13.167 -97 -39.5 -135s-63.5 -66.333 -111.5 -85c29.333 -18.667 64 -59.667 104 -123l60 -93h-155l-45 70
c-28 42.667 -49.833 70 -65.5 82s-40.5 18.333 -74.5 19h-77v-171h-138v700zM243 570.001v-269.001h113c48 0 86.667 11.333 116 34s44 56.334 44 101.001c0 42.667 -14.833 75.667 -44.5 99s-68.167 35 -115.5 35h-113z" />
    <glyph glyph-name="rcaron" unicode="&#x159;" horiz-adv-x="436" 
d="M304 545h-127l-88 146h96l56 -52l55 52h96zM403 384h-51c-45.333 0 -80 -14.167 -104 -42.5s-36 -66.833 -36 -115.5v-226h-127v500h85l14 -108c40.667 76.667 106.667 115 198 115h21v-123z" />
    <glyph glyph-name="Sacute" unicode="&#x15a;" horiz-adv-x="680" 
d="M347 750h-96l85 146h136zM328 707l8.00098 0.000976562c48 0 95.667 -10.5 143 -31.5s89.666 -49.167 126.999 -84.5l-90 -83c-25.333 20.667 -55.166 37.334 -89.499 50.001s-64.5 19 -90.5 19h-8c-29.333 0 -56.833 -6.16699 -82.5 -18.5s-38.5 -32.166 -38.5 -59.499
c0 -21.333 10.167 -37 30.5 -47s49.166 -17.333 86.499 -22l56 -6c78 -9.33301 138.833 -30.5 182.5 -63.5s65.5 -83.5 65.5 -151.5c0 -65.333 -25.5 -117.5 -76.5 -156.5s-116.167 -58.833 -195.5 -59.5h-6c-66 0 -124.5 13.167 -175.5 39.5s-91.5 60.166 -121.5 101.499
l90 83c18 -25.333 45 -47.333 81 -66s78 -28 126 -28h6c40.667 0.666992 73.167 8.66699 97.5 24s36.5 36 36.5 62c0 28 -11 48.167 -33 60.5s-54 21.166 -96 26.499l-55 6c-158 18.667 -237 82.667 -237 192c0 64 24.5 115.167 73.5 153.5s110.833 58.166 185.5 59.499z
" />
    <glyph glyph-name="sacute" unicode="&#x15b;" horiz-adv-x="552" 
d="M300 545h-96l85 146h136zM270 507l7.99902 0.00195312c41.333 0 80.833 -8.33301 118.5 -25s67.5 -39.334 89.5 -68.001l-72 -67c-15.333 17.333 -36.166 31.5 -62.499 42.5s-50.5 16.5 -72.5 16.5h-8c-23.333 -0.666992 -42 -5.33398 -56 -14.001s-21 -20.667 -21 -36
c0 -14 6.16699 -24.333 18.5 -31s33.833 -11.334 64.5 -14.001l34 -4c123.333 -8.66699 185 -60.667 185 -156c0 -45.333 -18.333 -82.833 -55 -112.5s-85.334 -44.5 -146.001 -44.5h-5c-49.333 0 -95.666 8.83301 -138.999 26.5s-75.333 40.834 -96 69.501l72 68
c14.667 -17.333 37.667 -31.833 69 -43.5s62.333 -17.5 93 -17.5h5c50 0 75 16.333 75 49c0 18.667 -6.66699 31.667 -20 39s-35.333 12.333 -66 15l-28 3c-125.333 10.667 -188 59 -188 145c0 49.333 19.333 88 58 116s87 42.333 145 43z" />
    <glyph glyph-name="Scedilla" unicode="&#x15e;" horiz-adv-x="680" 
d="M353 -7l-8.99902 -27.0029c20 6.66699 39.167 5.16699 57.5 -4.5s27.5 -28.167 27.5 -55.5c0 -31.333 -13.833 -52.5 -41.5 -63.5s-62.167 -5.5 -103.5 16.5v34c17.333 -9.33301 32.5 -12.166 45.5 -8.49902s19.5 11.834 19.5 24.501c0 12 -4.5 19.667 -13.5 23
s-23.833 1 -44.5 -7l25 69c-58 4.66699 -109.5 19.834 -154.5 45.501s-81.167 57.167 -108.5 94.5l90 83c18 -25.333 45 -47.333 81 -66s78 -28 126 -28h6c40.667 0.666992 73.167 8.66699 97.5 24s36.5 36 36.5 62c0 28 -11 48.167 -33 60.5s-54 21.166 -96 26.499l-55 6
c-158 18.667 -237 82.667 -237 192c0 64 24.5 115.167 73.5 153.5s110.833 58.166 185.5 59.499h8c48 0 95.667 -10.5 143 -31.5s89.666 -49.167 126.999 -84.5l-90 -83c-25.333 20.667 -55.166 37.334 -89.499 50.001s-64.5 19 -90.5 19h-8
c-29.333 0 -56.833 -6.16699 -82.5 -18.5s-38.5 -32.166 -38.5 -59.499c0 -21.333 10.167 -37 30.5 -47s49.166 -17.333 86.499 -22l56 -6c78 -9.33301 138.833 -30.5 182.5 -63.5s65.5 -83.5 65.5 -151.5c0 -65.333 -25.5 -117.5 -76.5 -156.5
s-116.167 -58.833 -195.5 -59.5h-3z" />
    <glyph glyph-name="scedilla" unicode="&#x15f;" horiz-adv-x="552" 
d="M496 151c0 -45.333 -18.333 -82.832 -55 -112.499s-85.334 -44.5 -146.001 -44.5l-9 -28c20 6.66699 39.167 5.16699 57.5 -4.5s27.5 -28.167 27.5 -55.5c0 -31.333 -13.833 -52.5 -41.5 -63.5s-62.167 -5.5 -103.5 16.5v34c17.333 -9.33301 32.5 -12.166 45.5 -8.49902
s19.5 11.834 19.5 24.501c0 12 -4.5 19.667 -13.5 23s-23.833 1 -44.5 -7l25 70c-43.333 3.33301 -83.5 13.5 -120.5 30.5s-64.5 38.5 -82.5 64.5l72 68c14.667 -17.333 37.667 -31.833 69 -43.5s62.333 -17.5 93 -17.5h5c50 0 75 16.333 75 49
c0 18.667 -6.66699 31.667 -20 39s-35.333 12.333 -66 15l-28 3c-125.333 10.667 -188 59 -188 145c0 49.333 19.333 88 58 116s87 42.333 145 43h8c41.333 0 80.833 -8.33301 118.5 -25s67.5 -39.334 89.5 -68.001l-72 -67c-15.333 17.333 -36.166 31.5 -62.499 42.5
s-50.5 16.5 -72.5 16.5h-8c-23.333 -0.666992 -42 -5.33398 -56 -14.001s-21 -20.667 -21 -36c0 -14 6.16699 -24.333 18.5 -31s33.833 -11.334 64.5 -14.001l34 -4c123.333 -8.66699 185 -60.667 185 -156z" />
    <glyph glyph-name="Scaron" unicode="&#x160;" horiz-adv-x="680" 
d="M397 750h-127l-88 146h96l56 -51l55 52h96zM328 707l8.00098 0.000976562c48 0 95.667 -10.5 143 -31.5s89.666 -49.167 126.999 -84.5l-90 -83c-25.333 20.667 -55.166 37.334 -89.499 50.001s-64.5 19 -90.5 19h-8c-29.333 0 -56.833 -6.16699 -82.5 -18.5
s-38.5 -32.166 -38.5 -59.499c0 -21.333 10.167 -37 30.5 -47s49.166 -17.333 86.499 -22l56 -6c78 -9.33301 138.833 -30.5 182.5 -63.5s65.5 -83.5 65.5 -151.5c0 -65.333 -25.5 -117.5 -76.5 -156.5s-116.167 -58.833 -195.5 -59.5h-6c-66 0 -124.5 13.167 -175.5 39.5
s-91.5 60.166 -121.5 101.499l90 83c18 -25.333 45 -47.333 81 -66s78 -28 126 -28h6c40.667 0.666992 73.167 8.66699 97.5 24s36.5 36 36.5 62c0 28 -11 48.167 -33 60.5s-54 21.166 -96 26.499l-55 6c-158 18.667 -237 82.667 -237 192c0 64 24.5 115.167 73.5 153.5
s110.833 58.166 185.5 59.499z" />
    <glyph glyph-name="scaron" unicode="&#x161;" horiz-adv-x="552" 
d="M339 545h-127l-88 146h96l56 -52l55 52h96zM270 507l7.99902 0.00195312c41.333 0 80.833 -8.33301 118.5 -25s67.5 -39.334 89.5 -68.001l-72 -67c-15.333 17.333 -36.166 31.5 -62.499 42.5s-50.5 16.5 -72.5 16.5h-8c-23.333 -0.666992 -42 -5.33398 -56 -14.001
s-21 -20.667 -21 -36c0 -14 6.16699 -24.333 18.5 -31s33.833 -11.334 64.5 -14.001l34 -4c123.333 -8.66699 185 -60.667 185 -156c0 -45.333 -18.333 -82.833 -55 -112.5s-85.334 -44.5 -146.001 -44.5h-5c-49.333 0 -95.666 8.83301 -138.999 26.5
s-75.333 40.834 -96 69.501l72 68c14.667 -17.333 37.667 -31.833 69 -43.5s62.333 -17.5 93 -17.5h5c50 0 75 16.333 75 49c0 18.667 -6.66699 31.667 -20 39s-35.333 12.333 -66 15l-28 3c-125.333 10.667 -188 59 -188 145c0 49.333 19.333 88 58 116s87 42.333 145 43z
" />
    <glyph glyph-name="Tcedilla" unicode="&#x162;" horiz-adv-x="608" 
d="M315 0l-11 -34.002c20 6.66699 39.167 5.16699 57.5 -4.5s27.5 -28.167 27.5 -55.5c0 -31.333 -13.833 -52.5 -41.5 -63.5s-62.167 -5.5 -103.5 16.5v34c17.333 -9.33301 32.5 -12.166 45.5 -8.49902s19.5 11.834 19.5 24.501c0 12 -4.5 19.667 -13.5 23
s-23.833 1 -44.5 -7l27 75h-43v570h-192v130h522v-130h-192v-570h-58z" />
    <glyph glyph-name="tcedilla" unicode="&#x163;" horiz-adv-x="359" 
d="M188 0l-11 -34.002c20 6.66699 39.167 5.16699 57.5 -4.5s27.5 -28.167 27.5 -55.5c0 -31.333 -13.833 -52.5 -41.5 -63.5s-62.167 -5.5 -103.5 16.5v34c17.333 -9.33301 32.5 -12.166 45.5 -8.49902s19.5 11.834 19.5 24.501c0 12 -4.33301 19.667 -13 23
s-23.667 1 -45 -7l27 75h-31v377h-65v123h65v168h128v-168h65v-123h-65v-377h-60z" />
    <glyph glyph-name="Tcaron" unicode="&#x164;" horiz-adv-x="608" 
d="M369 750h-127l-88 146h96l56 -51l55 52h96zM373 570v-570h-138v570h-192v130h522v-130h-192z" />
    <glyph glyph-name="tcaron" unicode="&#x165;" horiz-adv-x="551" 
d="M381 554h-96l85 146h136zM248 377v-377h-128v377h-65v123h65v168h128v-168h65v-123h-65z" />
    <glyph glyph-name="Tbar" unicode="&#x166;" horiz-adv-x="608" 
d="M373 570v-162h62v-94h-62v-314h-138v314h-63v94h63v162h-192v130h522v-130h-192z" />
    <glyph glyph-name="tbar" unicode="&#x167;" horiz-adv-x="359" 
d="M248 377v-64h65v-123h-65v-190h-128v190h-65v123h65v64h-65v123h65v168h128v-168h65v-123h-65z" />
    <glyph glyph-name="Umacron" unicode="&#x16a;" horiz-adv-x="768" 
d="M519 750h-262v94h262v-94zM673 700v-406c0 -96 -27.667 -170.167 -83 -222.5s-122.333 -78.5 -201 -78.5c-79.333 0 -146.5 26.167 -201.5 78.5s-82.5 126.5 -82.5 222.5v406h138v-403c0 -60.667 14 -104.834 42 -132.501s62.667 -41.5 104 -41.5s76 13.833 104 41.5
s42 71.834 42 132.501v403h138z" />
    <glyph glyph-name="umacron" unicode="&#x16b;" horiz-adv-x="645" 
d="M450 545h-262v93h262v-93zM564 0l-84.999 -0.000976562l-9 78c-34.667 -56.667 -91.667 -85 -171 -85c-70.667 0 -124.834 21.833 -162.501 65.5s-56.5 102.834 -56.5 177.501v264h127v-256c0 -85.333 37.333 -128 112 -128c37.333 0 66.333 11.5 87 34.5
s31 57.833 31 104.5v245h127v-500z" />
    <glyph glyph-name="Uring" unicode="&#x16e;" horiz-adv-x="768" 
d="M389 939c26 0 48.333 -9.33301 67 -28s28 -40.667 28 -66c0 -26.667 -9.33301 -49.167 -28 -67.5s-41 -27.5 -67 -27.5s-48.167 9.16699 -66.5 27.5s-27.5 40.833 -27.5 67.5c0 25.333 9.16699 47.333 27.5 66s40.5 28 66.5 28zM389 877
c-9.33301 0 -17 -3.16699 -23 -9.5s-9 -13.833 -9 -22.5c0 -9.33301 3 -17.166 9 -23.499s13.667 -9.5 23 -9.5c8.66699 0 16.167 3.16699 22.5 9.5s9.5 14.166 9.5 23.499c0 8.66699 -3.16699 16.167 -9.5 22.5s-13.833 9.5 -22.5 9.5zM673 700v-406
c0 -96 -27.667 -170.167 -83 -222.5s-122.333 -78.5 -201 -78.5c-79.333 0 -146.5 26.167 -201.5 78.5s-82.5 126.5 -82.5 222.5v406h138v-403c0 -60.667 14 -104.834 42 -132.501s62.667 -41.5 104 -41.5s76 13.833 104 41.5s42 71.834 42 132.501v403h138z" />
    <glyph glyph-name="uring" unicode="&#x16f;" horiz-adv-x="645" 
d="M319 734c26 0 48.333 -9.33301 67 -28s28 -41 28 -67s-9.33301 -48.167 -28 -66.5s-41 -27.5 -67 -27.5s-48.167 9.16699 -66.5 27.5s-27.5 40.5 -27.5 66.5s9.16699 48.333 27.5 67s40.5 28 66.5 28zM319 672c-9.33301 0 -17 -3.16699 -23 -9.5s-9 -14.166 -9 -23.499
s3 -17.166 9 -23.499s13.667 -9.5 23 -9.5c8.66699 0 16.167 3.16699 22.5 9.5s9.5 14.166 9.5 23.499s-3.16699 17.166 -9.5 23.499s-13.833 9.5 -22.5 9.5zM564 0l-84.999 -0.000976562l-9 78c-34.667 -56.667 -91.667 -85 -171 -85
c-70.667 0 -124.834 21.833 -162.501 65.5s-56.5 102.834 -56.5 177.501v264h127v-256c0 -85.333 37.333 -128 112 -128c37.333 0 66.333 11.5 87 34.5s31 57.833 31 104.5v245h127v-500z" />
    <glyph glyph-name="Uhungarumlaut" unicode="&#x170;" horiz-adv-x="768" 
d="M306 750h-96l85 146h136zM479 750h-96l85 146h136zM673 700v-406c0 -96 -27.667 -170.167 -83 -222.5s-122.333 -78.5 -201 -78.5c-79.333 0 -146.5 26.167 -201.5 78.5s-82.5 126.5 -82.5 222.5v406h138v-403c0 -60.667 14 -104.834 42 -132.501s62.667 -41.5 104 -41.5
s76 13.833 104 41.5s42 71.834 42 132.501v403h138z" />
    <glyph glyph-name="uhungarumlaut" unicode="&#x171;" horiz-adv-x="646" 
d="M235 545h-96l85 146h136zM409 545h-96l85 146h136zM564 0l-84.999 -0.000976562l-9 78c-34.667 -56.667 -91.667 -85 -171 -85c-70.667 0 -124.834 21.833 -162.501 65.5s-56.5 102.834 -56.5 177.501v264h127v-256c0 -85.333 37.333 -128 112 -128
c37.333 0 66.333 11.5 87 34.5s31 57.833 31 104.5v245h127v-500z" />
    <glyph glyph-name="Uogonek" unicode="&#x172;" horiz-adv-x="768" 
d="M673 700v-406c0 -82 -20.667 -148.333 -62 -199s-94.333 -82.667 -159 -96c-39.333 -16 -59 -33.333 -59 -52c0 -21.333 15 -32 45 -32h16v-79h-9c-30 0 -55 6.33301 -75 19s-30 31.667 -30 57c0 33.333 21.333 60.333 64 81h-15c-79.333 0 -146.5 26.167 -201.5 78.5
s-82.5 126.5 -82.5 222.5v406h138v-403c0 -60.667 14 -104.834 42 -132.501s62.667 -41.5 104 -41.5s76 13.833 104 41.5s42 71.834 42 132.501v403h138z" />
    <glyph glyph-name="uogonek" unicode="&#x173;" horiz-adv-x="645" 
d="M564 500l0.000976562 -500c-40.667 -16.667 -61 -34.334 -61 -53.001c0 -21.333 15 -32 45 -32h16v-79h-9c-30 0 -55 6.33301 -75 19s-30 31.667 -30 57c0 36.667 26 66 78 88h-49l-9 78c-34.667 -56.667 -91.667 -85 -171 -85c-70.667 0 -124.834 21.833 -162.501 65.5
s-56.5 102.834 -56.5 177.501v264h127v-256c0 -85.333 37.333 -128 112 -128c37.333 0 66.333 11.5 87 34.5s31 57.833 31 104.5v245h127z" />
    <glyph glyph-name="Wcircumflex" unicode="&#x174;" horiz-adv-x="1155" 
d="M633 750l-55 52l-56 -52h-96l88 147h127l88 -147h-96zM830 0h-82l-170 421l-171 -421h-81l-283 700h153l169 -446l172 446h81l172 -446l169 446h153z" />
    <glyph glyph-name="wcircumflex" unicode="&#x175;" horiz-adv-x="955" 
d="M533 545l-55 52l-56 -52h-96l88 146h127l88 -146h-96zM695 0h-81l-136 297l-136 -297h-82l-227 500h135l133 -313l136 313h82l136 -313l133 313h135z" />
    <glyph glyph-name="Ycircumflex" unicode="&#x176;" horiz-adv-x="722" 
d="M417 750l-55 52l-56 -52h-96l88 147h127l88 -147h-96zM430 0h-138v234l-249 466h157l162 -296l161 296h157l-250 -466v-234z" />
    <glyph glyph-name="ycircumflex" unicode="&#x177;" horiz-adv-x="650" 
d="M387 691l88 -146h-96l-55 52l-56 -52h-96l88 146h127zM212 500l0.00195312 -240.999c0 -85.333 37.333 -128 112 -128c37.333 0 66.333 11.5 87 34.5s31 57.833 31 104.5v230h127v-436c0 -74.667 -22.667 -135.834 -68 -183.501s-106 -71.5 -182 -71.5
c-85.333 0 -159.333 26 -222 78l72 77c53.333 -26.667 103.333 -39.667 150 -39c37.333 0 67 9.5 89 28.5s33 46.167 33 81.5v32c-30.667 -39.333 -76.334 -59 -137.001 -59c-70.667 0 -124.834 22 -162.501 66s-56.5 103.333 -56.5 178v248h127z" />
    <glyph glyph-name="Ydieresis" unicode="&#x178;" horiz-adv-x="722" 
d="M253 750c-20.667 0 -38.167 6.33301 -52.5 19s-21.5 28.334 -21.5 47.001s7.16699 34.334 21.5 47.001s31.833 19 52.5 19c21.333 0 39.166 -6.33301 53.499 -19s21.5 -28.334 21.5 -47.001s-7.16699 -34.334 -21.5 -47.001s-32.166 -19 -53.499 -19zM468 750
c-20.667 0 -38.167 6.33301 -52.5 19s-21.5 28.334 -21.5 47.001s7.16699 34.334 21.5 47.001s31.833 19 52.5 19c21.333 0 39.166 -6.33301 53.499 -19s21.5 -28.334 21.5 -47.001s-7.16699 -34.334 -21.5 -47.001s-32.166 -19 -53.499 -19zM430 0h-138v234l-249 466h157
l162 -296l161 296h157l-250 -466v-234z" />
    <glyph glyph-name="Zacute" unicode="&#x179;" horiz-adv-x="626" 
d="M330 750h-96l85 146h136zM574 0h-521v81l321 489h-294v130h485v-82l-321 -488h330v-130z" />
    <glyph glyph-name="zacute" unicode="&#x17a;" horiz-adv-x="535" 
d="M277 545h-96l85 146h136zM480 0h-425l1 96l233 281h-215v123h396l-1 -96l-233 -281h244v-123z" />
    <glyph glyph-name="Zdotaccent" unicode="&#x17b;" horiz-adv-x="626" 
d="M309 750c-20.667 0 -38.167 6.33301 -52.5 19s-21.5 28.334 -21.5 47.001s7.16699 34.334 21.5 47.001s31.833 19 52.5 19c21.333 0 39.166 -6.33301 53.499 -19s21.5 -28.334 21.5 -47.001s-7.16699 -34.334 -21.5 -47.001s-32.166 -19 -53.499 -19zM574 0h-521v81
l321 489h-294v130h485v-82l-321 -488h330v-130z" />
    <glyph glyph-name="zdotaccent" unicode="&#x17c;" horiz-adv-x="535" 
d="M261 545c-20.667 0 -38.167 6.33301 -52.5 19s-21.5 28.334 -21.5 47.001s7.16699 34.334 21.5 47.001s31.833 19 52.5 19c21.333 0 39.166 -6.33301 53.499 -19s21.5 -28.334 21.5 -47.001s-7.16699 -34.334 -21.5 -47.001s-32.166 -19 -53.499 -19zM480 0h-425l1 96
l233 281h-215v123h396l-1 -96l-233 -281h244v-123z" />
    <glyph glyph-name="Zcaron" unicode="&#x17d;" horiz-adv-x="626" 
d="M377 750h-127l-88 146h96l56 -51l55 52h96zM574 0h-521v81l321 489h-294v130h485v-82l-321 -488h330v-130z" />
    <glyph glyph-name="zcaron" unicode="&#x17e;" horiz-adv-x="535" 
d="M329 545h-127l-88 146h96l56 -52l55 52h96zM469 404l-233 -281h244v-123h-425l1 96l233 281h-215v123h396z" />
    <glyph glyph-name="Acaron" unicode="&#x1cd;" horiz-adv-x="739" 
d="M432 750h-127l-88 146h96l56 -51l55 52h96zM696 0h-153l-50 128h-247l-50 -128h-153l288 700h81zM294 259h151l-75 191z" />
    <glyph glyph-name="acaron" unicode="&#x1ce;" 
d="M375 545h-127l-88 146h96l56 -52l55 52h96zM557 0h-85l-7 71c-40.667 -51.333 -96 -77 -166 -77s-128.167 24.667 -174.5 74s-69.5 110 -69.5 182s23.167 132.833 69.5 182.5s104.5 74.5 174.5 74.5s125.333 -26 166 -78l7 71h85v-500zM311 117
c34.667 0 64.8359 12.333 90.5029 37s38.5 56.667 38.5 96s-12.833 71.5 -38.5 96.5s-55.834 37.5 -90.501 37.5s-64.834 -12.5 -90.501 -37.5s-38.5 -57.167 -38.5 -96.5s12.667 -71.333 38 -96s55.666 -37 90.999 -37z" />
    <glyph glyph-name="Icaron" unicode="&#x1cf;" horiz-adv-x="536" 
d="M334 750h-127l-88 146h96l56 -51l55 52h96zM421 570h-84v-440h84v-130h-306v130h84v440h-84v130h306v-130z" />
    <glyph glyph-name="icaron" unicode="&#x1d0;" horiz-adv-x="479" 
d="M305 545h-127l-88 146h96l56 -52l55 52h96zM305 0h-127v500h127v-500z" />
    <glyph glyph-name="Ocaron" unicode="&#x1d1;" horiz-adv-x="829" 
d="M477 750h-127l-88 146h96l56 -51l55 52h96zM414 707c98.667 0 182.834 -34.833 252.501 -104.5s104.5 -153.834 104.5 -252.501s-34.833 -182.834 -104.5 -252.501s-153.834 -104.5 -252.501 -104.5s-182.667 34.833 -252 104.5s-104 153.834 -104 252.501
s34.667 182.834 104 252.501s153.333 104.5 252 104.5zM414 577c-62 0 -113.834 -21.333 -155.501 -64s-62.5 -97 -62.5 -163c0 -66.667 20.833 -121.167 62.5 -163.5s93.5 -63.5 155.5 -63.5c62.667 0 114.834 21.167 156.501 63.5s62.5 96.833 62.5 163.5
c0 66 -21 120.333 -63 163s-94 64 -156 64z" />
    <glyph glyph-name="ocaron" unicode="&#x1d2;" horiz-adv-x="623" 
d="M375 544l-127 1l-88 147h96l56 -53l55 52h96zM311 507c71.333 0 132 -25.167 182 -75.5s75 -110.833 75 -181.5s-25 -131 -75 -181s-110.667 -75 -182 -75s-131.833 25 -181.5 75s-74.5 110.333 -74.5 181c0 71.333 25 132 75 182s110.333 75 181 75zM311 384
c-34.667 0 -64.832 -12.5 -90.499 -37.5s-38.5 -57.167 -38.5 -96.5s12.667 -71.333 38 -96s55.666 -37 90.999 -37c34.667 0 64.834 12.333 90.501 37s38.5 56.667 38.5 96s-12.833 71.5 -38.5 96.5s-55.834 37.5 -90.501 37.5z" />
    <glyph glyph-name="Ucaron" unicode="&#x1d3;" horiz-adv-x="768" 
d="M452 750h-127l-88 146h96l56 -51l55 52h96zM673 700v-406c0 -96 -27.667 -170.167 -83 -222.5s-122.333 -78.5 -201 -78.5c-79.333 0 -146.5 26.167 -201.5 78.5s-82.5 126.5 -82.5 222.5v406h138v-403c0 -60.667 14 -104.834 42 -132.501s62.667 -41.5 104 -41.5
s76 13.833 104 41.5s42 71.834 42 132.501v403h138z" />
    <glyph glyph-name="ucaron" unicode="&#x1d4;" horiz-adv-x="645" 
d="M382 545h-127l-88 146h96l56 -52l55 52h96zM564 0l-84.999 -0.000976562l-9 78c-34.667 -56.667 -91.667 -85 -171 -85c-70.667 0 -124.834 21.833 -162.501 65.5s-56.5 102.834 -56.5 177.501v264h127v-256c0 -85.333 37.333 -128 112 -128
c37.333 0 66.333 11.5 87 34.5s31 57.833 31 104.5v245h127v-500z" />
    <glyph glyph-name="Udieresismacron" unicode="&#x1d5;" horiz-adv-x="768" 
d="M521 913h-262v93h262v-93zM281 750c-20.667 0 -38.167 6.33301 -52.5 19s-21.5 28.334 -21.5 47.001s7.16699 34.334 21.5 47.001s31.833 19 52.5 19c21.333 0 39.166 -6.33301 53.499 -19s21.5 -28.334 21.5 -47.001s-7.16699 -34.334 -21.5 -47.001
s-32.166 -19 -53.499 -19zM497 750c-20.667 0 -38.167 6.33301 -52.5 19s-21.5 28.334 -21.5 47.001s7.16699 34.334 21.5 47.001s31.833 19 52.5 19c21.333 0 39.166 -6.33301 53.499 -19s21.5 -28.334 21.5 -47.001s-7.16699 -34.334 -21.5 -47.001
s-32.166 -19 -53.499 -19zM673 700v-406c0 -96 -27.667 -170.167 -83 -222.5s-122.333 -78.5 -201 -78.5c-79.333 0 -146.5 26.167 -201.5 78.5s-82.5 126.5 -82.5 222.5v406h138v-403c0 -60.667 14 -104.834 42 -132.501s62.667 -41.5 104 -41.5s76 13.833 104 41.5
s42 71.834 42 132.501v403h138z" />
    <glyph glyph-name="udieresismacron" unicode="&#x1d6;" horiz-adv-x="645" 
d="M454 705h-262v94h262v-94zM214 677c21.333 0 39.166 -6.33301 53.499 -19s21.5 -28.334 21.5 -47.001s-7.16699 -34.334 -21.5 -47.001s-32.166 -19 -53.499 -19c-20.667 0 -38.167 6.33301 -52.5 19s-21.5 28.334 -21.5 47.001s7.16699 34.334 21.5 47.001
s31.833 19 52.5 19zM429 677c21.333 0 39.166 -6.33301 53.499 -19s21.5 -28.334 21.5 -47.001s-7.16699 -34.334 -21.5 -47.001s-32.166 -19 -53.499 -19c-20.667 0 -38.167 6.33301 -52.5 19s-21.5 28.334 -21.5 47.001s7.16699 34.334 21.5 47.001s31.833 19 52.5 19z
M564 0l-84.999 -0.000976562l-9 78c-34.667 -56.667 -91.667 -85 -171 -85c-70.667 0 -124.834 21.833 -162.501 65.5s-56.5 102.834 -56.5 177.501v264h127v-256c0 -85.333 37.333 -128 112 -128c37.333 0 66.333 11.5 87 34.5s31 57.833 31 104.5v245h127v-500z" />
    <glyph glyph-name="Udieresisacute" unicode="&#x1d7;" horiz-adv-x="768" 
d="M397 913h-96l85 146h136zM281 750c-20.667 0 -38.167 6.33301 -52.5 19s-21.5 28.334 -21.5 47.001s7.16699 34.334 21.5 47.001s31.833 19 52.5 19c21.333 0 39.166 -6.33301 53.499 -19s21.5 -28.334 21.5 -47.001s-7.16699 -34.334 -21.5 -47.001
s-32.166 -19 -53.499 -19zM497 750c-20.667 0 -38.167 6.33301 -52.5 19s-21.5 28.334 -21.5 47.001s7.16699 34.334 21.5 47.001s31.833 19 52.5 19c21.333 0 39.166 -6.33301 53.499 -19s21.5 -28.334 21.5 -47.001s-7.16699 -34.334 -21.5 -47.001
s-32.166 -19 -53.499 -19zM673 700v-406c0 -96 -27.667 -170.167 -83 -222.5s-122.333 -78.5 -201 -78.5c-79.333 0 -146.5 26.167 -201.5 78.5s-82.5 126.5 -82.5 222.5v406h138v-403c0 -60.667 14 -104.834 42 -132.501s62.667 -41.5 104 -41.5s76 13.833 104 41.5
s42 71.834 42 132.501v403h138z" />
    <glyph glyph-name="udieresisacute" unicode="&#x1d8;" horiz-adv-x="645" 
d="M352 705h-96l85 147h136zM214 677c21.333 0 39.168 -6.33301 53.501 -19s21.5 -28.334 21.5 -47.001s-7.33301 -34.5 -22 -47.5s-32.334 -19.5 -53.001 -19.5s-38.167 6.5 -52.5 19.5s-21.5 28.833 -21.5 47.5s7.16699 34.334 21.5 47.001s31.833 19 52.5 19z
M429.002 677c21.333 0 39.168 -6.33301 53.501 -19s21.5 -28.334 21.5 -47.001s-7.33301 -34.5 -22 -47.5s-32.334 -19.5 -53.001 -19.5s-38.167 6.5 -52.5 19.5s-21.5 28.833 -21.5 47.5s7.16699 34.334 21.5 47.001s31.833 19 52.5 19zM564.004 0l-84.999 -0.000976562
l-9 78c-34.667 -56.667 -91.667 -85 -171 -85c-70.667 0 -124.834 21.833 -162.501 65.5s-56.5 102.834 -56.5 177.501v264h127v-256c0 -85.333 37.333 -128 112 -128c37.333 0 66.333 11.5 87 34.5s31 57.833 31 104.5v245h127v-500z" />
    <glyph glyph-name="Udieresiscaron" unicode="&#x1d9;" horiz-adv-x="768" 
d="M389 1007l55 52h96l-88 -146h-127l-88 147h96zM281 882c21.333 0 39.166 -6.33301 53.499 -19s21.5 -28.334 21.5 -47.001s-7.16699 -34.334 -21.5 -47.001s-32.166 -19 -53.499 -19c-20.667 0 -38.167 6.33301 -52.5 19s-21.5 28.334 -21.5 47.001
s7.16699 34.334 21.5 47.001s31.833 19 52.5 19zM497 882c21.333 0 39.166 -6.33301 53.499 -19s21.5 -28.334 21.5 -47.001s-7.16699 -34.334 -21.5 -47.001s-32.166 -19 -53.499 -19c-20.667 0 -38.167 6.33301 -52.5 19s-21.5 28.334 -21.5 47.001
s7.16699 34.334 21.5 47.001s31.833 19 52.5 19zM673 700v-406c0 -96 -27.667 -170.167 -83 -222.5s-122.333 -78.5 -201 -78.5c-79.333 0 -146.5 26.167 -201.5 78.5s-82.5 126.5 -82.5 222.5v406h138v-403c0 -60.667 14 -104.834 42 -132.501s62.667 -41.5 104 -41.5
s76 13.833 104 41.5s42 71.834 42 132.501v403h138z" />
    <glyph glyph-name="udieresiscaron" unicode="&#x1da;" horiz-adv-x="645" 
d="M382 705h-127l-88 147h96l56 -52l55 52h96zM214 677c21.333 0 39.166 -6.33301 53.499 -19s21.5 -28.334 21.5 -47.001s-7.16699 -34.334 -21.5 -47.001s-32.166 -19 -53.499 -19c-20.667 0 -38.167 6.33301 -52.5 19s-21.5 28.334 -21.5 47.001
s7.16699 34.334 21.5 47.001s31.833 19 52.5 19zM429 677c21.333 0 39.166 -6.33301 53.499 -19s21.5 -28.334 21.5 -47.001s-7.16699 -34.334 -21.5 -47.001s-32.166 -19 -53.499 -19c-20.667 0 -38.167 6.33301 -52.5 19s-21.5 28.334 -21.5 47.001
s7.16699 34.334 21.5 47.001s31.833 19 52.5 19zM564 0l-84.999 -0.000976562l-9 78c-34.667 -56.667 -91.667 -85 -171 -85c-70.667 0 -124.834 21.833 -162.501 65.5s-56.5 102.834 -56.5 177.501v264h127v-256c0 -85.333 37.333 -128 112 -128
c37.333 0 66.333 11.5 87 34.5s31 57.833 31 104.5v245h127v-500z" />
    <glyph glyph-name="Udieresisgrave" unicode="&#x1db;" horiz-adv-x="768" 
d="M390 1059l85 -146h-96l-125 146h136zM281 750c-20.667 0 -38.167 6.33301 -52.5 19s-21.5 28.334 -21.5 47.001s7.16699 34.334 21.5 47.001s31.833 19 52.5 19c21.333 0 39.166 -6.33301 53.499 -19s21.5 -28.334 21.5 -47.001s-7.16699 -34.334 -21.5 -47.001
s-32.166 -19 -53.499 -19zM497 750c-20.667 0 -38.167 6.33301 -52.5 19s-21.5 28.334 -21.5 47.001s7.16699 34.334 21.5 47.001s31.833 19 52.5 19c21.333 0 39.166 -6.33301 53.499 -19s21.5 -28.334 21.5 -47.001s-7.16699 -34.334 -21.5 -47.001
s-32.166 -19 -53.499 -19zM673 700v-406c0 -96 -27.667 -170.167 -83 -222.5s-122.333 -78.5 -201 -78.5c-79.333 0 -146.5 26.167 -201.5 78.5s-82.5 126.5 -82.5 222.5v406h138v-403c0 -60.667 14 -104.834 42 -132.501s62.667 -41.5 104 -41.5s76 13.833 104 41.5
s42 71.834 42 132.501v403h138z" />
    <glyph glyph-name="udieresisgrave" unicode="&#x1dc;" horiz-adv-x="645" 
d="M396 705h-96l-125 146h136zM214 677c21.333 0 39.166 -6.33301 53.499 -19s21.5 -28.334 21.5 -47.001s-7.16699 -34.334 -21.5 -47.001s-32.166 -19 -53.499 -19c-20.667 0 -38.167 6.33301 -52.5 19s-21.5 28.334 -21.5 47.001s7.16699 34.334 21.5 47.001
s31.833 19 52.5 19zM429 677c21.333 0 39.166 -6.33301 53.499 -19s21.5 -28.334 21.5 -47.001s-7.16699 -34.334 -21.5 -47.001s-32.166 -19 -53.499 -19c-20.667 0 -38.167 6.33301 -52.5 19s-21.5 28.334 -21.5 47.001s7.16699 34.334 21.5 47.001s31.833 19 52.5 19z
M564 0l-84.999 -0.000976562l-9 78c-34.667 -56.667 -91.667 -85 -171 -85c-70.667 0 -124.834 21.833 -162.501 65.5s-56.5 102.834 -56.5 177.501v264h127v-256c0 -85.333 37.333 -128 112 -128c37.333 0 66.333 11.5 87 34.5s31 57.833 31 104.5v245h127v-500z" />
    <glyph glyph-name="Scommaaccent" unicode="&#x218;" horiz-adv-x="680" 
d="M328 707l8.00098 0.000976562c48 0 95.667 -10.5 143 -31.5s89.666 -49.167 126.999 -84.5l-90 -83c-25.333 20.667 -55.166 37.334 -89.499 50.001s-64.5 19 -90.5 19h-8c-29.333 0 -56.833 -6.16699 -82.5 -18.5s-38.5 -32.166 -38.5 -59.499
c0 -21.333 10.167 -37 30.5 -47s49.166 -17.333 86.499 -22l56 -6c78 -9.33301 138.833 -30.5 182.5 -63.5s65.5 -83.5 65.5 -151.5c0 -65.333 -25.5 -117.5 -76.5 -156.5s-116.167 -58.833 -195.5 -59.5h-6c-66 0 -124.5 13.167 -175.5 39.5s-91.5 60.166 -121.5 101.499
l90 83c18 -25.333 45 -47.333 81 -66s78 -28 126 -28h6c40.667 0.666992 73.167 8.66699 97.5 24s36.5 36 36.5 62c0 28 -11 48.167 -33 60.5s-54 21.166 -96 26.499l-55 6c-158 18.667 -237 82.667 -237 192c0 64 24.5 115.167 73.5 153.5s110.833 58.166 185.5 59.499z
M312.001 -214.999h-96l85 146h136z" />
    <glyph glyph-name="scommaaccent" unicode="&#x219;" horiz-adv-x="552" 
d="M270 507l7.99902 0.00195312c41.333 0 80.833 -8.33301 118.5 -25s67.5 -39.334 89.5 -68.001l-72 -67c-15.333 17.333 -36.166 31.5 -62.499 42.5s-50.5 16.5 -72.5 16.5h-8c-23.333 -0.666992 -42 -5.33398 -56 -14.001s-21 -20.667 -21 -36
c0 -14 6.16699 -24.333 18.5 -31s33.833 -11.334 64.5 -14.001l34 -4c123.333 -8.66699 185 -60.667 185 -156c0 -45.333 -18.333 -82.833 -55 -112.5s-85.334 -44.5 -146.001 -44.5h-5c-49.333 0 -95.666 8.83301 -138.999 26.5s-75.333 40.834 -96 69.501l72 68
c14.667 -17.333 37.667 -31.833 69 -43.5s62.333 -17.5 93 -17.5h5c50 0 75 16.333 75 49c0 18.667 -6.66699 31.667 -20 39s-35.333 12.333 -66 15l-28 3c-125.333 10.667 -188 59 -188 145c0 49.333 19.333 88 58 116s87 42.333 145 43zM240.999 -214.998h-96l85 146h136z
" />
    <glyph glyph-name="uni021A" unicode="&#x21a;" horiz-adv-x="608" 
d="M373 570v-570h-138v570h-192v130h522v-130h-192zM273 -215h-96l85 146h136z" />
    <glyph glyph-name="uni021B" unicode="&#x21b;" horiz-adv-x="359" 
d="M249 377v-377h-128v377h-65v123h65v168h128v-168h65v-123h-65zM157 -215h-96l85 146h136z" />
    <glyph glyph-name="circumflex" unicode="&#x2c6;" horiz-adv-x="414" 
d="M262 590l-55 52l-56 -52h-96l88 147h127l88 -147h-96z" />
    <glyph glyph-name="caron" unicode="&#x2c7;" horiz-adv-x="414" 
d="M270 589h-127l-88 146h96l56 -52l55 53h96z" />
    <glyph glyph-name="breve" unicode="&#x2d8;" horiz-adv-x="425" 
d="M282 737h87.001c0 -43.333 -15.167 -79.5 -45.5 -108.5s-67.5 -43.5 -111.5 -43.5s-81.167 14.5 -111.5 43.5s-45.5 65.167 -45.5 108.5h88c0 -18 6.66699 -33.167 20 -45.5s29.666 -18.5 48.999 -18.5s35.833 6.16699 49.5 18.5s20.5 27.5 20.5 45.5z" />
    <glyph glyph-name="dotaccent" unicode="&#x2d9;" horiz-adv-x="259" 
d="M129 606c-20.667 0 -38.165 6.5 -52.498 19.5s-21.5 28.833 -21.5 47.5s7.16699 34.334 21.5 47.001s31.833 19 52.5 19c21.333 0 39.166 -6.33301 53.499 -19s21.5 -28.334 21.5 -47.001s-7.33301 -34.5 -22 -47.5s-32.334 -19.5 -53.001 -19.5z" />
    <glyph glyph-name="ring" unicode="&#x2da;" horiz-adv-x="299" 
d="M149 739c26 0 48.333 -9.33301 67 -28s28 -40.667 28 -66c0 -26.667 -9.33301 -49.167 -28 -67.5s-41 -27.5 -67 -27.5s-48.167 9.16699 -66.5 27.5s-27.5 40.833 -27.5 67.5c0 25.333 9.16699 47.333 27.5 66s40.5 28 66.5 28zM150 677
c-9.33301 0 -17 -3.16699 -23 -9.5s-9 -14.166 -9 -23.499c0 -8.66699 3 -16.167 9 -22.5s13.667 -9.5 23 -9.5c8.66699 0 16.167 3.16699 22.5 9.5s9.5 13.833 9.5 22.5c0 9.33301 -3.16699 17.166 -9.5 23.499s-13.833 9.5 -22.5 9.5z" />
    <glyph glyph-name="ogonek" unicode="&#x2db;" horiz-adv-x="225" 
d="M133 0l36 0.000976562c-40.667 -16.667 -61 -34.334 -61 -53.001c0 -21.333 15 -32 45 -32h16v-79h-9c-30 0 -55 6.33301 -75 19s-30 31.667 -30 57c0 36.667 26 66 78 88z" />
    <glyph glyph-name="tilde" unicode="&#x2dc;" horiz-adv-x="428" 
d="M372 700l-26.999 -68.999c-12 -32.667 -33 -50.667 -63 -54c-20.667 -2 -39.334 3 -56.001 15l-41 29c-13.333 9.33301 -26.333 13.333 -39 12c-12 -2 -21 -10.333 -27 -25l-7 -19h-57l27 70c12 32 32.667 49.667 62 53c21.333 2.66699 40.333 -2.33301 57 -15l41 -29
c12 -8 24 -12 36 -12c14 1.33301 24 9.66602 30 24.999l7 19h57z" />
    <glyph glyph-name="hungarumlaut" unicode="&#x2dd;" horiz-adv-x="506" 
d="M151 591h-96l85 146h136zM325 591h-96l85 146h136z" />
    <glyph glyph-name="commaaccentcomb" unicode="&#x326;" horiz-adv-x="0" 
d="M151 -250h-96l85 146h136z" />
    <glyph glyph-name="uni0401" unicode="&#x401;" horiz-adv-x="624" 
d="M227 750c-20.667 0 -38.167 6.33301 -52.5 19s-21.5 28.334 -21.5 47.001s7.16699 34.334 21.5 47.001s31.833 19 52.5 19c21.333 0 39.166 -6.33301 53.499 -19s21.5 -28.334 21.5 -47.001s-7.16699 -34.334 -21.5 -47.001s-32.166 -19 -53.499 -19zM443 750
c-20.667 0 -38.167 6.33301 -52.5 19s-21.5 28.334 -21.5 47.001s7.16699 34.334 21.5 47.001s31.833 19 52.5 19c21.333 0 39.166 -6.33301 53.499 -19s21.5 -28.334 21.5 -47.001s-7.16699 -34.334 -21.5 -47.001s-32.166 -19 -53.499 -19zM243 417h303v-130h-303v-157
h328v-130h-466v700h466v-130h-328v-153z" />
    <glyph glyph-name="uni0410" unicode="&#x410;" horiz-adv-x="739" 
d="M246 128l-50 -128h-153l288 700h81l284 -700h-153l-50 128h-247zM370 450l-76 -191h151z" />
    <glyph glyph-name="uni0411" unicode="&#x411;" horiz-adv-x="699" 
d="M243 442h163.999c78.667 0 138.334 -19.833 179.001 -59.5s61 -93.5 61 -161.5c0 -68.667 -20 -122.667 -60 -162s-100 -59 -180 -59h-302v700h468v-130h-330v-128zM242.999 130h166c71.333 0 107 30.333 107 91s-35.667 91 -107 91h-166v-182z" />
    <glyph glyph-name="uni0412" unicode="&#x412;" horiz-adv-x="692" 
d="M105 700l270 0.00390625c48 0 88.667 -6.16699 122 -18.5s57.833 -28.833 73.5 -49.5s26.5 -40.334 32.5 -59.001s9 -38.334 9 -59.001c0 -74.667 -30.667 -124.334 -92 -149.001c36.667 -8.66699 65.667 -27.834 87 -57.501s32 -65.167 32 -106.5
c0 -134 -86.333 -201 -259 -201h-275v700zM243 570.004v-150h147c33.333 0 57 7.5 71 22.5s21 32.5 21 52.5c0 50 -30.667 75 -92 75h-147zM243 301.004v-170h166c35.333 0 60.833 7.83301 76.5 23.5s23.5 36.167 23.5 61.5c0 24 -8.16699 44.167 -24.5 60.5
s-41.5 24.5 -75.5 24.5h-166z" />
    <glyph glyph-name="uni0413" unicode="&#x413;" horiz-adv-x="601" 
d="M243 570v-570h-138v700h453v-130h-315z" />
    <glyph glyph-name="uni0414" unicode="&#x414;" horiz-adv-x="807" 
d="M769 -129h-138v129h-456v-129h-138v259h93l234 570h82l231 -570h92v-259zM403 447l-125 -317h251z" />
    <glyph glyph-name="uni0415" unicode="&#x415;" horiz-adv-x="635" 
d="M243 417h303v-130h-303v-157h328v-130h-466v700h466v-130h-328v-153z" />
    <glyph glyph-name="uni0416" unicode="&#x416;" horiz-adv-x="1089" 
d="M891 0l-143.999 225.001c-16.667 24.667 -31 41.334 -43 50.001s-29.333 13 -52 13h-38v-288h-138v288h-38c-23.333 0 -41 -4.33301 -53 -13s-26 -25.334 -42 -50.001l-144 -225h-156l171 267c32 49.333 60.333 79.666 85 90.999c-21.333 11.333 -48.333 39.333 -81 84
l-164 258h156l137 -216c16.667 -24.667 31 -41.334 43 -50.001s29.333 -13 52 -13h34v279h138v-279h33c22.667 0 40.167 4.33301 52.5 13s26.5 25.334 42.5 50.001l138 216h156l-165 -258c-30.667 -43.333 -57.334 -71.333 -80.001 -84c24.667 -12 53 -42.333 85 -91
l171 -267h-156z" />
    <glyph glyph-name="uni0417" unicode="&#x417;" horiz-adv-x="639" 
d="M255 425l88 0.000976562c33.333 0 57 7.5 71 22.5s21 32.5 21 52.5c0 51.333 -32.667 77 -98 77h-5c-28 0 -59.5 -6.33301 -94.5 -19s-65.167 -29.334 -90.5 -50.001l-90 83c37.333 35.333 79.666 63.5 126.999 84.5s95 31.5 143 31.5h7
c36 -0.666992 68.167 -5.33398 96.5 -14.001s50.666 -19.5 66.999 -32.5s29.833 -28.167 40.5 -45.5s17.834 -33.666 21.501 -48.999s5.5 -31 5.5 -47c0 -38 -8.66699 -71.333 -26 -100s-40.333 -48.667 -69 -60c36 -8.66699 64.5 -27.667 85.5 -57
s31.5 -64.666 31.5 -105.999c0 -60.667 -20.833 -109.5 -62.5 -146.5s-107.167 -55.833 -196.5 -56.5h-7c-52.667 0 -103.334 11.667 -152.001 35s-90.667 54.333 -126 93l90 83c24.667 -24 54.834 -43.5 90.501 -58.5s69.834 -22.5 102.501 -22.5h5
c83.333 1.33301 125 30.666 125 87.999c0 24 -8.16699 44.167 -24.5 60.5s-41.5 24.5 -75.5 24.5h-101v129z" />
    <glyph glyph-name="uni0418" unicode="&#x418;" horiz-adv-x="741" 
d="M646 0h-138v441l-332 -441h-81v700h138v-441l331 441h82v-700z" />
    <glyph glyph-name="uni0419" unicode="&#x419;" horiz-adv-x="741" 
d="M371 750c-44 0 -81.166 14.333 -111.499 43s-45.5 64.667 -45.5 108h88c0 -18 6.66699 -33.167 20 -45.5s29.666 -18.5 48.999 -18.5s35.833 6.16699 49.5 18.5s20.5 27.5 20.5 45.5h87c0 -43.333 -15.167 -79.333 -45.5 -108s-67.5 -43 -111.5 -43zM646.001 0h-138v441
l-332 -441h-81v700h138v-441l331 441h82v-700z" />
    <glyph glyph-name="uni041A" unicode="&#x41a;" horiz-adv-x="745" 
d="M546 0l-143.999 224.997c-16 24.667 -30 41.334 -42 50.001s-29.667 13 -53 13h-64v-288h-138v700h138v-279h60c22.667 0 40.167 4.33301 52.5 13s26.5 25.334 42.5 50.001l138 216h156l-165 -258c-32.667 -44.667 -59.667 -72.667 -81 -84
c25.333 -11.333 53.666 -41.666 84.999 -90.999l171 -267h-156z" />
    <glyph glyph-name="uni041B" unicode="&#x41b;" horiz-adv-x="739" 
d="M370 447l-174 -447h-153l288 700h81l284 -700h-153z" />
    <glyph glyph-name="uni041C" unicode="&#x41c;" horiz-adv-x="897" 
d="M792 0h-138v447l-211 -262l-210 262v-447h-138v700h82l266 -334l267 334h82v-700z" />
    <glyph glyph-name="uni041D" unicode="&#x41d;" horiz-adv-x="738" 
d="M642 0h-138v287h-271v-287h-138v700h138v-283h271v283h138v-700z" />
    <glyph glyph-name="uni041E" unicode="&#x41e;" horiz-adv-x="829" 
d="M414 707c98.667 0 182.834 -34.833 252.501 -104.5s104.5 -153.834 104.5 -252.501s-34.833 -182.834 -104.5 -252.501s-153.834 -104.5 -252.501 -104.5s-182.667 34.833 -252 104.5s-104 153.834 -104 252.501s34.667 182.834 104 252.501s153.333 104.5 252 104.5z
M414 577c-62 0 -113.834 -21.333 -155.501 -64s-62.5 -97 -62.5 -163c0 -66.667 20.833 -121.167 62.5 -163.5s93.5 -63.5 155.5 -63.5c62.667 0 114.834 21.167 156.501 63.5s62.5 96.833 62.5 163.5c0 66 -21 120.333 -63 163s-94 64 -156 64z" />
    <glyph glyph-name="uni041F" unicode="&#x41f;" horiz-adv-x="730" 
d="M635 0h-138v570h-264v-570h-138v700h540v-700z" />
    <glyph glyph-name="uni0420" unicode="&#x420;" horiz-adv-x="705" 
d="M105 700l230 -0.000976562c96 0 172 -25.167 228 -75.5s84 -114.833 84 -193.5c0 -79.333 -28 -144.166 -84 -194.499s-132 -75.5 -228 -75.5h-92v-161h-138v700zM243 290.999h103c48.667 0 89.167 11.667 121.5 35s48.5 58.333 48.5 105c0 44.667 -16.333 79 -49 103
s-73 36 -121 36h-103v-279z" />
    <glyph glyph-name="uni0421" unicode="&#x421;" horiz-adv-x="731" 
d="M414 707c104 0 192 -38.6689 264 -116.002l-90 -83c-47.333 46 -105.333 69 -174 69c-62 0 -113.833 -21.333 -155.5 -64s-62.5 -97 -62.5 -163c0 -66.667 20.833 -121.167 62.5 -163.5s93.5 -63.5 155.5 -63.5c70 0 128 23 174 69l90 -83
c-72 -77.333 -160 -116 -264 -116c-98.667 0 -182.667 34.833 -252 104.5s-104 153.834 -104 252.501s34.667 182.834 104 252.501s153.333 104.5 252 104.5z" />
    <glyph glyph-name="uni0422" unicode="&#x422;" horiz-adv-x="608" 
d="M373 570v-570h-138v570h-192v130h522v-130h-192z" />
    <glyph glyph-name="uni0423" unicode="&#x423;" horiz-adv-x="751" 
d="M309 0h-156l144 253l-254 447h157l176 -305l175 305h157z" />
    <glyph glyph-name="uni0424" unicode="&#x424;" horiz-adv-x="1132" 
d="M800 663c82.667 0 149.167 -27.167 199.5 -81.5s75.5 -122.5 75.5 -204.5s-25.167 -150.167 -75.5 -204.5s-116.833 -81.5 -199.5 -81.5c-70 0 -125 25 -165 75v-166h-138v166c-40 -50 -94.667 -75 -164 -75c-82.667 0 -149.167 27.167 -199.5 81.5
s-75.5 122.5 -75.5 204.5s25.167 150.167 75.5 204.5s116.833 81.5 199.5 81.5c70 0 124.667 -25 164 -75v112h138v-112c40 50 95 75 165 75zM346 222c43.333 0 79.333 14.5 108 43.5s43 66.167 43 111.5s-14.5 82.666 -43.5 111.999s-64.833 44 -107.5 44
s-78.334 -14.667 -107.001 -44s-43 -66.666 -43 -111.999s14.333 -82.5 43 -111.5s64.334 -43.5 107.001 -43.5zM786 222c43.333 0 79.333 14.5 108 43.5s43 66.167 43 111.5s-14.5 82.666 -43.5 111.999s-64.833 44 -107.5 44s-78.334 -14.667 -107.001 -44
s-43 -66.666 -43 -111.999s14.333 -82.5 43 -111.5s64.334 -43.5 107.001 -43.5z" />
    <glyph glyph-name="uni0425" unicode="&#x425;" horiz-adv-x="726" 
d="M362 238l-161 -238h-158l243 365l-227 335h157l149 -214l146 214h157l-227 -341l243 -359h-157z" />
    <glyph glyph-name="uni0426" unicode="&#x426;" horiz-adv-x="770" 
d="M728 -129h-138v129h-495v700h138v-570h267v570h138v-570h90v-259z" />
    <glyph glyph-name="uni0427" unicode="&#x427;" horiz-adv-x="703" 
d="M598 0h-138.001v244c-31.333 -46.667 -82 -70 -152 -70c-34.667 0 -66.667 4.83301 -96 14.5s-56.166 25 -80.499 46s-43.5 50.167 -57.5 87.5s-21 81 -21 131v247h138v-254c0 -94.667 46.333 -142 139 -142c36 0 66.667 11.5 92 34.5s38 59.167 38 108.5v253h138v-700z
" />
    <glyph glyph-name="uni0428" unicode="&#x428;" horiz-adv-x="1050" 
d="M947 0h-852v700h138v-570h219v570h138v-570h219v570h138v-700z" />
    <glyph glyph-name="uni0429" unicode="&#x429;" horiz-adv-x="1123" 
d="M1036 -129h-138v129h-803v700h138v-570h219v570h138v-570h219v570h138v-570h89v-259z" />
    <glyph glyph-name="uni042A" unicode="&#x42a;" horiz-adv-x="716" 
d="M271 442h155.999c78.667 0 138.334 -19.833 179.001 -59.5s61 -93.5 61 -161.5c0 -68.667 -20 -122.667 -60 -162s-100 -59 -180 -59h-294v570h-90v130h228v-258zM269.999 130h159c71.333 0 107 30.333 107 91s-35.667 91 -107 91h-159v-182z" />
    <glyph glyph-name="uni042B" unicode="&#x42b;" horiz-adv-x="947" 
d="M236 442h157c78.667 0 138.167 -19.833 178.5 -59.5s60.5 -93.5 60.5 -161.5c0 -68.667 -19.833 -122.667 -59.5 -162s-99.5 -59 -179.5 -59h-295v700h138v-258zM841 0h-138v700h138v-700zM236 130h159c71.333 0 107 30.333 107 91s-35.667 91 -107 91h-159v-182z" />
    <glyph glyph-name="uni042C" unicode="&#x42c;" horiz-adv-x="682" 
d="M236 442h157c78.667 0 138.167 -19.833 178.5 -59.5s60.5 -93.5 60.5 -161.5c0 -68.667 -19.833 -122.667 -59.5 -162s-99.5 -59 -179.5 -59h-295v700h138v-258zM236 130h159c71.333 0 107 30.333 107 91s-35.667 91 -107 91h-159v-182z" />
    <glyph glyph-name="uni042D" unicode="&#x42d;" horiz-adv-x="731" 
d="M317 707c98.667 0 182.667 -34.8311 252 -104.498s104 -153.834 104 -252.501s-34.667 -182.834 -104 -252.501s-153.333 -104.5 -252 -104.5c-104 0 -192 38.667 -264 116l90 83c46 -46 104 -69 174 -69c50.667 0 94.834 15 132.501 45s62.167 69 73.5 117h-249v130h249
c-11.333 48 -35.833 87 -73.5 117s-81.834 45 -132.501 45c-68.667 0 -126.667 -23 -174 -69l-90 83c72 77.333 160 116 264 116z" />
    <glyph glyph-name="uni042E" unicode="&#x42e;" horiz-adv-x="1094" 
d="M679 707c98.667 0 182.834 -34.8311 252.501 -104.498s104.5 -153.834 104.5 -252.501s-34.833 -182.834 -104.5 -252.501s-153.834 -104.5 -252.501 -104.5c-86.667 0 -162.667 27.667 -228 83s-105.333 125 -120 209h-95v-285h-138v700h138v-285h95
c14.667 83.333 54.667 152.833 120 208.5s141.333 83.5 228 83.5zM679 123.002c62.667 0 114.833 21.167 156.5 63.5s62.5 96.833 62.5 163.5c0 66 -21 120.333 -63 163s-94 64 -156 64s-113.833 -21.333 -155.5 -64s-62.5 -97 -62.5 -163
c0 -66.667 20.833 -121.167 62.5 -163.5s93.5 -63.5 155.5 -63.5z" />
    <glyph glyph-name="uni042F" unicode="&#x42f;" horiz-adv-x="703" 
d="M598 0l-138.003 -0.000976562v171h-77c-33.333 -0.666992 -58.166 -7 -74.499 -19s-38.166 -39.333 -65.499 -82l-45 -70h-155l60 93c42 64.667 77 105.667 105 123c-48 18.667 -85.167 47 -111.5 85s-39.5 83 -39.5 135c0 76.667 26.833 139.834 80.5 189.501
s127.834 74.5 222.501 74.5h238v-700zM459.997 569.999l-113 0.000976562c-47.333 0 -85.833 -11.667 -115.5 -35s-44.5 -56.333 -44.5 -99c0 -44.667 14.667 -78.334 44 -101.001s68 -34 116 -34h113v269z" />
    <glyph glyph-name="uni0430" unicode="&#x430;" 
d="M557 0h-85l-7 71c-40.667 -51.333 -96 -77 -166 -77s-128.167 24.667 -174.5 74s-69.5 110 -69.5 182s23.167 132.833 69.5 182.5s104.5 74.5 174.5 74.5s125.333 -26 166 -78l7 71h85v-500zM311 117c34.667 0 64.8359 12.333 90.5029 37s38.5 56.667 38.5 96
s-12.833 71.5 -38.5 96.5s-55.834 37.5 -90.501 37.5s-64.834 -12.5 -90.501 -37.5s-38.5 -57.167 -38.5 -96.5s12.667 -71.333 38 -96s55.666 -37 90.999 -37z" />
    <glyph glyph-name="uni0431" unicode="&#x431;" horiz-adv-x="623" 
d="M427 700l126.998 -0.000976562c0 -50 -14.167 -87.333 -42.5 -112s-76.5 -37 -144.5 -37h-32c-47.333 0 -84.666 -10.833 -111.999 -32.5s-41 -52.5 -41 -92.5v-22c14 24 34.833 43.333 62.5 58s57.834 22 90.501 22c70 0 126.333 -22 169 -66s64 -100 64 -168
c0 -73.333 -23.667 -134.666 -71 -183.999s-109.333 -74 -186 -74c-73.333 0 -134.333 24.667 -183 74s-73 114.333 -73 195v120c0 88 25.167 156.167 75.5 204.5s121.833 72.5 214.5 72.5c32 0 53.667 3 65 9s17 17 17 33zM310.998 366.999
c-34.667 0 -64.8311 -12 -90.498 -36s-38.5 -54 -38.5 -90c0 -36.667 12.667 -66.834 38 -90.501s55.666 -35.5 90.999 -35.5s65.666 11.833 90.999 35.5s38 53.834 38 90.501c0 36 -13 66 -39 90s-56 36 -90 36z" />
    <glyph glyph-name="uni0432" unicode="&#x432;" horiz-adv-x="599" 
d="M85 500h262c114.667 0 172 -45.333 172 -136c0 -52.667 -22.667 -87 -68 -103c60.667 -14 91 -51.333 91 -112c0 -52.667 -15.333 -90.667 -46 -114s-80 -35 -148 -35h-263v500zM212 392v-89h128c34.667 0.666992 52 15.667 52 45s-18 44 -54 44h-126zM212 108h139
c42.667 0 64 17.333 64 52c0 33.333 -20.667 50.333 -62 51h-141v-103z" />
    <glyph glyph-name="uni0433" unicode="&#x433;" horiz-adv-x="497" 
d="M212 377v-377h-127v500h375v-123h-248z" />
    <glyph glyph-name="uni0434" unicode="&#x434;" horiz-adv-x="648" 
d="M616 -93h-127v93h-329v-93h-127v216h76l174 377h82l174 -377h77v-216zM324 313l-85 -190h170z" />
    <glyph glyph-name="uni0435" unicode="&#x435;" horiz-adv-x="610" 
d="M307 507c106 0 179.333 -44.999 220 -134.999c10 -22 15.667 -48.5 17 -79.5s-1.66699 -56.833 -9 -77.5h-349c0 -32.667 11.833 -58.334 35.5 -77.001s53.167 -28 88.5 -28c55.333 0 105.666 11.667 150.999 35l67 -73c-70 -52 -142.667 -78 -218 -78
s-136.666 24.167 -183.999 72.5s-71 109.5 -71 183.5c0 73.333 23 134.5 69 183.5s107 73.5 183 73.5zM307 391.001c-32.667 0 -59.833 -9.66797 -81.5 -29.001s-33.167 -41.666 -34.5 -66.999h229c0 14.667 -4 28 -12 40c-20 37.333 -53.667 56 -101 56z" />
    <glyph glyph-name="uni0436" unicode="&#x436;" horiz-adv-x="896" 
d="M722 0l-86 133.001c-16 24.667 -30.167 41.334 -42.5 50.001s-29.833 13 -52.5 13h-29v-196h-127v196h-30c-22.667 0 -40.167 -4.33301 -52.5 -13s-26.5 -25.334 -42.5 -50.001l-86 -133h-141l120 183c28 42.667 53.333 67.667 76 75
c-22 9.33301 -45.667 33.666 -71 72.999l-112 169h141l78 -119c16 -24.667 30 -41.334 42 -50.001s29.333 -13 52 -13h26v182h127v-182h25c23.333 0 41 4.33301 53 13s26 25.334 42 50.001l77 119h141l-111 -169c-26.667 -40.667 -50.667 -65 -72 -73
c22 -6.66699 47.333 -31.667 76 -75l120 -183h-141z" />
    <glyph glyph-name="uni0437" unicode="&#x437;" horiz-adv-x="547" 
d="M396 261c30.667 -6.66699 53.835 -19.665 69.502 -38.998s23.5 -43.666 23.5 -72.999c0 -50 -18.5 -88.333 -55.5 -115s-86.5 -40.334 -148.5 -41.001h-9c-48.667 0 -94.167 9.83301 -136.5 29.5s-72.166 41.5 -89.499 65.5l69 75c42.667 -36 94 -54.333 154 -55h9
c24 0.666992 43.333 6 58 16s22 24.333 22 43c0 33.333 -21 50.333 -63 51h-80v78h68c34 0 51 14.667 51 44c0 33.333 -22.333 50.666 -67 51.999h-6c-44.667 0 -88.667 -16.667 -132 -50l-67 73c25.333 26 56.166 47.833 92.499 65.5s75.166 26.5 116.499 26.5h7
c51.333 -0.666992 94.666 -13.334 129.999 -38.001s53 -58 53 -100c0 -54.667 -23 -90.667 -69 -108z" />
    <glyph glyph-name="uni0438" unicode="&#x438;" horiz-adv-x="635" 
d="M550 0h-127v295l-256 -295h-82v500h127v-295l256 295h82v-500z" />
    <glyph glyph-name="uni0439" unicode="&#x439;" horiz-adv-x="635" 
d="M319 543c-44 0 -81.166 14.5 -111.499 43.5s-45.5 65.167 -45.5 108.5h88c0 -18 6.66699 -33.167 20 -45.5s29.666 -18.5 48.999 -18.5s35.833 6.16699 49.5 18.5s20.5 27.5 20.5 45.5h87c0 -43.333 -15.167 -79.5 -45.5 -108.5s-67.5 -43.5 -111.5 -43.5zM550.001 0
h-127v295l-256 -295h-82v500h127v-295l256 295h82v-500z" />
    <glyph glyph-name="uni043A" unicode="&#x43a;" horiz-adv-x="599" 
d="M433 0l-86 132.997c-16 24.667 -30.167 41.334 -42.5 50.001s-29.833 13 -52.5 13h-35v-196h-127v500h127v-182h31c22.667 0 40 4.33301 52 13s26 25.334 42 50.001l78 119h141l-112 -169c-25.333 -39.333 -49 -63.666 -71 -72.999c22.667 -7.33301 48 -32.333 76 -75
l120 -183h-141z" />
    <glyph glyph-name="uni043B" unicode="&#x43b;" horiz-adv-x="609" 
d="M305 313l-137 -313h-135l231 500h82l231 -500h-134z" />
    <glyph glyph-name="uni043C" unicode="&#x43c;" horiz-adv-x="705" 
d="M619 0h-127v295l-140 -161l-140 161v-295h-127v500h82l185 -214l185 214h82v-500z" />
    <glyph glyph-name="uni043D" unicode="&#x43d;" 
d="M557 0h-127v192h-218v-192h-127v500h127v-185h218v185h127v-500z" />
    <glyph glyph-name="uni043E" unicode="&#x43e;" horiz-adv-x="623" 
d="M311 507c71.333 0 132 -25.167 182 -75.5s75 -110.833 75 -181.5s-25 -131 -75 -181s-110.667 -75 -182 -75s-131.833 25 -181.5 75s-74.5 110.333 -74.5 181c0 71.333 25 132 75 182s110.333 75 181 75zM311 384c-34.667 0 -64.832 -12.5 -90.499 -37.5
s-38.5 -57.167 -38.5 -96.5s12.667 -71.333 38 -96s55.666 -37 90.999 -37c34.667 0 64.834 12.333 90.501 37s38.5 56.667 38.5 96s-12.833 71.5 -38.5 96.5s-55.834 37.5 -90.501 37.5z" />
    <glyph glyph-name="uni043F" unicode="&#x43f;" 
d="M557 0h-127v377h-218v-377h-127v500h472v-500z" />
    <glyph glyph-name="uni0440" unicode="&#x440;" horiz-adv-x="648" 
d="M349 506c70 0 128 -24.667 174 -74s69 -110 69 -182s-23 -132.833 -69 -182.5s-104 -74.5 -174 -74.5c-54 0 -98 18.667 -132 56v-233h-127v684h85l7 -71c41.333 51.333 97 77 167 77zM336 383c-34.667 0 -64.8359 -12.333 -90.5029 -37s-38.5 -56.667 -38.5 -96
s12.833 -71.5 38.5 -96.5s55.834 -37.5 90.501 -37.5s64.834 12.5 90.501 37.5s38.5 57.167 38.5 96.5s-12.667 71.333 -38 96s-55.666 37 -90.999 37z" />
    <glyph glyph-name="uni0441" unicode="&#x441;" horiz-adv-x="559" 
d="M311 506c80 0 145.667 -30.667 197 -92l-76 -82c-36.667 34 -77 51 -121 51c-35.333 0 -65.666 -12.333 -90.999 -37s-38 -56.667 -38 -96s12.667 -71.333 38 -96s55.666 -37 90.999 -37c44 0 84.333 17 121 51l76 -82c-51.333 -61.333 -117 -92 -197 -92
c-71.333 0 -131.833 25 -181.5 75s-74.5 110.333 -74.5 181s24.833 131 74.5 181s110.167 75 181.5 75z" />
    <glyph glyph-name="uni0442" unicode="&#x442;" horiz-adv-x="503" 
d="M315 377v-377h-126v377h-156v123h438v-123h-156z" />
    <glyph glyph-name="uni0443" unicode="&#x443;" horiz-adv-x="650" 
d="M569 500l0.00195312 -435.999c0 -74.667 -22.667 -135.834 -68 -183.501s-106 -71.5 -182 -71.5c-85.333 0 -159.333 26 -222 78l72 77c53.333 -26.667 103.333 -39.667 150 -39c37.333 0 67 9.5 89 28.5s33 46.167 33 81.5v32c-30.667 -39.333 -76.334 -59 -137.001 -59
c-70.667 0 -124.834 22 -162.501 66s-56.5 103.333 -56.5 178v248h127v-241c0 -85.333 37.333 -128 112 -128c37.333 0 66.333 11.5 87 34.5s31 57.833 31 104.5v230h127z" />
    <glyph glyph-name="uni0444" unicode="&#x444;" horiz-adv-x="988" 
d="M688 506c70 0 128.167 -24.667 174.5 -74s69.5 -110 69.5 -182s-23.167 -132.833 -69.5 -182.5s-104.5 -74.5 -174.5 -74.5c-53.333 0 -97 18.667 -131 56v-227h-127v227c-34 -37.333 -77.667 -56 -131 -56c-70 0 -128.167 24.833 -174.5 74.5s-69.5 110.5 -69.5 182.5
s23.167 132.667 69.5 182s104.5 74 174.5 74c67.333 0 121.333 -24.667 162 -74l4 68h58l4 -67c40 48.667 93.667 73 161 73zM311 116c34.667 0 64.832 12.5 90.499 37.5s38.5 57.167 38.5 96.5s-12.833 71.333 -38.5 96s-55.834 37 -90.501 37
c-35.333 0 -65.666 -12.333 -90.999 -37s-38 -56.667 -38 -96s12.833 -71.5 38.5 -96.5s55.834 -37.5 90.501 -37.5zM675.998 116c34.667 0 64.832 12.5 90.499 37.5s38.5 57.167 38.5 96.5s-12.667 71.333 -38 96s-55.666 37 -90.999 37
c-34.667 0 -64.834 -12.333 -90.501 -37s-38.5 -56.667 -38.5 -96s12.833 -71.5 38.5 -96.5s55.834 -37.5 90.501 -37.5z" />
    <glyph glyph-name="uni0445" unicode="&#x445;" horiz-adv-x="600" 
d="M299 154l-119 -154h-147l195 260l-184 240h147l111 -138l108 138h146l-184 -245l196 -255h-147z" />
    <glyph glyph-name="uni0446" unicode="&#x446;" horiz-adv-x="664" 
d="M631 -93h-127v93h-419v500h127v-377h211v377h127v-377h81v-216z" />
    <glyph glyph-name="uni0447" unicode="&#x447;" horiz-adv-x="648" 
d="M563 0l-127.001 -0.000976562v160c-32 -34 -76.667 -51 -134 -51c-75.333 0 -131.166 22.333 -167.499 67s-54.5 105.334 -54.5 182.001v142h127v-134c0 -46.667 9 -80.667 27 -102s47.333 -32 88 -32c76 0 114 42 114 126v142h127v-500z" />
    <glyph glyph-name="uni0448" unicode="&#x448;" horiz-adv-x="916" 
d="M831 0h-746v500h127v-377h183v377h126v-377h183v377h127v-500z" />
    <glyph glyph-name="uni0449" unicode="&#x449;" horiz-adv-x="945" 
d="M912 -93h-127v93h-700v500h127v-377h183v377h126v-377h183v377h127v-377h81v-216z" />
    <glyph glyph-name="uni044A" unicode="&#x44a;" horiz-adv-x="651" 
d="M245 356l116 0.00195312c41.333 0 76.666 -5.66699 105.999 -17s51 -26.333 65 -45s24 -37.334 30 -56.001s9 -38.667 9 -60s-3 -41.333 -9 -60s-16 -37.334 -30 -56.001s-35.667 -33.667 -65 -45s-64.666 -17 -105.999 -17h-243v377h-85v123h212v-144zM245 119.002h130
c46 0 69 19.667 69 59s-23 59 -69 59h-130v-118z" />
    <glyph glyph-name="uni044B" unicode="&#x44b;" horiz-adv-x="798" 
d="M212 356l116 0.00195312c41.333 0 76.666 -5.66699 105.999 -17s51 -26.333 65 -45s24 -37.334 30 -56.001s9 -38.667 9 -60s-3 -41.333 -9 -60s-16 -37.334 -30 -56.001s-35.667 -33.667 -65 -45s-64.666 -17 -105.999 -17h-243v500h127v-144zM713 0.00195312h-127v500
h127v-500zM212 119.002h130c46 0 69 19.667 69 59s-23 59 -69 59h-130v-118z" />
    <glyph glyph-name="uni044C" unicode="&#x44c;" horiz-adv-x="590" 
d="M212 356l116 0.00195312c41.333 0 76.666 -5.66699 105.999 -17s51 -26.333 65 -45s24 -37.334 30 -56.001s9 -38.667 9 -60s-3 -41.333 -9 -60s-16 -37.334 -30 -56.001s-35.667 -33.667 -65 -45s-64.666 -17 -105.999 -17h-243v500h127v-144zM212 119.002h130
c46 0 69 19.667 69 59s-23 59 -69 59h-130v-118z" />
    <glyph glyph-name="uni044D" unicode="&#x44d;" horiz-adv-x="559" 
d="M247 506c71.333 0 131.833 -25 181.5 -75s74.5 -110.333 74.5 -181s-24.833 -131 -74.5 -181s-110.167 -75 -181.5 -75c-80 0 -145.667 30.667 -197 92l76 82c36.667 -34 77 -51 121 -51c28 0 53.333 8.5 76 25.5s37.334 39.5 44.001 67.5h-155v80h155
c-6.66699 28 -21.334 50.5 -44.001 67.5s-48 25.5 -76 25.5c-44 0 -84.333 -17 -121 -51l-76 82c51.333 61.333 117 92 197 92z" />
    <glyph glyph-name="uni044E" unicode="&#x44e;" horiz-adv-x="850" 
d="M538 507c70.667 0 131.168 -25.166 181.501 -75.499s75.5 -110.833 75.5 -181.5s-25 -131 -75 -181s-110.667 -75 -182 -75c-60.667 0 -114 18.667 -160 56s-75.333 84.666 -88 141.999h-78v-192h-127v500h127v-185h80c14 56 43.667 102 89 138s97.666 54 156.999 54z
M538.001 117.001c34.667 0 64.8359 12.333 90.5029 37s38.5 56.667 38.5 96s-12.833 71.5 -38.5 96.5s-55.834 37.5 -90.501 37.5s-64.834 -12.5 -90.501 -37.5s-38.5 -57.167 -38.5 -96.5s12.667 -71.333 38 -96s55.666 -37 90.999 -37z" />
    <glyph glyph-name="uni044F" unicode="&#x44f;" horiz-adv-x="570" 
d="M507 0l-127 0.00195312v145h-52c-20 -0.666992 -35.667 -5.33398 -47 -14.001s-25.333 -25 -42 -49l-56 -82h-138l64 96c23.333 35.333 41.333 57.666 54 66.999c-33.333 10 -60 29.5 -80 58.5s-30 60.167 -30 93.5c0 22.667 3.5 44.167 10.5 64.5s18.333 40 34 59
s38.5 34 68.5 45s65.333 16.5 106 16.5h235v-500zM380 377.002h-122c-52 0 -78 -20.667 -78 -62c0 -42 26 -63 78 -63h122v125z" />
    <glyph glyph-name="uni0451" unicode="&#x451;" horiz-adv-x="595" 
d="M199 677c21.333 0 39.166 -6.33301 53.499 -19s21.5 -28.334 21.5 -47.001s-7.16699 -34.334 -21.5 -47.001s-32.166 -19 -53.499 -19c-20.667 0 -38.167 6.33301 -52.5 19s-21.5 28.334 -21.5 47.001s7.16699 34.334 21.5 47.001s31.833 19 52.5 19zM415 677
c21.333 0 39.166 -6.33301 53.499 -19s21.5 -28.334 21.5 -47.001s-7.16699 -34.334 -21.5 -47.001s-32.166 -19 -53.499 -19c-20.667 0 -38.167 6.33301 -52.5 19s-21.5 28.334 -21.5 47.001s7.16699 34.334 21.5 47.001s31.833 19 52.5 19zM307 507
c106 0 179.333 -44.999 220 -134.999c10 -22 15.667 -48.5 17 -79.5s-1.66699 -56.833 -9 -77.5h-349c0 -32.667 11.833 -58.334 35.5 -77.001s53.167 -28 88.5 -28c55.333 0 105.666 11.667 150.999 35l67 -73c-70 -52 -142.667 -78 -218 -78
s-136.666 24.167 -183.999 72.5s-71 109.5 -71 183.5c0 73.333 23 134.5 69 183.5s107 73.5 183 73.5zM307 391.001c-32.667 0 -59.833 -9.66797 -81.5 -29.001s-33.167 -41.666 -34.5 -66.999h229c0 14.667 -4 28 -12 40c-20 37.333 -53.667 56 -101 56z" />
    <glyph glyph-name="Wgrave" unicode="&#x1e80;" horiz-adv-x="1155" 
d="M577 896l85 -146h-96l-125 146h136zM830 0h-82l-170 421l-171 -421h-81l-283 700h153l169 -446l172 446h81l172 -446l169 446h153z" />
    <glyph glyph-name="wgrave" unicode="&#x1e81;" horiz-adv-x="955" 
d="M468 691l85 -146h-96l-125 146h136zM695 0h-81l-136 297l-136 -297h-82l-227 500h135l133 -313l136 313h82l136 -313l133 313h135z" />
    <glyph glyph-name="Wacute" unicode="&#x1e82;" horiz-adv-x="1155" 
d="M585 750h-96l85 146h136zM830 0h-82l-170 421l-171 -421h-81l-283 700h153l169 -446l172 446h81l172 -446l169 446h153z" />
    <glyph glyph-name="wacute" unicode="&#x1e83;" horiz-adv-x="955" 
d="M495 545h-96l85 146h136zM695 0h-81l-136 297l-136 -297h-82l-227 500h135l133 -313l136 313h82l136 -313l133 313h135z" />
    <glyph glyph-name="Wdieresis" unicode="&#x1e84;" horiz-adv-x="1155" 
d="M469 750c-20.667 0 -38.167 6.33301 -52.5 19s-21.5 28.334 -21.5 47.001s7.16699 34.334 21.5 47.001s31.833 19 52.5 19c21.333 0 39.166 -6.33301 53.499 -19s21.5 -28.334 21.5 -47.001s-7.16699 -34.334 -21.5 -47.001s-32.166 -19 -53.499 -19zM685 750
c-20.667 0 -38.167 6.33301 -52.5 19s-21.5 28.334 -21.5 47.001s7.16699 34.334 21.5 47.001s31.833 19 52.5 19c21.333 0 39.166 -6.33301 53.499 -19s21.5 -28.334 21.5 -47.001s-7.16699 -34.334 -21.5 -47.001s-32.166 -19 -53.499 -19zM830 0h-82l-170 421l-171 -421
h-81l-283 700h153l169 -446l172 446h81l172 -446l169 446h153z" />
    <glyph glyph-name="wdieresis" unicode="&#x1e85;" horiz-adv-x="955" 
d="M370 545c-20.667 0 -38.167 6.33301 -52.5 19s-21.5 28.334 -21.5 47.001s7.16699 34.334 21.5 47.001s31.833 19 52.5 19c21.333 0 39.166 -6.33301 53.499 -19s21.5 -28.334 21.5 -47.001s-7.16699 -34.334 -21.5 -47.001s-32.166 -19 -53.499 -19zM585 545
c-20.667 0 -38.167 6.33301 -52.5 19s-21.5 28.334 -21.5 47.001s7.16699 34.334 21.5 47.001s31.833 19 52.5 19c21.333 0 39.166 -6.33301 53.499 -19s21.5 -28.334 21.5 -47.001s-7.16699 -34.334 -21.5 -47.001s-32.166 -19 -53.499 -19zM695 0h-81l-136 297l-136 -297
h-82l-227 500h135l133 -313l136 313h82l136 -313l133 313h135z" />
    <glyph glyph-name="Ygrave" unicode="&#x1ef2;" horiz-adv-x="722" 
d="M350 896l85 -146h-96l-125 146h136zM430 0h-138v234l-249 466h157l162 -296l161 296h157l-250 -466v-234z" />
    <glyph glyph-name="ygrave" unicode="&#x1ef3;" horiz-adv-x="650" 
d="M414 545h-96l-125 146h136zM212 500l0.00195312 -240.999c0 -85.333 37.333 -128 112 -128c37.333 0 66.333 11.5 87 34.5s31 57.833 31 104.5v230h127v-436c0 -74.667 -22.667 -135.834 -68 -183.501s-106 -71.5 -182 -71.5c-85.333 0 -159.333 26 -222 78l72 77
c53.333 -26.667 103.333 -39.667 150 -39c37.333 0 67 9.5 89 28.5s33 46.167 33 81.5v32c-30.667 -39.333 -76.334 -59 -137.001 -59c-70.667 0 -124.834 22 -162.501 66s-56.5 103.333 -56.5 178v248h127z" />
    <glyph glyph-name="endash" unicode="&#x2013;" horiz-adv-x="483" 
d="M427 249h-372v79h372v-79z" />
    <glyph glyph-name="emdash" unicode="&#x2014;" horiz-adv-x="651" 
d="M595 249h-540v79h540v-79z" />
    <glyph glyph-name="quoteleft" unicode="&#x2018;" horiz-adv-x="329" 
d="M55 428l125 272h93l-84 -272h-134z" />
    <glyph glyph-name="quoteright" unicode="&#x2019;" horiz-adv-x="329" 
d="M273 700l-125 -272h-93l84 272h134z" />
    <glyph glyph-name="quotesinglbase" unicode="&#x201a;" horiz-adv-x="329" 
d="M273 128l-125 -272h-93l84 272h134z" />
    <glyph glyph-name="quotedblleft" unicode="&#x201c;" horiz-adv-x="502" 
d="M55 428l125 272h93l-84 -272h-134zM229 428l125 272h93l-84 -272h-134z" />
    <glyph glyph-name="quotedblright" unicode="&#x201d;" horiz-adv-x="502" 
d="M273 700l-125 -272h-93l84 272h134zM447 700l-125 -272h-93l84 272h134z" />
    <glyph glyph-name="quotedblbase" unicode="&#x201e;" horiz-adv-x="502" 
d="M273 128l-125 -272h-93l84 272h134zM447 128l-125 -272h-93l84 272h134z" />
    <glyph glyph-name="dagger" unicode="&#x2020;" horiz-adv-x="406" 
d="M246 500h104v-79h-104v-481h-87v481h-104v79h104v200h87v-200z" />
    <glyph glyph-name="daggerdbl" unicode="&#x2021;" horiz-adv-x="406" 
d="M246 500h104v-79h-104v-201h104v-79h-104v-201h-87v201h-104v79h104v201h-104v79h104v200h87v-200z" />
    <glyph glyph-name="bullet" unicode="&#x2022;" horiz-adv-x="421" 
d="M210 448c43.333 0 80.166 -15 110.499 -45s45.5 -66.667 45.5 -110s-15.167 -80 -45.5 -110s-67.166 -45 -110.499 -45c-42.667 0 -79.167 15 -109.5 45s-45.5 66.667 -45.5 110s15.167 80 45.5 110s66.833 45 109.5 45z" />
    <glyph glyph-name="ellipsis" unicode="&#x2026;" horiz-adv-x="742" 
d="M131 128c20.667 0 38.334 -6.5 53.001 -19.5s22 -29.167 22 -48.5c0 -18.667 -7.33301 -34.5 -22 -47.5s-32.334 -19.5 -53.001 -19.5c-21.333 0 -39.333 6.5 -54 19.5s-22 28.833 -22 47.5c0 19.333 7.33301 35.5 22 48.5s32.667 19.5 54 19.5zM371 128
c20.667 0 38.334 -6.5 53.001 -19.5s22 -29.167 22 -48.5c0 -18.667 -7.33301 -34.5 -22 -47.5s-32.334 -19.5 -53.001 -19.5c-21.333 0 -39.333 6.5 -54 19.5s-22 28.833 -22 47.5c0 19.333 7.33301 35.5 22 48.5s32.667 19.5 54 19.5zM612 128
c20.667 0 38.334 -6.5 53.001 -19.5s22 -29.167 22 -48.5c0 -18.667 -7.33301 -34.5 -22 -47.5s-32.334 -19.5 -53.001 -19.5c-21.333 0 -39.333 6.5 -54 19.5s-22 28.833 -22 47.5c0 19.333 7.33301 35.5 22 48.5s32.667 19.5 54 19.5z" />
    <glyph glyph-name="perthousand" unicode="&#x2030;" horiz-adv-x="1210" 
d="M228 707c48.667 0 89.834 -16.167 123.501 -48.5s50.5 -71.5 50.5 -117.5s-16.833 -85.167 -50.5 -117.5s-74.834 -48.5 -123.501 -48.5s-89.667 16.167 -123 48.5s-50 71.5 -50 117.5s16.667 85.167 50 117.5s74.333 48.5 123 48.5zM265 0h-81l377 700h81zM229 625
c-24 0 -43.833 -7.83301 -59.5 -23.5s-23.5 -35.834 -23.5 -60.501s7.83301 -44.667 23.5 -60s35.5 -23 59.5 -23s43.833 7.66699 59.5 23s23.5 35.333 23.5 60s-7.83301 44.834 -23.5 60.501s-35.5 23.5 -59.5 23.5zM597 325c48.667 0 89.834 -16.167 123.501 -48.5
s50.5 -71.5 50.5 -117.5s-16.833 -85.167 -50.5 -117.5s-74.834 -48.5 -123.501 -48.5s-89.667 16.167 -123 48.5s-50 71.5 -50 117.5s16.833 85.167 50.5 117.5s74.5 48.5 122.5 48.5zM981 325c48.667 0 89.834 -16.167 123.501 -48.5s50.5 -71.5 50.5 -117.5
s-16.833 -85.167 -50.5 -117.5s-74.834 -48.5 -123.501 -48.5s-89.667 16.167 -123 48.5s-50 71.5 -50 117.5s16.833 85.167 50.5 117.5s74.5 48.5 122.5 48.5zM597 242c-24 0 -43.833 -7.66699 -59.5 -23s-23.5 -35.333 -23.5 -60c0 -25.333 7.83301 -45.666 23.5 -60.999
s35.5 -23 59.5 -23s43.833 7.66699 59.5 23s23.5 35.666 23.5 60.999c0 24.667 -7.83301 44.667 -23.5 60s-35.5 23 -59.5 23zM981 242c-24 0 -43.833 -7.66699 -59.5 -23s-23.5 -35.333 -23.5 -60c0 -25.333 7.83301 -45.666 23.5 -60.999s35.5 -23 59.5 -23
s43.833 7.66699 59.5 23s23.5 35.666 23.5 60.999c0 24.667 -7.83301 44.667 -23.5 60s-35.5 23 -59.5 23z" />
    <glyph glyph-name="guilsinglleft" unicode="&#x2039;" horiz-adv-x="308" 
d="M253 331l-81 -73l81 -72v-112l-198 184l198 185v-112z" />
    <glyph glyph-name="guilsinglright" unicode="&#x203a;" horiz-adv-x="308" 
d="M253 258l-198 -184v112l81 72l-81 73v112z" />
    <glyph glyph-name="fraction" unicode="&#x2044;" horiz-adv-x="510" 
d="M468 700l-345 -700h-80l345 700h80z" />
    <glyph glyph-name="Euro" unicode="&#x20ac;" horiz-adv-x="801" 
d="M482 123c70 0 128.002 22.999 174.002 68.999l90 -83c-72 -77.333 -160 -116 -264 -116c-79.333 0 -150.333 23.5 -213 70.5s-105 107.5 -127 181.5h-87v79h72c-0.666992 6 -1 14.667 -1 26c0 12.667 0.333008 22 1 28h-72v79h87
c23.333 73.333 66.166 133.333 128.499 180s132.833 70 211.5 70c104 0 192 -38.667 264 -116l-90 -83c-47.333 46 -105.333 69 -174 69c-42.667 0 -81.334 -10.667 -116.001 -32s-61 -50.666 -79 -87.999h235l-21 -79h-236c-0.666992 -6 -1 -15.333 -1 -28
c0 -12 0.333008 -20.667 1 -26h200l-21 -79h-158c18 -38 44.333 -67.833 79 -89.5s73.667 -32.5 117 -32.5z" />
    <glyph glyph-name="uni2116" unicode="&#x2116;" horiz-adv-x="1311" 
d="M969 707c71.333 0 132 -25.167 182 -75.5s75 -110.833 75 -181.5s-25 -131 -75 -181s-110.667 -75 -182 -75s-131.833 25 -181.5 75s-74.5 110.333 -74.5 181c0 71.333 25 132 75 182s110.333 75 181 75zM656 0h-82l-331 441v-441h-138v700h81l332 -441v441h138v-700z
M969 584c-34.667 0 -64.832 -12.5 -90.499 -37.5s-38.5 -57.167 -38.5 -96.5s12.667 -71.333 38 -96s55.666 -37 90.999 -37c34.667 0 64.834 12.333 90.501 37s38.5 56.667 38.5 96s-12.833 71.5 -38.5 96.5s-55.834 37.5 -90.501 37.5zM733.002 116h473v-116h-473v116z
" />
    <glyph glyph-name="trademark" unicode="&#x2122;" horiz-adv-x="749" 
d="M232 622v-232h-81v232h-96v78h274v-78h-97zM694 390h-81v179l-87 -99l-87 99v-179h-81v310h52l116 -133l116 133h52v-310z" />
    <glyph glyph-name="oneeighth" unicode="&#x215b;" horiz-adv-x="744" 
d="M141 382v198l-39 -47l-47 36l109 131h67v-318h-90zM219 0h-80l345 700h80zM635 169c16 -6 29.001 -15.833 39.001 -29.5s15 -29.5 15 -47.5c0 -29.333 -11.333 -53.166 -34 -71.499s-55.667 -27.5 -99 -27.5h-3c-44 0 -77.333 9.16699 -100 27.5s-34 42.166 -34 71.499
c0 18 5 33.833 15 47.5s23 23.5 39 29.5c-28.667 16 -43 39.333 -43 70c0 23.333 10.167 43.5 30.5 60.5s50.166 25.5 89.499 25.5h6c40 0 70.333 -8.5 91 -25.5s31 -37.167 31 -60.5c0 -30.667 -14.333 -54 -43 -70zM554.001 190c12 0 22.833 3 32.5 9s14.5 15.333 14.5 28
c0 12 -4.33301 21.333 -13 28s-20 10 -34 10s-25.333 -3.33301 -34 -10s-13 -16 -13 -28s4.33301 -21.167 13 -27.5s20 -9.5 34 -9.5zM554.001 56c16.667 0 30.332 4.33301 40.999 13s16 20 16 34c0 14.667 -5.16699 26.167 -15.5 34.5s-24.166 12.5 -41.499 12.5
s-31.333 -4.16699 -42 -12.5s-16 -19.833 -16 -34.5c0 -14 5.33301 -25.333 16 -34s24.667 -13 42 -13z" />
    <glyph glyph-name="threeeighths" unicode="&#x215c;" horiz-adv-x="808" 
d="M318 641l-90.998 -70.001c10 -0.666992 21.667 -2.66699 35 -6c50 -12.667 75 -41.334 75 -86.001c0 -28 -11.333 -52.333 -34 -73s-54.334 -31 -95.001 -31h-4c-56.667 0 -106.334 20.667 -149.001 62l51 47c27.333 -20.667 54 -31 80 -31
c18.667 0.666992 34 4.83398 46 12.501s18 17.5 18 29.5c0 10.667 -5 19.334 -15 26.001s-23 9.66699 -39 9s-29 -3.66699 -39 -9l-28 22l96 80h-138v77h231v-59zM283.002 -0.000976562h-80l345 700h80zM699.002 168.999c16 -6 29.001 -15.833 39.001 -29.5
s15 -29.5 15 -47.5c0 -29.333 -11.333 -53.166 -34 -71.499s-55.667 -27.5 -99 -27.5h-3c-44 0 -77.333 9.16699 -100 27.5s-34 42.166 -34 71.499c0 18 5 33.833 15 47.5s23 23.5 39 29.5c-28.667 16 -43 39.333 -43 70c0 23.333 10.167 43.5 30.5 60.5
s50.166 25.5 89.499 25.5h6c40 0 70.333 -8.5 91 -25.5s31 -37.167 31 -60.5c0 -30.667 -14.333 -54 -43 -70zM618.003 189.999c12 0 22.833 3 32.5 9s14.5 15.333 14.5 28c0 12 -4.33301 21.333 -13 28s-20 10 -34 10s-25.333 -3.33301 -34 -10s-13 -16 -13 -28
s4.33301 -21.167 13 -27.5s20 -9.5 34 -9.5zM618.003 55.999c16.667 0 30.332 4.33301 40.999 13s16 20 16 34c0 14.667 -5.16699 26.167 -15.5 34.5s-24.166 12.5 -41.499 12.5s-31.333 -4.16699 -42 -12.5s-16 -19.833 -16 -34.5c0 -14 5.33301 -25.333 16 -34
s24.667 -13 42 -13z" />
    <glyph glyph-name="fiveeighths" unicode="&#x215d;" horiz-adv-x="801" 
d="M309 623l-149.999 0.00195312v-53c20.667 8 41.667 12 63 12c34.667 0 62.5 -9.5 83.5 -28.5s31.5 -43.5 31.5 -73.5c0 -28 -11.333 -52.333 -34 -73s-54 -31.334 -94 -32.001h-5c-56.667 0 -106.334 20.667 -149.001 62l51 47c28.667 -20 55.334 -30 80.001 -30
c18.667 0 34 3.83301 46 11.5s18 17.5 18 29.5s-4.83301 21.5 -14.5 28.5s-22.834 10.5 -39.501 10.5c-26 1.33301 -50 -4.33398 -72 -17.001l-32 23v160h217v-77zM276.001 0.00195312h-80l345 700h80zM691.001 169.002c16 -6 29.001 -15.833 39.001 -29.5
s15 -29.5 15 -47.5c0 -29.333 -11.333 -53.166 -34 -71.499s-55.667 -27.5 -99 -27.5h-3c-44 0 -77.333 9.16699 -100 27.5s-34 42.166 -34 71.499c0 18 5 33.833 15 47.5s23 23.5 39 29.5c-28.667 16 -43 39.333 -43 70c0 23.333 10.167 43.5 30.5 60.5
s50.166 25.5 89.499 25.5h6c40 0 70.333 -8.5 91 -25.5s31 -37.167 31 -60.5c0 -30.667 -14.333 -54 -43 -70zM610.002 190.002c12 0 22.833 3 32.5 9s14.5 15.333 14.5 28c0 12 -4.33301 21.333 -13 28s-20 10 -34 10s-25.333 -3.33301 -34 -10s-13 -16 -13 -28
s4.33301 -21.167 13 -27.5s20 -9.5 34 -9.5zM611.002 56.002c16.667 0 30.332 4.33301 40.999 13s16 20 16 34c0 14.667 -5.16699 26.167 -15.5 34.5s-24.166 12.5 -41.499 12.5s-31.333 -4.16699 -42 -12.5s-16 -19.833 -16 -34.5c0 -14 5.33301 -25.333 16 -34
s24.667 -13 42 -13z" />
    <glyph glyph-name="seveneighths" unicode="&#x215e;" horiz-adv-x="714" 
d="M55 382l144 241h-141v77h243v-53l-158 -265h-88zM188 0h-80l345 700h80zM604 169c16 -6 29.001 -15.833 39.001 -29.5s15 -29.5 15 -47.5c0 -29.333 -11.333 -53.166 -34 -71.499s-55.667 -27.5 -99 -27.5h-3c-44 0 -77.333 9.16699 -100 27.5s-34 42.166 -34 71.499
c0 18 5 33.833 15 47.5s23 23.5 39 29.5c-28.667 16 -43 39.333 -43 70c0 23.333 10.167 43.5 30.5 60.5s50.166 25.5 89.499 25.5h6c40 0 70.333 -8.5 91 -25.5s31 -37.167 31 -60.5c0 -30.667 -14.333 -54 -43 -70zM523.001 190c12 0 22.833 3 32.5 9s14.5 15.333 14.5 28
c0 12 -4.33301 21.333 -13 28s-20 10 -34 10s-25.333 -3.33301 -34 -10s-13 -16 -13 -28s4.33301 -21.167 13 -27.5s20 -9.5 34 -9.5zM524.001 56c16.667 0 30.332 4.33301 40.999 13s16 20 16 34c0 14.667 -5.16699 26.167 -15.5 34.5s-24.166 12.5 -41.499 12.5
s-31.333 -4.16699 -42 -12.5s-16 -19.833 -16 -34.5c0 -14 5.33301 -25.333 16 -34s24.667 -13 42 -13z" />
    <glyph glyph-name="partialdiff" unicode="&#x2202;" horiz-adv-x="657" 
d="M363 707h6.99707c88 0 152 -34.5 192 -103.5s50.333 -158.5 31 -268.5l-9 -48c-15.333 -86.667 -52.833 -157.334 -112.5 -212.001s-128.167 -82 -205.5 -82s-134 24.167 -170 72.5s-48.333 104.833 -37 169.5c12.667 70.667 44.334 126.667 95.001 168s108 62 172 62
c36.667 0 67.167 -7.5 91.5 -22.5s41.5 -35.167 51.5 -60.5c6.66699 56.667 -0.666016 103.167 -21.999 139.5s-53.666 54.833 -96.999 55.5h-5c-36.667 0 -78 -14 -124 -42l-75 83c64 58.667 136.333 88.334 217 89.001zM336.997 348c-34 0 -64.333 -10.667 -91 -32
s-42.667 -48.333 -48 -81c-6 -32 0.5 -58.5 19.5 -79.5s45.833 -31.5 80.5 -31.5c35.333 0 66 10.833 92 32.5s42 49.167 48 82.5c5.33301 31.333 -1.5 57.333 -20.5 78s-45.833 31 -80.5 31z" />
    <glyph glyph-name="emptyset" unicode="&#x2205;" horiz-adv-x="662" 
d="M604 468l-66.001 -66c32.667 -45.333 49 -96 49 -152c0 -70.667 -25 -131 -75 -181s-110.667 -75 -182 -75c-55.333 0 -105.666 16.333 -150.999 49l-66 -67l-56 56l66 66c-32.667 45.333 -49 96 -49 152c0 71.333 25 132 75 182s110.333 75 181 75
c56 0 106.667 -16.333 152 -49l66 66zM200.999 250c0 -21.333 4.33398 -41.667 13.001 -61l178 179c-20 10.667 -40.667 16 -62 16c-34.667 0 -64.834 -12.5 -90.501 -37.5s-38.5 -57.167 -38.5 -96.5zM459 249.999c0 20.667 -4.33398 40.667 -13.001 60l-177 -178
c18 -10 38.333 -15 61 -15c34.667 0 64.834 12.333 90.501 37s38.5 56.667 38.5 96z" />
    <glyph glyph-name="product" unicode="&#x220f;" horiz-adv-x="779" 
d="M648 570v-613h-138v613h-241v-613h-138v613h-76v130h669v-130h-76z" />
    <glyph glyph-name="summation" unicode="&#x2211;" horiz-adv-x="583" 
d="M527 570h-262l172 -287l-172 -288h262v-130h-472l242 418l-241 417h471v-130z" />
    <glyph glyph-name="minus" unicode="&#x2212;" horiz-adv-x="525" 
d="M469 232h-414v79h414v-79z" />
    <glyph glyph-name="radical" unicode="&#x221a;" horiz-adv-x="637" 
d="M349 0h-92l-119 354l-83 -24v108l200 62l85 -314l167 514h75z" />
    <glyph glyph-name="infinity" unicode="&#x221e;" horiz-adv-x="623" 
d="M173 333l6 -0.00195312c49.333 0 93.333 -25.667 132 -77c40 51.333 84.333 77 133 77h6c35.333 0 63.833 -13 85.5 -39s32.5 -59.667 32.5 -101v-11c0 -41.333 -10.833 -75.166 -32.5 -101.499s-50.167 -39.5 -85.5 -39.5h-6c-48.667 0 -93 25.667 -133 77
c-38.667 -51.333 -82.667 -77 -132 -77h-6c-35.333 0 -63.833 12.833 -85.5 38.5s-32.5 59.834 -32.5 102.501v11c0 40.667 10.833 74.167 32.5 100.5s50.167 39.5 85.5 39.5zM191 251.998h-3c-16 0 -28.667 -5.83301 -38 -17.5s-14 -26.5 -14 -44.5v-6
c0 -19.333 4.66699 -34.5 14 -45.5s22 -16.5 38 -16.5h3c27.333 0 52.333 22.333 75 67c-21.333 42 -46.333 63 -75 63zM435 251.998h-3c-28.667 0 -53.667 -22 -75 -66c21.333 -42.667 46.333 -64 75 -64h3c16 0 28.667 5.83301 38 17.5s14 26.5 14 44.5v6
c0 18 -4.66699 32.833 -14 44.5s-22 17.5 -38 17.5z" />
    <glyph glyph-name="integral" unicode="&#x222b;" horiz-adv-x="357" 
d="M302 620l-14.002 -0.000976562c-18.667 0 -33.834 -6.83301 -45.501 -20.5s-16.834 -30.167 -15.501 -49.5l41 -508c4.66699 -54.667 -9.66602 -98.5 -42.999 -131.5s-77.666 -49.5 -132.999 -49.5h-37v130h14c18.667 0 33.834 6.83301 45.501 20.5
s16.834 29.834 15.501 48.501l-41 509c-4.66699 54.667 9.5 98.5 42.5 131.5s77.5 49.5 133.5 49.5h37v-130z" />
    <glyph glyph-name="approxequal" unicode="&#x2248;" horiz-adv-x="542" 
d="M55 266l40.998 69.999c12.667 22.667 28.667 39 48 49s37.833 14 55.5 12s34.834 -7.66699 51.501 -17l62 -36c16.667 -10.667 33.834 -15.667 51.501 -15s31.167 8.33398 40.5 23.001l22 36h59l-40 -69c-13.333 -23.333 -29.666 -40 -48.999 -50s-37.833 -14 -55.5 -12
s-34.834 8 -51.501 18l-61 36c-43.333 24.667 -74.333 21.667 -93 -9l-22 -36h-59zM485.998 247.999l-40.002 -70.001c-10 -17.333 -21.833 -31.166 -35.5 -41.499s-27.5 -16.5 -41.5 -18.5s-27.667 -1.66699 -41 1s-26 7.66699 -38 15l-61 36
c-43.333 24.667 -74.333 21.667 -93 -9l-22 -35h-59l41 69c12.667 22.667 28.667 39 48 49s37.833 14 55.5 12s34.834 -7.66699 51.501 -17l62 -36c16.667 -10.667 33.834 -15.667 51.501 -15s31.167 8.66699 40.5 24l22 36h59z" />
    <glyph glyph-name="notequal" unicode="&#x2260;" horiz-adv-x="525" 
d="M308 294l-21 -63h182v-79h-209l-43 -128h-80l43 128h-125v79h152l21 63h-173v79h199l43 127h80l-43 -127h135v-79h-161z" />
    <glyph glyph-name="lessequal" unicode="&#x2264;" horiz-adv-x="478" 
d="M423 410l-167 -91l167 -89v-113l-368 203l368 202v-112zM423 0h-368v79h368v-79z" />
    <glyph glyph-name="greaterequal" unicode="&#x2265;" horiz-adv-x="478" 
d="M423 320l-368 -203v113l166 89l-166 91v112zM423 0h-368v79h368v-79z" />
    <glyph glyph-name="lozenge" unicode="&#x25ca;" horiz-adv-x="504" 
d="M252 -17l-197 259l197 258l196 -258zM252 375l-103 -133l103 -134l102 134z" />
    <glyph glyph-name=".null" horiz-adv-x="0" 
 />
    <glyph glyph-name="nonmarkingreturn" horiz-adv-x="333" 
 />
    <glyph glyph-name="K.ss01" horiz-adv-x="741" 
d="M243 288v-288h-138v700h138v-279h107l185 279h157l-227 -343l233 -357h-156l-193 288h-106z" />
    <glyph glyph-name="Kcommaaccent.ss01" horiz-adv-x="741" 
d="M243 288v-288h-138v700h138v-279h107l185 279h157l-227 -343l233 -357h-156l-193 288h-106zM350 -215h-96l85 146h136z" />
    <glyph glyph-name="R.ss01" horiz-adv-x="702" 
d="M105 700l241 -0.000976562c95.333 0 169.333 -24.667 222 -74s79 -112.666 79 -189.999c0 -52.667 -12.833 -99.5 -38.5 -140.5s-62.5 -72.167 -110.5 -93.5l159 -202h-156l-138 174c-8.66699 -2 -18 -3 -28 -3h-92v-171h-138v700zM243 569.999v-269.001h115
c47.333 0 85.5 11.333 114.5 34s43.5 56.334 43.5 101.001c0 42.667 -14.667 75.667 -44 99s-67.333 35 -114 35h-115z" />
    <glyph glyph-name="Racute.ss01" horiz-adv-x="702" 
d="M350 750h-96l85 146h136zM105 700l241 -0.000976562c95.333 0 169.333 -24.667 222 -74s79 -112.666 79 -189.999c0 -52.667 -12.833 -99.5 -38.5 -140.5s-62.5 -72.167 -110.5 -93.5l159 -202h-156l-138 174c-8.66699 -2 -18 -3 -28 -3h-92v-171h-138v700zM243 569.999
v-269.001h115c47.333 0 85.5 11.333 114.5 34s43.5 56.334 43.5 101.001c0 42.667 -14.667 75.667 -44 99s-67.333 35 -114 35h-115z" />
    <glyph glyph-name="Rcaron.ss01" horiz-adv-x="702" 
d="M404 750h-127l-88 146h96l56 -51l55 52h96zM105 700l241 -0.000976562c95.333 0 169.333 -24.667 222 -74s79 -112.666 79 -189.999c0 -52.667 -12.833 -99.5 -38.5 -140.5s-62.5 -72.167 -110.5 -93.5l159 -202h-156l-138 174c-8.66699 -2 -18 -3 -28 -3h-92v-171h-138
v700zM243 569.999v-269.001h115c47.333 0 85.5 11.333 114.5 34s43.5 56.334 43.5 101.001c0 42.667 -14.667 75.667 -44 99s-67.333 35 -114 35h-115z" />
    <glyph glyph-name="Rcommaaccent.ss01" horiz-adv-x="702" 
d="M105 700l241 -0.000976562c95.333 0 169.333 -24.667 222 -74s79 -112.666 79 -189.999c0 -52.667 -12.833 -99.5 -38.5 -140.5s-62.5 -72.167 -110.5 -93.5l159 -202h-156l-138 174c-8.66699 -2 -18 -3 -28 -3h-92v-171h-138v700zM243 569.999v-269.001h115
c47.333 0 85.5 11.333 114.5 34s43.5 56.334 43.5 101.001c0 42.667 -14.667 75.667 -44 99s-67.333 35 -114 35h-115zM329 -215.002h-96l85 146h136z" />
    <glyph glyph-name="i.loclTRK" horiz-adv-x="324" 
d="M164 545c-20.667 0 -38.167 6.33301 -52.5 19s-21.5 28.334 -21.5 47.001s7.16699 34.334 21.5 47.001s31.833 19 52.5 19c21.333 0 39.166 -6.33301 53.499 -19s21.5 -28.334 21.5 -47.001s-7.16699 -34.334 -21.5 -47.001s-32.166 -19 -53.499 -19zM101 0v500h127v-500
h-127z" />
    <glyph glyph-name="k.ss01" horiz-adv-x="607" 
d="M217 194v-194h-127v700h127v-383h75l132 183h141l-174 -244l183 -256h-142l-140 194h-75z" />
    <glyph glyph-name="kcommaaccent.ss01" horiz-adv-x="607" 
d="M217 194v-194h-127v700h127v-383h75l132 183h141l-174 -244l183 -256h-142l-140 194h-75zM403 -69l-125 -146h-96l85 146h136z" />
    <glyph glyph-name="uni0416.ss01" horiz-adv-x="1089" 
d="M1040 700l-227 -343l234 -357h-157l-192 288h-84v-288h-138v288h-84l-193 -288h-156l233 357l-227 343h157l185 -279h85v279h138v-279h84l186 279h156z" />
    <glyph glyph-name="uni041A.ss01" horiz-adv-x="741" 
d="M243 288v-288h-138v700h138v-279h107l185 279h157l-227 -343l233 -357h-156l-193 288h-106z" />
    <glyph glyph-name="uni042F.ss01" horiz-adv-x="702" 
d="M596 0l-138 0.000976562v171h-92c-10.667 0 -20 1 -28 3l-139 -174h-155l159 202c-48 21.333 -84.833 52.5 -110.5 93.5s-38.5 87.833 -38.5 140.5c0 77.333 26.333 140.666 79 189.999s126.667 74 222 74h241v-700zM458 570.001l-115 0.000976562
c-46.667 0 -84.667 -11.667 -114 -35s-44 -56.333 -44 -99c0 -44.667 14.5 -78.334 43.5 -101.001s67.167 -34 114.5 -34h115v269z" />
    <glyph glyph-name="uni0436.ss01" horiz-adv-x="881" 
d="M504 194v-194h-126v194h-63l-140 -194h-142l182 256l-173 244h141l132 -183h63v183h126v-183h63l132 183h142l-174 -244l182 -256h-141l-141 194h-63z" />
    <glyph glyph-name="uni043A.ss01" horiz-adv-x="607" 
d="M217 194v-194h-127v500h127v-183h75l132 183h141l-174 -244l183 -256h-142l-140 194h-75z" />
    <glyph glyph-name="uni044F.ss01" horiz-adv-x="568" 
d="M506 0l-127 -0.00195312v145h-88l-109 -145h-139l118 164c-33.333 10.667 -59.833 30.334 -79.5 59.001s-29.5 59.334 -29.5 92.001c0 22.667 3.5 44.167 10.5 64.5s18.333 40 34 59s38.5 34 68.5 45s65.333 16.5 106 16.5h235v-500zM378 376.998h-122
c-52 0 -78 -20.667 -78 -62c0 -42 26 -63 78 -63h122v125z" />
    <glyph glyph-name="zero.lf" horiz-adv-x="830" 
d="M415 707c98.667 0 182.998 -34.833 252.998 -104.5s105 -153.834 105 -252.501s-34.833 -182.834 -104.5 -252.501s-154.167 -104.5 -253.5 -104.5s-183.666 34.833 -252.999 104.5s-104 153.834 -104 252.501s34.833 182.834 104.5 252.501s153.834 104.5 252.501 104.5
zM414.998 577c-62 0 -114.001 -21.333 -156.001 -64s-63 -97 -63 -163c0 -66.667 21 -121.167 63 -163.5s94 -63.5 156 -63.5c62.667 0 114.834 21.167 156.501 63.5s62.5 96.833 62.5 163.5c0 66 -21 120.333 -63 163s-94 64 -156 64z" />
    <glyph glyph-name="one.lf" horiz-adv-x="446" 
d="M342 0h-138v457l-72 -87l-89 69l217 261h82v-700z" />
    <glyph glyph-name="two.lf" horiz-adv-x="635" 
d="M583 0h-530.004v82l288 245c34.667 30 59.167 55.5 73.5 76.5s21.5 44.5 21.5 70.5c0 31.333 -10.667 56 -32 74s-48.666 27.667 -81.999 29h-7c-47.333 0 -100.333 -25.667 -159 -77l-90 82c82.667 83.333 169.334 125 260.001 125h8
c74.667 -0.666992 132.834 -21 174.501 -61s62.5 -88 62.5 -144c0 -50 -14.167 -96 -42.5 -138s-76.166 -90.667 -143.499 -146l-98 -88h296v-130z" />
    <glyph glyph-name="three.lf" horiz-adv-x="651" 
d="M568 619l-198.001 -205.004c18.667 1.33301 34.334 1.66602 47.001 0.999023c57.333 -8 101.833 -30.167 133.5 -66.5s47.5 -80.166 47.5 -131.499c0 -63.333 -21.5 -116.166 -64.5 -158.499s-106.5 -64.166 -190.5 -65.499h-8
c-110.667 0.666992 -204.667 43.334 -282 128.001l90 83c62.667 -54 126 -81 190 -81h7c37.333 0.666992 68 11.834 92 33.501s36 48.5 36 80.5c0 33.333 -10.833 59.333 -32.5 78s-54.5 28 -98.5 28c-27.333 0 -61.333 -8.66699 -102 -26l-65 49l200 204h-254v130h452v-81z
" />
    <glyph glyph-name="four.lf" horiz-adv-x="628" 
d="M518 122v-122h-138v122h-337v81l393 497h82v-448h68v-130h-68zM380 476l-176 -224h176v224z" />
    <glyph glyph-name="five.lf" horiz-adv-x="647" 
d="M529 570h-302v-149c35.333 24.667 82 37 140 37c73.333 0 129.666 -20.833 168.999 -62.5s59 -96.167 59 -163.5c0 -65.333 -22.167 -121.333 -66.5 -168s-108.833 -70.334 -193.5 -71.001h-8c-105.333 0.666992 -196.666 43.334 -273.999 128.001l90 83
c35.333 -30 66.666 -51 93.999 -63s57.333 -18 90 -18h8c36.667 0.666992 67.334 11.5 92.001 32.5s37 49.833 37 86.5s-12 65.167 -36 85.5s-56.667 30.5 -98 30.5c-54 0 -107.333 -18.667 -160 -56l-65 50v348h424v-130z" />
    <glyph glyph-name="six.lf" horiz-adv-x="621" 
d="M343 465c64 0 117.667 -20.668 161 -62.001s65 -97.333 65 -168c0 -64.667 -22.333 -121.167 -67 -169.5s-105.667 -72.5 -183 -72.5s-141 27.333 -191 82s-75 125.334 -75 212.001v48c0 108.667 24.833 197.5 74.5 266.5s117.5 104.167 203.5 105.5h7
c88.667 0 160.667 -31.333 216 -94l-89 -83c-41.333 31.333 -82.333 47 -123 47h-6c-44 0 -79.333 -18 -106 -54s-41.667 -83 -45 -141c14 25.333 34.667 45.5 62 60.5s59.333 22.5 96 22.5zM311 123.999c34 0 62.334 10.5 85.001 31.5s34 47.5 34 79.5
c0 32.667 -11.333 59.667 -34 81s-51 32 -85 32c-34.667 0 -63.334 -10.333 -86.001 -31s-34 -46.667 -34 -78c0 -33.333 11 -60.833 33 -82.5s51 -32.5 87 -32.5z" />
    <glyph glyph-name="seven.lf" horiz-adv-x="561" 
d="M519 619l-329 -619h-147l304 570h-302v130h474v-81z" />
    <glyph glyph-name="eight.lf" horiz-adv-x="605" 
d="M435 370c35.333 -12.667 63.832 -33.667 85.499 -63s32.5 -63.666 32.5 -102.999c0 -62.667 -21.667 -113.5 -65 -152.5s-103.666 -58.833 -180.999 -59.5h-6c-78 0 -138.833 19.5 -182.5 58.5s-65.5 90.167 -65.5 153.5c0 39.333 10.833 73.666 32.5 102.999
s50.167 50.333 85.5 63c-63.333 31.333 -95 81 -95 149c0 50.667 19 94.5 57 131.5s92 55.833 162 56.5h13c70.667 0 125.5 -18.5 164.5 -55.5s58.5 -81.167 58.5 -132.5c0 -68 -32 -117.667 -96 -149zM205.999 494c0 -26.667 9 -47.167 27 -61.5s41.333 -21.5 70 -21.5
c28 0 51 7.16699 69 21.5s27 34.833 27 61.5s-9 47.167 -27 61.5s-41 21.5 -69 21.5s-51.167 -7.16699 -69.5 -21.5s-27.5 -34.833 -27.5 -61.5zM302.999 123c35.333 0 64 9.5 86 28.5s33 44.5 33 76.5s-10.833 57.167 -32.5 75.5s-50.5 27.833 -86.5 28.5
c-30.667 0 -58.167 -8.66699 -82.5 -26s-36.5 -43.333 -36.5 -78c0 -32 11 -57.5 33 -76.5s50.667 -28.5 86 -28.5z" />
    <glyph glyph-name="nine.lf" horiz-adv-x="621" 
d="M279 235c-64 0 -117.667 20.6689 -161 62.002s-65 97.333 -65 168c0 64.667 22.333 121.167 67 169.5s105.667 72.5 183 72.5s141 -27.333 191 -82s75 -125.334 75 -212.001v-48c0 -108.667 -24.833 -197.5 -74.5 -266.5s-117.5 -104.167 -203.5 -105.5h-8
c-86.667 0 -158.667 31.333 -216 94l90 83c40 -30.667 81 -46.334 123 -47.001h6c44 0 79.333 18 106 54s41.667 83 45 141c-14 -25.333 -34.667 -45.5 -62 -60.5s-59.333 -22.5 -96 -22.5zM311 576.002c-34.667 0 -63.334 -10.332 -86.001 -30.999s-34 -47.334 -34 -80.001
s11.333 -59.667 34 -81s51.334 -32 86.001 -32c34 0 62.333 10.333 85 31s34 46.667 34 78c0 33.333 -11 60.833 -33 82.5s-50.667 32.5 -86 32.5z" />
    <glyph glyph-name="zero.osf" horiz-adv-x="673" 
d="M336 544c76.667 0 142.5 -26.833 197.5 -80.5s82.5 -118.5 82.5 -194.5s-27.5 -141 -82.5 -195s-120.833 -81 -197.5 -81c-76 0 -141.333 27 -196 81s-82 119 -82 195s27.333 140.833 82 194.5s120 80.5 196 80.5zM337 414c-39.333 0 -72.5 -14 -99.5 -42
s-40.5 -62.333 -40.5 -103c0 -41.333 13.5 -75.833 40.5 -103.5s60.167 -41.5 99.5 -41.5s72.5 13.833 99.5 41.5s40.5 62.167 40.5 103.5c0 40.667 -13.5 75 -40.5 103s-60.167 42 -99.5 42z" />
    <glyph glyph-name="one.osf" horiz-adv-x="446" 
d="M342 0h-138v294l-72 -86l-89 68l217 261h82v-537z" />
    <glyph glyph-name="two.osf" horiz-adv-x="635" 
d="M583 0l-530 0.00390625v82l323 187c22.667 13.333 38.334 25.666 47.001 36.999s13 25 13 41c0 19.333 -8 35.166 -24 47.499s-38 18.833 -66 19.5h-8c-62.667 0 -123.334 -25.667 -182.001 -77l-90 83c40.667 40.667 85 71.5 133 92.5s95 31.5 141 31.5h8
c38.667 -0.666992 73 -6.33398 103 -17.001s53.333 -24.834 70 -42.501s29.167 -36.5 37.5 -56.5s12.5 -40.667 12.5 -62c0 -42 -12.167 -77.333 -36.5 -106s-64.833 -55 -121.5 -79l-88 -52h258v-129z" />
    <glyph glyph-name="three.osf" horiz-adv-x="651" 
d="M568 456l-198.001 -194.001c19.333 1.33301 38.333 1 57 -1c54.667 -9.33301 96.834 -31.833 126.501 -67.5s44.5 -78.5 44.5 -128.5c0 -62 -21.5 -114 -64.5 -156s-106.5 -63.333 -190.5 -64h-8c-110.667 0.666992 -204.667 43.334 -282 128.001l90 83
c62.667 -54 126 -81 190 -81h7c37.333 0.666992 68 11.5 92 32.5s36 46.833 36 77.5c0 33.333 -10.833 59.333 -32.5 78s-54.5 28 -98.5 28c-31.333 0 -65.333 -8.66699 -102 -26l-65 50l197 193h-251v129h452v-81z" />
    <glyph glyph-name="four.osf" horiz-adv-x="628" 
d="M518 -37v-111h-138v111h-337v81l393 493h82v-444h68v-130h-68zM379 313l-175 -220h175v220z" />
    <glyph glyph-name="five.osf" horiz-adv-x="647" 
d="M529 408l-301.998 0.000976562v-139c35.333 24.667 82 37 140 37c73.333 0 129.666 -20.833 168.999 -62.5s59 -96.167 59 -163.5c0 -40 -8.83301 -77.167 -26.5 -111.5s-46.834 -63.333 -87.501 -87s-90 -35.834 -148 -36.501h-6
c-105.333 0.666992 -196.666 43.334 -273.999 128.001l90 83c35.333 -30 66.666 -51 93.999 -63s57.333 -18 90 -18h7c36.667 0.666992 67.5 11.167 92.5 31.5s37.5 48.166 37.5 83.499c0 36.667 -12 65.167 -36 85.5s-56.667 30.5 -98 30.5
c-52 0 -105.333 -18.333 -160 -55l-65 49v337h424v-129z" />
    <glyph glyph-name="six.osf" horiz-adv-x="621" 
d="M343 465c64 0 117.667 -20.668 161 -62.001s65 -97.333 65 -168c0 -64.667 -22.333 -121.167 -67 -169.5s-105.667 -72.5 -183 -72.5s-141 27.333 -191 82s-75 125.334 -75 212.001v38c0 108.667 25.333 197.167 76 265.5s119.667 102.5 207 102.5h5
c86.667 -0.666992 157.667 -32 213 -94l-89 -83c-41.333 31.333 -83 47 -125 47h-4c-42 0 -76 -16.5 -102 -49.5s-42 -75.833 -48 -128.5c32 53.333 84.333 80 157 80zM311 123.999c34 0 62.334 10.5 85.001 31.5s34 47.5 34 79.5c0 32.667 -11.333 59.667 -34 81
s-51 32 -85 32c-34.667 0 -63.334 -10.333 -86.001 -31s-34 -46.667 -34 -78c0 -33.333 11 -60.833 33 -82.5s51 -32.5 87 -32.5z" />
    <glyph glyph-name="seven.osf" horiz-adv-x="559" 
d="M517 456l-326 -604h-147l300 556h-301v129h474v-81z" />
    <glyph glyph-name="eight.osf" horiz-adv-x="605" 
d="M435 364c35.333 -12.667 63.833 -33.498 85.5 -62.498s32.5 -62.833 32.5 -101.5c0 -60.667 -21.833 -110.334 -65.5 -149.001s-104.5 -58 -182.5 -58h-5c-78 0.666992 -138.667 20.167 -182 58.5s-65 87.833 -65 148.5c0 38.667 10.833 72.5 32.5 101.5
s50.167 49.833 85.5 62.5c-63.333 32 -95 81.667 -95 149c0 47.333 19.5 89.166 58.5 125.499s93.167 54.5 162.5 54.5h11c70 0 124.667 -18.167 164 -54.5s59 -78.166 59 -125.499c0 -66.667 -32 -116.334 -96 -149.001zM206 488.002c0 -26.667 9.16699 -47.167 27.5 -61.5
s41.5 -21.5 69.5 -21.5s51 7.16699 69 21.5s27 34.833 27 61.5s-9 47.167 -27 61.5s-41 21.5 -69 21.5c-28.667 0 -52 -7.16699 -70 -21.5s-27 -34.833 -27 -61.5zM303 121.002c35.333 0 64 9.33301 86 28s33 43.667 33 75s-10.833 56.166 -32.5 74.499
s-50.5 27.5 -86.5 27.5c-30.667 0 -58.167 -8.66699 -82.5 -26s-36.5 -42.666 -36.5 -75.999c0 -31.333 11 -56.333 33 -75s50.667 -28 86 -28z" />
    <glyph glyph-name="nine.osf" horiz-adv-x="621" 
d="M279 73c-64 0 -117.668 20.6689 -161.001 62.002s-65 97 -65 167c0 64.667 22.333 121.167 67 169.5s105.667 72.5 183 72.5s141 -27.333 191 -82s75 -125.334 75 -212.001v-37c0 -108.667 -25.333 -197.334 -76 -266.001s-119.667 -103 -207 -103h-5
c-84.667 0.666992 -156 32 -214 94l90 83c41.333 -30.667 83 -46 125 -46h4c42 0 76 16.5 102 49.5s42 75.5 48 127.5c-31.333 -52.667 -83.666 -79 -156.999 -79zM310.999 414.002c-34.667 0 -63.334 -10.501 -86.001 -31.501s-34 -47.833 -34 -80.5s11.333 -59.5 34 -80.5
s51.334 -31.5 86.001 -31.5c34 0 62.333 10.333 85 31s34 46.334 34 77.001c0 33.333 -11 61 -33 83s-50.667 33 -86 33z" />
    <glyph glyph-name="zero.tf" horiz-adv-x="825" 
d="M412 707c98.667 0 183 -34.833 253 -104.5s105 -153.834 105 -252.501s-34.833 -182.834 -104.5 -252.501s-154.167 -104.5 -253.5 -104.5c-98.667 0 -182.834 34.833 -252.501 104.5s-104.5 153.834 -104.5 252.501s34.833 182.834 104.5 252.501
s153.834 104.5 252.501 104.5zM412 577c-62 0 -114.001 -21.333 -156.001 -64s-63 -97 -63 -163c0 -66.667 21 -121.167 63 -163.5s94 -63.5 156 -63.5c62.667 0 114.834 21.167 156.501 63.5s62.5 96.833 62.5 163.5c0 66 -21 120.333 -63 163s-94 64 -156 64z" />
    <glyph glyph-name="one.tf" horiz-adv-x="409" 
d="M354 0h-138v457l-72 -87l-89 69l217 261h82v-700z" />
    <glyph glyph-name="two.tf" horiz-adv-x="640" 
d="M585 0h-530.004v82l288 245c34.667 30 59.167 55.5 73.5 76.5s21.5 44.5 21.5 70.5c0 31.333 -10.667 56 -32 74s-48.666 27.667 -81.999 29h-7c-47.333 0 -100.333 -25.667 -159 -77l-90 82c82.667 83.333 169.334 125 260.001 125h8
c74.667 -0.666992 132.834 -21 174.501 -61s62.5 -88 62.5 -144c0 -50 -14.167 -96 -42.5 -138s-76.166 -90.667 -143.499 -146l-98 -88h296v-130z" />
    <glyph glyph-name="three.tf" horiz-adv-x="656" 
d="M570 619l-198.001 -205.004c18.667 1.33301 34.334 1.66602 47.001 0.999023c57.333 -8 101.833 -30.167 133.5 -66.5s47.5 -80.166 47.5 -131.499c0 -63.333 -21.5 -116.166 -64.5 -158.499s-106.5 -64.166 -190.5 -65.499h-8
c-110.667 0.666992 -204.667 43.334 -282 128.001l90 83c62.667 -54 126 -81 190 -81h7c37.333 0.666992 68 11.834 92 33.501s36 48.5 36 80.5c0 33.333 -10.833 59.333 -32.5 78s-54.5 28 -98.5 28c-27.333 0 -61.333 -8.66699 -102 -26l-65 49l200 204h-254v130h452v-81z
" />
    <glyph glyph-name="four.tf" horiz-adv-x="653" 
d="M530 122v-122h-138v122h-337v81l393 497h82v-448h68v-130h-68zM392 476l-176 -224h176v224z" />
    <glyph glyph-name="five.tf" horiz-adv-x="652" 
d="M531 570h-302v-149c35.333 24.667 82 37 140 37c73.333 0 129.666 -20.833 168.999 -62.5s59 -96.167 59 -163.5c0 -65.333 -22.167 -121.333 -66.5 -168s-108.833 -70.334 -193.5 -71.001h-8c-105.333 0.666992 -196.666 43.334 -273.999 128.001l90 83
c35.333 -30 66.666 -51 93.999 -63s57.333 -18 90 -18h8c36.667 0.666992 67.334 11.5 92.001 32.5s37 49.833 37 86.5s-12 65.167 -36 85.5s-56.667 30.5 -98 30.5c-54 0 -107.333 -18.667 -160 -56l-65 50v348h424v-130z" />
    <glyph glyph-name="six.tf" horiz-adv-x="626" 
d="M345 465c64 0 117.667 -20.668 161 -62.001s65 -97.333 65 -168c0 -64.667 -22.333 -121.167 -67 -169.5s-105.667 -72.5 -183 -72.5s-141 27.333 -191 82s-75 125.334 -75 212.001v48c0 108.667 24.833 197.5 74.5 266.5s117.5 104.167 203.5 105.5h7
c88.667 0 160.667 -31.333 216 -94l-89 -83c-41.333 31.333 -82.333 47 -123 47h-6c-44 0 -79.333 -18 -106 -54s-41.667 -83 -45 -141c14 25.333 34.667 45.5 62 60.5s59.333 22.5 96 22.5zM314 123.999c34 0 62.334 10.5 85.001 31.5s34 47.5 34 79.5
c0 32.667 -11.333 59.667 -34 81s-51 32 -85 32c-34.667 0 -63.334 -10.333 -86.001 -31s-34 -46.667 -34 -78c0 -33.333 11 -60.833 33 -82.5s51 -32.5 87 -32.5z" />
    <glyph glyph-name="seven.tf" horiz-adv-x="586" 
d="M531 619l-329 -619h-147l304 570h-302v130h474v-81z" />
    <glyph glyph-name="eight.tf" horiz-adv-x="611" 
d="M437 370c35.333 -12.667 63.832 -33.667 85.499 -63s32.5 -63.666 32.5 -102.999c0 -62.667 -21.667 -113.5 -65 -152.5s-103.666 -58.833 -180.999 -59.5h-6c-78 0 -138.833 19.5 -182.5 58.5s-65.5 90.167 -65.5 153.5c0 39.333 10.833 73.666 32.5 102.999
s50.167 50.333 85.5 63c-63.333 31.333 -95 81 -95 149c0 50.667 19 94.5 57 131.5s92 55.833 162 56.5h13c70.667 0 125.5 -18.5 164.5 -55.5s58.5 -81.167 58.5 -132.5c0 -68 -32 -117.667 -96 -149zM208.999 494c0 -26.667 9 -47.167 27 -61.5s41.333 -21.5 70 -21.5
c28 0 51 7.16699 69 21.5s27 34.833 27 61.5s-9 47.167 -27 61.5s-41 21.5 -69 21.5s-51.167 -7.16699 -69.5 -21.5s-27.5 -34.833 -27.5 -61.5zM304.999 123c35.333 0 64 9.5 86 28.5s33 44.5 33 76.5s-10.833 57.167 -32.5 75.5s-50.5 27.833 -86.5 28.5
c-30.667 0 -58.167 -8.66699 -82.5 -26s-36.5 -43.333 -36.5 -78c0 -32 11 -57.5 33 -76.5s50.667 -28.5 86 -28.5z" />
    <glyph glyph-name="nine.tf" horiz-adv-x="626" 
d="M281 235c-64 0 -117.667 20.6689 -161 62.002s-65 97.333 -65 168c0 64.667 22.333 121.167 67 169.5s105.667 72.5 183 72.5s141 -27.333 191 -82s75 -125.334 75 -212.001v-48c0 -108.667 -24.833 -197.5 -74.5 -266.5s-117.5 -104.167 -203.5 -105.5h-8
c-86.667 0 -158.667 31.333 -216 94l90 83c40 -30.667 81 -46.334 123 -47.001h6c44 0 79.333 18 106 54s41.667 83 45 141c-14 -25.333 -34.667 -45.5 -62 -60.5s-59.333 -22.5 -96 -22.5zM313 576.002c-34.667 0 -63.334 -10.332 -86.001 -30.999s-34 -47.334 -34 -80.001
s11.333 -59.667 34 -81s51.334 -32 86.001 -32c34 0 62.333 10.333 85 31s34 46.667 34 78c0 33.333 -11 60.833 -33 82.5s-50.667 32.5 -86 32.5z" />
    <glyph glyph-name="zero.tosf" horiz-adv-x="668" 
d="M333 545c76.667 0 142.5 -26.833 197.5 -80.5s82.5 -118.5 82.5 -194.5s-27.5 -141 -82.5 -195s-120.833 -81 -197.5 -81c-76 0 -141.333 27 -196 81s-82 119 -82 195s27.333 140.833 82 194.5s120 80.5 196 80.5zM334 415c-39.333 0 -72.5 -14 -99.5 -42
s-40.5 -62.333 -40.5 -103c0 -41.333 13.5 -75.833 40.5 -103.5s60.167 -41.5 99.5 -41.5s72.5 13.833 99.5 41.5s40.5 62.167 40.5 103.5c0 40.667 -13.5 75 -40.5 103s-60.167 42 -99.5 42z" />
    <glyph glyph-name="one.tosf" horiz-adv-x="409" 
d="M354 0h-138v295l-72 -86l-89 68l217 261h82v-538z" />
    <glyph glyph-name="two.tosf" horiz-adv-x="640" 
d="M585 0l-530 0.00390625v82l323 187c22.667 13.333 38.334 25.666 47.001 36.999s13 25 13 41c0 19.333 -8 35.166 -24 47.499s-38 18.833 -66 19.5h-8c-62.667 0 -123.334 -25.667 -182.001 -77l-90 83c40.667 40.667 85 71.5 133 92.5s95 31.5 141 31.5h8
c38.667 -0.666992 73 -6.33398 103 -17.001s53.333 -24.834 70 -42.501s29.167 -36.5 37.5 -56.5s12.5 -40.667 12.5 -62c0 -42 -12.167 -77.333 -36.5 -106s-64.833 -55 -121.5 -79l-88 -52h258v-129z" />
    <glyph glyph-name="three.tosf" horiz-adv-x="656" 
d="M570 456l-198.001 -194.001c19.333 1.33301 38.333 1 57 -1c54.667 -9.33301 96.834 -31.833 126.501 -67.5s44.5 -78.5 44.5 -128.5c0 -62 -21.5 -114 -64.5 -156s-106.5 -63.333 -190.5 -64h-8c-110.667 0.666992 -204.667 43.334 -282 128.001l90 83
c62.667 -54 126 -81 190 -81h7c37.333 0.666992 68 11.5 92 32.5s36 46.833 36 77.5c0 33.333 -10.833 59.333 -32.5 78s-54.5 28 -98.5 28c-31.333 0 -65.333 -8.66699 -102 -26l-65 50l197 193h-251v129h452v-81z" />
    <glyph glyph-name="four.tosf" horiz-adv-x="653" 
d="M530 -37v-111h-138v111h-337v81l393 493h82v-444h68v-130h-68zM392 313l-175 -220h175v220z" />
    <glyph glyph-name="five.tosf" horiz-adv-x="652" 
d="M531 408l-301.998 0.000976562v-139c35.333 24.667 82 37 140 37c73.333 0 129.666 -20.833 168.999 -62.5s59 -96.167 59 -163.5c0 -40 -8.83301 -77.167 -26.5 -111.5s-46.834 -63.333 -87.501 -87s-90 -35.834 -148 -36.501h-6
c-105.333 0.666992 -196.666 43.334 -273.999 128.001l90 83c35.333 -30 66.666 -51 93.999 -63s57.333 -18 90 -18h7c36.667 0.666992 67.5 11.167 92.5 31.5s37.5 48.166 37.5 83.499c0 36.667 -12 65.167 -36 85.5s-56.667 30.5 -98 30.5
c-52 0 -105.333 -18.333 -160 -55l-65 49v337h424v-129z" />
    <glyph glyph-name="six.tosf" horiz-adv-x="626" 
d="M345 465c64 0 117.667 -20.668 161 -62.001s65 -97.333 65 -168c0 -64.667 -22.333 -121.167 -67 -169.5s-105.667 -72.5 -183 -72.5s-141 27.333 -191 82s-75 125.334 -75 212.001v38c0 108.667 25.333 197.167 76 265.5s119.667 102.5 207 102.5h5
c86.667 -0.666992 157.667 -32 213 -94l-89 -83c-41.333 31.333 -83 47 -125 47h-4c-42 0 -76 -16.5 -102 -49.5s-42 -75.833 -48 -128.5c32 53.333 84.333 80 157 80zM314 123.999c34 0 62.334 10.5 85.001 31.5s34 47.5 34 79.5c0 32.667 -11.333 59.667 -34 81
s-51 32 -85 32c-34.667 0 -63.334 -10.333 -86.001 -31s-34 -46.667 -34 -78c0 -33.333 11 -60.833 33 -82.5s51 -32.5 87 -32.5z" />
    <glyph glyph-name="seven.tosf" horiz-adv-x="584" 
d="M529 456l-326 -604h-147l300 556h-301v129h474v-81z" />
    <glyph glyph-name="eight.tosf" horiz-adv-x="611" 
d="M437 364c35.333 -12.667 63.833 -33.498 85.5 -62.498s32.5 -62.833 32.5 -101.5c0 -60.667 -21.833 -110.334 -65.5 -149.001s-104.5 -58 -182.5 -58h-5c-78 0.666992 -138.667 20.167 -182 58.5s-65 87.833 -65 148.5c0 38.667 10.833 72.5 32.5 101.5
s50.167 49.833 85.5 62.5c-63.333 32 -95 81.667 -95 149c0 47.333 19.5 89.166 58.5 125.499s93.167 54.5 162.5 54.5h11c70 0 124.667 -18.167 164 -54.5s59 -78.166 59 -125.499c0 -66.667 -32 -116.334 -96 -149.001zM209 488.002c0 -26.667 9.16699 -47.167 27.5 -61.5
s41.5 -21.5 69.5 -21.5s51 7.16699 69 21.5s27 34.833 27 61.5s-9 47.167 -27 61.5s-41 21.5 -69 21.5c-28.667 0 -52 -7.16699 -70 -21.5s-27 -34.833 -27 -61.5zM305 121.002c35.333 0 64 9.33301 86 28s33 43.667 33 75s-10.833 56.166 -32.5 74.499
s-50.5 27.5 -86.5 27.5c-30.667 0 -58.167 -8.66699 -82.5 -26s-36.5 -42.666 -36.5 -75.999c0 -31.333 11 -56.333 33 -75s50.667 -28 86 -28z" />
    <glyph glyph-name="nine.tosf" horiz-adv-x="626" 
d="M281 73c-64 0 -117.668 20.6689 -161.001 62.002s-65 97 -65 167c0 64.667 22.333 121.167 67 169.5s105.667 72.5 183 72.5s141 -27.333 191 -82s75 -125.334 75 -212.001v-37c0 -108.667 -25.333 -197.334 -76 -266.001s-119.667 -103 -207 -103h-5
c-84.667 0.666992 -156 32 -214 94l90 83c41.333 -30.667 83 -46 125 -46h4c42 0 76 16.5 102 49.5s42 75.5 48 127.5c-31.333 -52.667 -83.666 -79 -156.999 -79zM312.999 414.002c-34.667 0 -63.334 -10.501 -86.001 -31.501s-34 -47.833 -34 -80.5s11.333 -59.5 34 -80.5
s51.334 -31.5 86.001 -31.5c34 0 62.333 10.333 85 31s34 46.334 34 77.001c0 33.333 -11 61 -33 83s-50.667 33 -86 33z" />
    <glyph glyph-name="zero.dnom" horiz-adv-x="403" 
d="M201 325c48.667 0 89.834 -16.167 123.501 -48.5s50.5 -71.5 50.5 -117.5s-16.833 -85.167 -50.5 -117.5s-74.834 -48.5 -123.501 -48.5s-89.667 16.167 -123 48.5s-50 71.5 -50 117.5s16.833 85.167 50.5 117.5s74.5 48.5 122.5 48.5zM202 242
c-24 0 -43.833 -7.66699 -59.5 -23s-23.5 -35.333 -23.5 -60c0 -25.333 7.83301 -45.666 23.5 -60.999s35.5 -23 59.5 -23s43.833 7.66699 59.5 23s23.5 35.666 23.5 60.999c0 24.667 -7.83301 44.667 -23.5 60s-35.5 23 -59.5 23z" />
    <glyph glyph-name="one.dnom" horiz-adv-x="261" 
d="M219 0h-90v198l-39 -47l-47 36l109 131h67v-318z" />
    <glyph glyph-name="two.dnom" horiz-adv-x="368" 
d="M326 0l-283 -0.000976562v46l149 110c27.333 20 41 37 41 51c0 10.667 -4.16699 19.5 -12.5 26.5s-18.833 10.833 -31.5 11.5h-4c-24 0 -50.667 -11 -80 -33l-55 51c48.667 42 99.334 63 152.001 63h4c33.333 -0.666992 60.666 -10.667 81.999 -30s32 -42.666 32 -69.999
c0 -24 -7.16699 -44.667 -21.5 -62s-36.5 -35 -66.5 -53l-45 -28h139v-83z" />
    <glyph glyph-name="three.dnom" horiz-adv-x="367" 
d="M306 260l-90.999 -69.998c20 -3.33301 31.667 -5.66602 35 -6.99902c50 -12.667 75 -41 75 -85c0 -28 -11.333 -52.333 -34 -73s-54.334 -31.334 -95.001 -32.001h-4c-56.667 0 -106.334 20.667 -149.001 62l51 47c28.667 -20 55.334 -30 80.001 -30
c18.667 0 34 3.83301 46 11.5s18 17.5 18 29.5c0 11.333 -5 20.166 -15 26.499s-23 9.16602 -39 8.49902c-15.333 0 -28.333 -2.66699 -39 -8l-28 21l96 80h-138v77h231v-58z" />
    <glyph glyph-name="four.dnom" horiz-adv-x="369" 
d="M294 54v-54h-90v54h-161v46l189 218h62v-192h33v-72h-33zM203 209l-74 -83h74v83z" />
    <glyph glyph-name="five.dnom" horiz-adv-x="367" 
d="M297 241l-150 0.00195312v-53c20.667 8 41.667 12 63 12c34.667 0 62.5 -9.5 83.5 -28.5s31.5 -43.5 31.5 -73.5c0 -28 -11.333 -52.333 -34 -73s-54 -31.334 -94 -32.001h-5c-56.667 0 -106.334 20.667 -149.001 62l51 47c28.667 -20 55.334 -30 80.001 -30
c18.667 0 34 3.83301 46 11.5s18 17.5 18 29.5c0 25.333 -18 38.666 -54 39.999c-26.667 0 -50.667 -6 -72 -18l-32 23v160h217v-77z" />
    <glyph glyph-name="six.dnom" horiz-adv-x="360" 
d="M202 217c32.667 0 60.166 -9.83203 82.499 -29.499s33.5 -46.167 33.5 -79.5c0 -30.667 -12 -57.5 -36 -80.5s-56.667 -34.5 -98 -34.5c-43.333 0 -77.666 12.833 -102.999 38.5s-38 59.5 -38 101.5v17c0 52 13.333 94.167 40 126.5s64.334 48.5 113.001 48.5h4
c46 -0.666992 81.667 -15.667 107 -45l-44 -41c-20.667 14.667 -42 22 -64 22h-3c-19.333 0 -36 -7.33301 -50 -22s-22.667 -33.334 -26 -56.001c17.333 22.667 44.666 34 81.999 34zM179.999 61.001c16 0 29.166 4.33398 39.499 13.001s15.5 20 15.5 34
s-5.16699 25.333 -15.5 34s-23.5 13 -39.5 13c-15.333 0 -28.166 -4.33301 -38.499 -13s-15.5 -19.334 -15.5 -32.001c0 -14 5 -25.667 15 -35s23 -14 39 -14z" />
    <glyph glyph-name="seven.dnom" horiz-adv-x="332" 
d="M289 266l-158 -266h-88l144 242h-141v76h243v-52z" />
    <glyph glyph-name="eight.dnom" horiz-adv-x="355" 
d="M259 169c16 -6 29.001 -15.833 39.001 -29.5s15 -29.5 15 -47.5c0 -29.333 -11.333 -53.166 -34 -71.499s-55.667 -27.5 -99 -27.5h-3c-44 0 -77.333 9.16699 -100 27.5s-34 42.166 -34 71.499c0 18 5 33.833 15 47.5s23 23.5 39 29.5c-28.667 16 -43 39.333 -43 70
c0 23.333 10.167 43.5 30.5 60.5s50.166 25.5 89.499 25.5h6c40 0 70.333 -8.5 91 -25.5s31 -37.167 31 -60.5c0 -30.667 -14.333 -54 -43 -70zM178.001 190c12 0 22.833 3 32.5 9s14.5 15.333 14.5 28c0 12 -4.33301 21.333 -13 28s-20 10 -34 10s-25.333 -3.33301 -34 -10
s-13 -16 -13 -28s4.33301 -21.167 13 -27.5s20 -9.5 34 -9.5zM178.001 56c16.667 0 30.332 4.33301 40.999 13s16 20 16 34c0 14.667 -5.16699 26.167 -15.5 34.5s-24.166 12.5 -41.499 12.5s-31.333 -4.16699 -42 -12.5s-16 -19.833 -16 -34.5
c0 -14 5.33301 -25.333 16 -34s24.667 -13 42 -13z" />
    <glyph glyph-name="nine.dnom" horiz-adv-x="360" 
d="M160 101c-33.333 0 -61.165 9.83203 -83.498 29.499s-33.5 46.167 -33.5 79.5c0 30.667 12 57.5 36 80.5s56.667 34.5 98 34.5c43.333 0 77.666 -12.833 102.999 -38.5s38 -59.5 38 -101.5v-17c0 -52 -13.333 -94.167 -40 -126.5s-64.334 -48.5 -113.001 -48.5h-3
c-45.333 0.666992 -81.333 15.667 -108 45l44 41c20.667 -14.667 42 -22 64 -22h3c20 0 36.833 7.33301 50.5 22s22.167 33.334 25.5 56.001c-16.667 -22.667 -43.667 -34 -81 -34zM181.001 256.999c-16 0 -29.166 -4.50098 -39.499 -13.501s-15.5 -20.167 -15.5 -33.5
c0 -14 5.16699 -25.333 15.5 -34s23.5 -13 39.5 -13c15.333 0 28.166 4.33301 38.499 13s15.5 19.334 15.5 32.001c0 14 -5 25.667 -15 35s-23 14 -39 14z" />
    <glyph glyph-name="zero.numr" horiz-adv-x="403" 
d="M201 707c48.667 0 89.834 -16.167 123.501 -48.5s50.5 -71.5 50.5 -117.5s-16.833 -85.167 -50.5 -117.5s-74.834 -48.5 -123.501 -48.5s-89.667 16.167 -123 48.5s-50 71.5 -50 117.5s16.667 85.167 50 117.5s74.333 48.5 123 48.5zM202 625
c-24 0 -43.833 -7.83301 -59.5 -23.5s-23.5 -35.834 -23.5 -60.501s7.83301 -44.667 23.5 -60s35.5 -23 59.5 -23s43.833 7.66699 59.5 23s23.5 35.333 23.5 60s-7.83301 44.834 -23.5 60.501s-35.5 23.5 -59.5 23.5z" />
    <glyph glyph-name="one.numr" horiz-adv-x="261" 
d="M219 382h-90v198l-39 -47l-47 36l109 131h67v-318z" />
    </font>
</defs>
</svg>
