<svg id="Слой_1" xmlns="http://www.w3.org/2000/svg" viewBox="0 0 36 35"><style>.st0{fill:#646f75}</style><path class="st0" d="M33.3.5H2.7C1.2.5 0 1.7 0 3.2v22.2c0 1.5 1.2 2.7 2.7 2.7h10.7c.1 1.1-.4 2.1-1.2 2.7l-1.1.8c-.1 0-.1.1-.2.2-.8.1-1.3.7-1.3 1.5s.7 1.5 1.5 1.5h13.8c.8 0 1.5-.7 1.5-1.5s-.6-1.4-1.3-1.5c0-.1-.1-.1-.2-.2l-1.1-.8c-.8-.6-1.3-1.6-1.2-2.7h10.7c1.5 0 2.7-1.2 2.7-2.7V3.2C36 1.7 34.8.5 33.3.5zM1.2 3.2c0-.8.7-1.5 1.5-1.5h30.6c.8 0 1.5.7 1.5 1.5v18.3H1.2V3.2zm23.7 30.3H11.1c-.2 0-.3-.1-.3-.3 0-.2.1-.3.3-.3H24.8c.2 0 .3.1.3.3.1.1 0 .3-.2.3zm-3.5-5.4c-.1 1.4.5 2.8 1.6 3.6H13c1.1-.8 1.7-2.2 1.6-3.6h6.8zm13.4-2.7c0 .8-.7 1.5-1.5 1.5H2.7c-.8 0-1.5-.7-1.5-1.5v-2.7h33.6v2.7z"/><path class="st0" d="M3 6.5c.2 0 .3-.1.4-.2l2.4-2.4c.2-.2.2-.6 0-.8-.2-.3-.6-.3-.8-.1L2.6 5.4c-.2.2-.2.6 0 .8.1.2.2.3.4.3zM3 9.5c.2 0 .3-.1.4-.2l1.2-1.2c.2-.2.2-.6 0-.8S4 7 3.8 7.2L2.6 8.4c-.2.2-.2.6 0 .8.1.2.2.3.4.3zM5 6c-.1.2-.2.3-.2.5s.1.3.2.4c.1.1.2.2.4.2s.3-.1.4-.2c.1-.1.2-.3.2-.4 0-.2-.1-.3-.2-.5-.2-.2-.6-.2-.8 0zM6.2 5.7c.1.1.3.2.4.2.2 0 .3-.1.4-.2l1.8-1.8c.2-.2.2-.6 0-.8S8.2 2.8 8 3L6.2 4.8c-.3.3-.3.7 0 .9zM8 6l-5.4 5.4c-.2.2-.2.6 0 .8.1.1.3.2.4.2s.3-.1.4-.2l5.4-5.4c.2-.2.2-.6 0-.8-.2-.2-.6-.2-.8 0zM9.2 4.8c-.1.2-.2.3-.2.5s.1.3.2.4c.1.1.3.2.4.2.2 0 .3-.1.4-.2.1-.1.2-.3.2-.4s-.1-.3-.2-.5c-.2-.2-.6-.2-.8 0zM11 3l-.6.6c-.2.2-.2.6 0 .8.1.1.3.2.4.2s.3-.1.4-.2l.6-.6c.2-.2.2-.6 0-.8s-.6-.2-.8 0z"/></svg>