<svg id="svg" version="1.1" width="400" height="314.5714285714286" viewBox="0 0 400 314.5714285714286" xmlns="http://www.w3.org/2000/svg" xmlns:xlink="http://www.w3.org/1999/xlink" ><g id="svgg"><path id="path0" d="M80.571 2.180 C 80.179 2.256,79.407 2.455,78.857 2.622 C 77.331 3.088,15.315 30.188,12.763 31.504 C 6.894 34.533,1.347 42.227,0.151 49.000 C -0.158 50.747,0.269 50.005,0.744 47.967 C 2.201 41.722,7.627 34.587,13.049 31.790 C 15.516 30.517,77.456 3.440,79.286 2.835 C 83.967 1.286,88.823 3.485,90.641 7.977 C 91.281 9.560,91.286 9.694,91.366 26.102 C 91.441 41.572,91.478 42.625,91.937 42.496 C 92.208 42.421,102.199 38.086,114.141 32.864 C 128.815 26.447,136.487 23.237,137.811 22.961 C 143.065 21.865,147.318 24.674,148.560 30.060 C 148.726 30.778,148.846 37.116,148.850 45.357 C 148.855 55.608,148.945 59.429,149.179 59.429 C 149.357 59.429,160.575 54.587,174.108 48.669 C 201.657 36.623,200.612 37.026,203.827 37.202 C 207.056 37.378,209.175 38.633,210.733 41.292 C 212.183 43.766,212.275 45.058,212.281 62.959 C 212.285 76.071,212.360 79.459,212.643 79.340 C 212.839 79.258,223.909 74.419,237.243 68.586 C 265.572 56.194,265.563 56.197,269.708 58.453 C 274.145 60.868,274.286 61.618,274.286 82.887 C 274.286 92.456,274.341 100.286,274.409 100.286 C 274.477 100.286,285.824 95.355,299.624 89.330 C 313.423 83.304,325.318 78.225,326.055 78.044 C 331.464 76.714,335.888 79.333,337.326 84.714 C 337.624 85.829,337.708 89.862,337.711 103.071 C 337.713 112.382,337.795 120.000,337.893 120.000 C 337.992 120.000,349.081 115.195,362.536 109.323 C 375.991 103.451,387.690 98.485,388.534 98.287 C 393.324 97.163,397.496 99.421,399.185 104.051 C 399.537 105.018,399.870 105.677,399.923 105.515 C 400.405 104.070,397.585 99.889,395.361 98.752 C 390.950 96.496,391.061 96.461,362.857 108.786 C 349.736 114.520,338.775 119.275,338.500 119.353 C 338.028 119.487,338.000 118.557,337.997 102.676 C 337.993 84.874,337.964 84.436,336.627 81.821 C 334.805 78.258,330.187 76.586,325.566 77.817 C 324.777 78.027,313.054 83.040,299.516 88.957 C 285.978 94.873,274.827 99.714,274.736 99.714 C 274.646 99.714,274.571 91.949,274.571 82.459 C 274.571 66.031,274.544 65.115,274.002 63.360 C 272.511 58.533,268.107 56.215,262.650 57.385 C 261.854 57.556,250.422 62.407,237.245 68.166 C 224.067 73.925,213.125 78.700,212.929 78.777 C 212.645 78.889,212.570 75.524,212.566 62.531 C 212.561 44.784,212.467 43.478,211.019 41.007 C 209.424 38.285,207.347 37.085,203.932 36.913 C 200.376 36.734,201.327 36.373,174.112 48.265 L 149.286 59.114 149.143 44.343 C 149.010 30.558,148.963 29.486,148.448 28.286 C 146.844 24.553,144.828 22.975,140.989 22.447 C 138.148 22.056,136.560 22.649,113.711 32.632 L 91.857 42.180 91.714 25.733 C 91.554 7.234,91.601 7.640,89.276 4.923 C 87.471 2.814,83.605 1.596,80.571 2.180 M35.143 206.543 C 22.964 211.859,12.310 216.372,11.466 216.570 C 7.065 217.604,2.968 215.708,1.284 211.857 C 0.940 211.071,0.519 210.107,0.349 209.714 C 0.124 209.197,0.033 223.558,0.019 261.786 L 0.000 314.571 200.000 314.571 L 400.000 314.571 400.000 289.667 C 400.000 275.969,399.931 264.830,399.848 264.914 C 399.764 264.998,399.494 265.887,399.247 266.890 C 397.721 273.102,392.379 280.234,387.235 282.929 C 385.045 284.076,322.496 311.432,320.714 312.022 C 316.034 313.571,311.177 311.372,309.359 306.880 C 308.717 305.293,308.714 305.201,308.634 287.786 C 308.574 274.627,308.471 270.286,308.219 270.286 C 308.035 270.286,297.014 275.029,283.728 280.826 C 256.726 292.607,258.021 292.095,255.286 292.090 C 251.563 292.084,248.556 289.996,247.113 286.414 L 246.429 284.714 246.345 267.071 C 246.298 257.175,246.151 249.429,246.010 249.429 C 245.872 249.429,234.852 254.202,221.522 260.037 C 193.803 272.169,194.752 271.803,191.429 271.647 C 187.214 271.449,184.874 269.510,183.407 265.000 C 183.127 264.138,182.996 259.637,182.875 246.675 L 182.714 229.493 158.571 240.044 C 131.893 251.702,132.280 251.553,129.167 251.367 C 125.598 251.154,123.491 249.685,121.881 246.288 L 121.000 244.429 120.917 229.474 C 120.852 217.931,120.754 214.551,120.488 214.656 C 120.298 214.731,108.948 219.687,95.266 225.669 C 81.583 231.651,69.819 236.677,69.123 236.837 C 65.146 237.754,61.723 236.659,59.516 233.765 C 57.592 231.243,57.602 231.338,57.436 213.224 L 57.286 196.876 35.143 206.543 " stroke="none" fill="#efefef" fill-rule="evenodd"></path><path id="path1" d="M80.857 2.467 C 80.464 2.542,79.693 2.740,79.143 2.908 C 77.616 3.374,15.601 30.473,13.049 31.790 C 8.835 33.964,4.879 38.322,2.435 43.481 C -0.090 48.812,0.159 39.742,0.074 129.277 L -0.002 208.697 0.746 210.655 C 2.596 215.497,6.610 217.711,11.466 216.570 C 12.310 216.372,22.964 211.859,35.143 206.543 L 57.286 196.876 57.436 213.224 C 57.602 231.338,57.592 231.243,59.516 233.765 C 61.723 236.659,65.146 237.754,69.123 236.837 C 69.819 236.677,81.583 231.651,95.266 225.669 C 108.948 219.687,120.298 214.731,120.488 214.656 C 120.754 214.551,120.852 217.931,120.917 229.474 L 121.000 244.429 121.881 246.288 C 123.491 249.685,125.598 251.154,129.167 251.367 C 132.280 251.553,131.893 251.702,158.571 240.044 L 182.714 229.493 182.875 246.675 C 182.996 259.637,183.127 264.138,183.407 265.000 C 184.874 269.510,187.214 271.449,191.429 271.647 C 194.752 271.803,193.803 272.169,221.522 260.037 C 234.852 254.202,245.872 249.429,246.010 249.429 C 246.151 249.429,246.298 257.175,246.345 267.071 L 246.429 284.714 247.113 286.414 C 248.556 289.996,251.563 292.084,255.286 292.090 C 258.021 292.095,256.726 292.607,283.728 280.826 C 297.014 275.029,308.035 270.286,308.219 270.286 C 308.471 270.286,308.574 274.627,308.634 287.786 C 308.714 305.201,308.717 305.293,309.359 306.880 C 311.177 311.372,316.034 313.571,320.714 312.022 C 322.496 311.432,385.045 284.076,387.235 282.929 C 391.134 280.886,395.133 276.436,397.443 271.571 C 400.124 265.922,399.848 275.498,399.930 185.580 L 400.002 106.160 399.254 104.202 C 397.404 99.361,393.392 97.147,388.534 98.287 C 387.690 98.485,375.991 103.451,362.536 109.323 C 349.081 115.195,337.992 120.000,337.893 120.000 C 337.795 120.000,337.713 112.382,337.711 103.071 C 337.708 89.862,337.624 85.829,337.326 84.714 C 335.888 79.333,331.464 76.714,326.055 78.044 C 325.318 78.225,313.423 83.304,299.624 89.330 C 285.824 95.355,274.477 100.286,274.409 100.286 C 274.341 100.286,274.286 92.456,274.286 82.887 C 274.286 61.618,274.145 60.868,269.708 58.453 C 265.563 56.197,265.572 56.194,237.243 68.586 C 223.909 74.419,212.839 79.258,212.643 79.340 C 212.360 79.459,212.285 76.071,212.281 62.959 C 212.275 45.058,212.183 43.766,210.733 41.292 C 209.175 38.633,207.056 37.378,203.827 37.202 C 200.612 37.026,201.657 36.623,174.108 48.669 C 160.575 54.587,149.357 59.429,149.179 59.429 C 148.945 59.429,148.855 55.608,148.850 45.357 C 148.846 37.116,148.726 30.778,148.560 30.060 C 147.318 24.674,143.065 21.865,137.811 22.961 C 136.487 23.237,128.815 26.447,114.141 32.864 C 102.199 38.086,92.208 42.421,91.937 42.496 C 91.478 42.625,91.441 41.572,91.366 26.102 C 91.276 7.493,91.326 7.938,88.990 5.209 C 87.250 3.176,83.596 1.944,80.857 2.467 " stroke="none" fill="transparent" fill-rule="evenodd"></path><path id="path2" d="M0.024 24.643 C 0.045 46.647,0.091 49.105,0.456 47.596 C 1.961 41.378,7.392 34.276,12.763 31.504 C 15.201 30.247,77.137 3.168,79.000 2.546 C 82.528 1.367,87.146 2.435,89.276 4.923 C 91.601 7.640,91.554 7.234,91.714 25.733 L 91.857 42.180 113.711 32.632 C 136.560 22.649,138.148 22.056,140.989 22.447 C 144.828 22.975,146.844 24.553,148.448 28.286 C 148.963 29.486,149.010 30.558,149.143 44.343 L 149.286 59.114 174.112 48.265 C 201.327 36.373,200.376 36.734,203.932 36.913 C 207.347 37.085,209.424 38.285,211.019 41.007 C 212.467 43.478,212.561 44.784,212.566 62.531 C 212.570 75.524,212.645 78.889,212.929 78.777 C 213.125 78.700,224.067 73.925,237.245 68.166 C 250.422 62.407,261.854 57.556,262.650 57.385 C 268.107 56.215,272.511 58.533,274.002 63.360 C 274.544 65.115,274.571 66.031,274.571 82.459 C 274.571 91.949,274.646 99.714,274.736 99.714 C 274.827 99.714,285.978 94.873,299.516 88.957 C 313.054 83.040,324.777 78.027,325.566 77.817 C 330.187 76.586,334.805 78.258,336.627 81.821 C 337.964 84.436,337.993 84.874,337.997 102.676 C 338.000 118.557,338.028 119.487,338.500 119.353 C 338.775 119.275,349.736 114.520,362.857 108.786 C 375.979 103.052,387.404 98.199,388.246 98.001 C 393.213 96.836,397.472 98.884,399.293 103.312 L 399.986 105.000 399.993 52.500 L 400.000 0.000 200.000 0.000 L 0.000 0.000 0.024 24.643 " stroke="none" fill="#efefef" fill-rule="evenodd"></path></g></svg>