<svg id="Слой_1" xmlns="http://www.w3.org/2000/svg" xmlns:xlink="http://www.w3.org/1999/xlink" viewBox="0 0 36 36"><style>.st1{fill:#646f75}</style><defs><path id="SVGID_1_" d="M0 .6h36v35H0z"/></defs><clipPath id="SVGID_2_"><use xlink:href="#SVGID_1_" overflow="visible"/></clipPath><g clip-path="url(#SVGID_2_)"><path class="st1" d="M18.9 31.6c0 .6-.5 1.1-1.1 1.1-.6 0-1.1-.5-1.1-1.1 0-.6.5-1.1 1.1-1.1.6 0 1.1.5 1.1 1.1z"/><path class="st1" d="M30.2.7H5.4c-.9 0-1.7.8-1.7 1.7v30.4c0 .9.8 1.7 1.7 1.7h24.8c.9 0 1.7-.8 1.7-1.7V2.4c0-.9-.8-1.7-1.7-1.7zm.6 32.1c0 .3-.3.6-.6.6H5.4c-.3 0-.6-.3-.6-.6V2.4c0-.3.3-.6.6-.6h24.8c.3 0 .6.3.6.6v30.4z"/><path class="st1" d="M28.6 3.8H7.4c-.6 0-1.1.5-1.1 1.1v24.3c0 .6.5 1.1 1.1 1.1h21.2c.6 0 1.1-.5 1.1-1.1V4.9c-.1-.6-.5-1.1-1.1-1.1zM7.4 29.2V4.9h21.2v24.3H7.4z"/></g></svg>