<svg id="Слой_1" xmlns="http://www.w3.org/2000/svg" viewBox="0 0 118 90"><style>.st0{fill:#df947b}</style><switch><g><path class="st0" d="M43.4 75.2c-1.2.7-2.4 1.3-3.7 1.8-2.3.9-4.3 1.6-5.5 1.6-1.3 0-2.1-.7-2.1-1.8 0-.6.3-1.6 1-2.9.5-1.1 1.2-2.2 2.1-3.1l1.7-1.7c.7-.7 1.1-1 1.3-1.1h.6c.5-.3 1.6-.7 2-.7.4 0 .8.1 1.1.4.2.1.4.3.5.6.1.2.2.5.2.7 0 1.2-.4 2.1-1.3 2.8-.7.6-1.7.9-2.6.9-.9 0-2-.3-2.3-.6l-1 .9c-.7.7-1.2 1.7-1.4 2.6-.1.2-.1.5-.1.7 0 .2.1.3.3.5.1.1.2.2.3.2.6 0 1.4-.2 2.5-.6.6-.2 1.2-.5 1.9-.7.9-.4 1.8-.8 2.7-1.3l3.2-1.7c.4 0 .6.3.6.9 0 .4-.7.8-2 1.6zm-2.7-6c-.3-.1-.5 0-1.3.4-.7.3-1.2.8-1.6 1.4.3.3.7.4 1.2.4.6 0 .9-.2 1.4-.8.5-.6.7-.9.6-1.1-.1-.2-.2-.3-.3-.3z"/><path class="st0" d="M52.4 75.6c-1 .7-2 1.3-3 1.8-.7.3-1.4.6-2.1.8-.6.2-1.2.2-1.9.2-.9 0-1.5-.3-1.9-.9-.3-.5-.5-1-.5-1.6 0-1.5.6-3.3 2.2-5.5.7-.9 1.5-1.7 2.3-2.4 1.1-.8 2-1.3 2.9-1.3.3 0 .6.1.8.4.2.2.3.5.3.8 0 .9-.3 1.8-1 2.7-.5.7-1.1 1.4-1.7 2.1-.6.6-1.5 1.3-2.7 2.1l-1.5.9c0 .5.4 1.1.9 1.1.7 0 1.3-.2 2-.4 1.3-.5 2.5-1.1 3.6-1.8 1.6-1 2.4-1.5 2.5-1.5.3-.1.5.4.5.8s-.6.9-1.7 1.7zm-2.5-7.2c-.2 0-.7.2-1.3.7-1.1.9-2.1 2-2.8 3.2-.1.1-.4.6-.9 1.5.9-.3 1.9-1 2.9-2 .6-.5 1.1-1.1 1.5-1.7.5-.7.7-1.1.8-1.3.1-.3.1-.4-.2-.4z"/><path class="st0" d="M65.9 75.2c-.7.5-1.5 1-2.2 1.4-.8.4-1.6.8-2.5 1.1-.9.3-1.5.5-2 .5-1.1 0-1.6-.6-1.6-1.7 0-.4.2-1 .7-1.8.2-.3.6-1 1.3-2.1l.7-1c.5-.7.7-1.2.7-1.4 0-.2-.1-.3-.3-.3-.7 0-1.7.6-2.8 1.4-.6.5-1.1 1-1.6 1.5l-2.5 3.9-3 4.5-3.6 5.2c-1 1.4-1.6 2.2-1.9 2.2-.4 0-.9-.2-.9-.6 0-.2.7-1.5 1.4-2.7.5-.8 1.1-1.7 1.8-2.7l2.4-3.5 3.9-5.5c0-.1 0-.6.2-1.4 0-.3.5-.8 1.4-1.7l1.5-1.4 2.8-2.7 1.6-1.7c.6-.6 1-1 1.2-1 .5-.1.8.6.8 1.3 0 .2-.2.5-.7.9l-1.1 1-1.7 1.8.6-.1c.4-.1.7-.1 1.1-.1.6 0 1.1.6 1.1 1.4 0 1.1-1.5 3.2-2.7 5-.5.7-.7 1.2-.7 1.4 0 .3.2.5.7.5.4 0 1-.2 1.9-.6l1.4-.7c.3-.2.9-.5 1.6-.9 1.2-.7 1.7-1 1.8-1 .4-.1.5.2.5.7-.3.1-.6.4-1.3.9z"/><path class="st0" d="M79.2 62.5c-.7 1.1-1.6 2.1-2.6 2.9l-2.7 2.1c-.8.5-2 1.3-3.6 2.1-.2.2-.4.5-.6.8.5.3 1.4 1.2 1.4 1.7 0 .8-.1 1.3-.5 2.1h.4c.3 0 .6 0 .9-.1.7-.2 1.2-.3 2.8-1 .2-.1.5-.2.7-.3.2 0 .5.2.5.6 0 .6-1.3 1.4-2.7 1.8-.4.1-1.2.3-2.3.6-.5.1-.9.2-1.4.3-2 1.9-4.1 3.4-5 3.4-.8 0-1.3-.6-1.3-1.2 0-.4.1-.8.3-1.2 0-.1.3-.6.8-1.4.3-.7.7-1.4 1.2-2 .2-.7.4-1.3.7-1.9.3-.6 1.4-1.4 1.7-1.7.9-1.2 1.7-2.3 2.7-3.5 1.2-1.6 2.4-3.1 3.6-4.4 2-2.3 3.9-3.7 4.8-3.7.5 0 1.4.8 1.4 1.3-.1.8-.5 1.6-1.2 2.7zM66.1 75.3l-.7 1.3c-.3.5-.4.8-.4.9.1.2.1.3.2.3.2 0 .6-.2 1.1-.6.5-.4.9-.8 1.3-1.3l-1.5-.6zm2.8-3.4c-.5 0-.9.3-1.3 1-.2.3-.3.6-.4.9.4.4 1 .7 1.5.7l.5-.8c.2-.4.3-.8.4-1.2 0-.4-.2-.6-.7-.6zm9.5-11.6c-.2-.1-.7.3-1.4 1s-1.3 1.4-1.9 2.1c-.3.4-.8 1-1.4 1.7-1.1 1.3-1.7 2-1.9 2.2.7-.4 1.4-.8 2-1.3.9-.7 1.7-1.4 2.5-2.1 1.1-1.1 2.2-2.5 2.3-3 .1-.3 0-.5-.2-.6z"/><path class="st0" d="M90.3 74.4c-.8.6-1.7 1.1-2.6 1.5-1.8.8-3 1.3-4.2 1.3-.8 0-1.4-.2-1.8-.6-.2-.2-.4-.7-.7-1.3l-3.5 2.3c-1.2.6-2.2.9-3.2.9s-1.4-.7-1.4-1.6c0-.7.4-1.6 1.3-2.8.9-1.1 1.8-2.2 2.8-3.2.8-.8 1.6-1.5 2.5-2.3.9-.8 1.4-1.2 1.7-1.2.6 0 .8.4.8.9 0 .2-.6.8-1.7 1.7-.9.7-1.5 1.2-1.8 1.5-.8.8-1.6 1.7-2.3 2.6-1 1.2-1.5 2-1.6 2.3-.1.3 0 .5.3.5.6 0 1.6-.5 3.1-1.4 1.2-.8 2.6-1.9 4.3-3.2l3.5-3 1.6-1.5c1-.9 1.5-1.4 1.7-1.4.6 0 .9.7.9 1.3 0 .2-.2.5-.5.8-1.2.9-2.1 1.7-3 2.4-.7.6-1.4 1.2-2.1 1.9-1 .9-1.4 1.6-1.4 2.1s.3.8.6.8c.5 0 1-.1 1.4-.2l1.7-.6c1.2-.4 2.8-1.4 4.3-2.3.4 0 .6.2.6.7-.1.2-.5.6-1.3 1.1z"/><path class="st0" d="M100 75.2c-1.2.7-2.4 1.3-3.7 1.8-2.3.9-4.3 1.6-5.5 1.6-1.3 0-2.1-.7-2.1-1.7 0-.6.3-1.6 1-2.9.5-1.1 1.3-2.2 2.1-3.1l1.7-1.7c.7-.7 1.1-1 1.3-1.1h.6c.5-.3 1.6-.7 2-.7.4 0 .8.1 1.1.4.2.1.4.3.5.6.1.2.2.5.2.7 0 1.2-.4 2.1-1.3 2.8-.7.6-1.7.9-2.6.9-.9 0-2-.3-2.3-.6l-1 .9c-.7.7-1.2 1.7-1.4 2.6-.1.2-.1.5-.1.7 0 .2.1.3.3.5.1.1.2.2.3.2.6 0 1.4-.2 2.5-.6.6-.2 1.2-.5 1.9-.7.9-.4 1.8-.8 2.7-1.3l3.2-1.7c.4 0 .6.3.6 1-.1.2-.7.6-2 1.4zm-2.7-6c-.3-.1-.5 0-1.3.4-.7.3-1.2.8-1.6 1.4.3.3.7.4 1.2.4.6 0 .9-.2 1.4-.8.5-.6.7-.9.6-1.1-.2-.2-.2-.3-.3-.3z"/><g><path d="M15.7 5.4l1.5-.6c.4-.2.8-.3 1.3-.3s1 .2 1.5.5c.4.3.7.7.9 1.2.2.5.3 1 .3 1.6v.5l1.2-.5c.4-.2.8-.3 1.3-.3s1 .2 1.4.5c.4.3.7.7.9 1.2.2.5.3 1 .3 1.6l-.2 31c0 1.2-.4 2.3-1 3.3s-1.4 1.8-2.4 2.3l-6.9 3v-1.6l6.4-2.8c.7-.4 1.4-1 1.8-1.7.5-.8.8-1.6.8-2.5l.2-31c0-.3-.1-.7-.2-1-.1-.2-.2-.4-.4-.6-.2-.1-.4-.2-.6-.2-.3 0-.5.1-.7.2l-1.7.7-.4 28.8c0 1.2-.4 2.3-1 3.3s-1.4 1.8-2.4 2.3l-1.9.7v-1.6l1.3-.5c.7-.4 1.4-1 1.8-1.7.5-.8.8-1.6.8-2.5l.2-28.3-4 1.7v-1.6l4-1.7V7.7c0-.3 0-.7-.2-1-.1-.2-.2-.4-.4-.6-.2-.1-.5-.2-.7-.2-.3 0-.5.1-.7.2l-2.1.9V5.4zm-12 5.2l12.1-5.2V7L4.3 12c-.7.4-1.4.9-1.8 1.7-.5.8-.8 1.6-.8 2.5l-.2 31c0 .3.1.7.2 1 .1.2.2.4.4.6.2.1.4.2.6.2.3 0 .5-.1.7-.2l1.8-.8.2-28.9c0-1.2.4-2.3 1-3.3s1.4-1.8 2.4-2.3l7-3v1.6l-6.4 2.8c-.7.4-1.4.9-1.8 1.7-.5.8-.8 1.6-.8 2.5l-.2 28.3 9.1-3.9V45l-9.1 4v1c0 .3 0 .7.2 1 .1.2.2.4.4.6.2.1.4.2.6.2.3 0 .5-.1.7-.2l7.2-3.1v1.6L9.1 53c-.4.2-.8.3-1.3.3s-1-.2-1.5-.5c-.4-.3-.8-.7-.9-1.2-.2-.5-.3-1-.3-1.6v-.5l-1.1.6c-.4.2-.8.3-1.3.3s-1-.2-1.4-.5c-.4-.3-.7-.7-.9-1.2-.2-.5-.3-1-.3-1.6l.2-31c0-1.2.4-2.3 1-3.3.5-1 1.3-1.8 2.4-2.2z" fill="#1a1a1a"/><path d="M97.6 0h-4.1v23.7h4.1V0zM45.6 9.4c-.5-.7-1.2-1.3-2-1.7-.8-.4-1.6-.6-2.5-.7v4c.6 0 1.2.1 1.7.3.5.2 1 .6 1.5 1 .4.4.7.9 1 1.5s.3 1.2.3 1.8c0 .6-.1 1.2-.3 1.8-.2.6-.6 1.1-1 1.5-.4.4-.9.7-1.4 1-.5.2-1.1.3-1.7.3v4c.9 0 1.7-.3 2.5-.7.8-.4 1.4-1 2-1.7v1.9h4.1V7.5h-4.1v1.9zm-4.5-2.3h-.8c-1 0-2.1.2-3 .6-.9.4-1.8 1.1-2.5 1.9-1.5 1.7-2.3 3.8-2.3 6.1s.8 4.4 2.3 6.1c.7.8 1.5 1.4 2.5 1.8.9.4 2 .6 3 .6h.8v-4c-.6 0-1.2-.1-1.7-.3-.5-.2-1-.5-1.5-1-.4-.4-.7-1-1-1.5-.2-.6-.3-1.2-.3-1.8 0-.6.1-1.2.3-1.8.2-.6.5-1.1 1-1.5.4-.4.9-.8 1.4-1 .5-.2 1.1-.3 1.7-.3l.1-3.9zM62.7 7h-.8v4c.6 0 1.2.1 1.7.3.5.2 1 .6 1.5 1 .4.4.7.9 1 1.5.2.6.3 1.2.3 1.8 0 .6-.1 1.2-.3 1.8-.2.6-.6 1.1-1 1.5-.4.4-.9.7-1.4 1-.5.2-1.1.3-1.7.3v4h.8c1 0 2.1-.2 3-.6 1-.4 1.8-1.1 2.5-1.9 1.5-1.7 2.3-3.8 2.3-6.1s-.8-4.4-2.3-6.1c-.7-.8-1.5-1.4-2.5-1.9-1-.4-2-.6-3.1-.6zm-.7.1c-1.9.2-3.4.9-4.4 2.3V7.5h-4.1v22.8h4.1v-8.4c1.1 1.4 2.6 2.2 4.4 2.3v-4c-.6 0-1.2-.1-1.7-.3-.5-.2-1-.5-1.5-1-.4-.4-.7-1-.9-1.5-.2-.6-.3-1.2-.3-1.8 0-.6.1-1.2.3-1.8.2-.6.5-1.1 1-1.5.4-.4.9-.8 1.4-1 .5-.2 1.1-.3 1.7-.3V7.1zM82 7.1h.8c1 0 2.1.2 3 .6.9.4 1.8 1.1 2.5 1.9 1.5 1.7 2.3 3.8 2.3 6.1s-.8 4.4-2.3 6.1c-.7.8-1.5 1.4-2.5 1.8-.9.4-2 .6-3 .6H82v-4c.6 0 1.2-.1 1.7-.3.5-.2 1-.5 1.4-1 .4-.4.8-1 1-1.5.2-.6.3-1.2.3-1.8 0-.6-.1-1.2-.3-1.8-.2-.6-.5-1.1-1-1.5-.4-.4-.9-.8-1.5-1-.4-.2-1-.3-1.6-.3V7.1zm-4.4 2.3c1-1.4 2.5-2.2 4.4-2.3v4c-.6 0-1.2.1-1.7.3-.5.2-1 .6-1.4 1-.4.4-.7.9-1 1.5-.2.6-.3 1.2-.3 1.8 0 .6.1 1.2.3 1.8.2.6.5 1.1.9 1.5.4.4.9.7 1.5 1 .5.2 1.1.3 1.7.3v4c-1.9-.2-3.4-.9-4.4-2.3v8.4h-4.1V7.5h4.1v1.9zM117 15.6c0 .6-.1 1.2-.2 1.7h-8V14h4.1c-.5-2.2-2.1-3.3-4-3.3h-.1V7h.1c2.3 0 4.3.8 5.8 2.5.8.8 1.4 1.8 1.7 2.8.5 1.1.7 2.2.6 3.3zm-8.2 4.8h.5c1.6 0 2.8-.6 3.6-1.6l3.3 2c-1.6 2.3-3.9 3.5-7 3.5h-.4v-3.9zm0-3.1h-4c.5 1.9 1.8 2.9 4 3v3.8c-2.4-.1-4.4-.9-5.9-2.4-1.6-1.6-2.4-3.7-2.4-6.1 0-1.1.2-2.3.6-3.3.4-1.1 1-2 1.8-2.8 1.5-1.6 3.5-2.4 6-2.5v3.8c-2.1 0-3.6 1.2-4.1 3.3h4.1v3.2zM117.8 34.9l-6.2 8 6.4 8.2h-4.6l-5.6-7.4v7.4h-4V28.4h4V42l5.3-7.1h4.7zM42.6 34.9h-3.5v-4.5l-4 1.3V35h-2.7v4h2.7v6.7c0 4.4 2 6.1 7.5 5.4v-3.8c-2.3.1-3.5.1-3.5-1.7v-6.7h3.5v-4zM58.1 49.1c1.5-1.6 2.4-3.8 2.4-6.1s-.9-4.4-2.4-6.1c-.7-.8-1.6-1.4-2.6-1.9-1-.4-2.1-.6-3.1-.6v4.1c.6 0 1.1.1 1.6.3.5.2 1 .5 1.4.9.8.9 1.2 2 1.2 3.2 0 1.2-.4 2.3-1.2 3.2-.4.4-.8.7-1.4.9-.5.2-1.1.3-1.6.3v4.1c1.1 0 2.1-.2 3.1-.6s1.9-1 2.6-1.7zm-5.8-14.7c-1.1 0-2.2.2-3.2.6-1 .4-1.9 1.1-2.6 1.9-1.5 1.6-2.3 3.8-2.3 6.1s.8 4.4 2.3 6.1c.7.8 1.7 1.4 2.6 1.8 1 .4 2.1.6 3.2.6v-4.1c-.6 0-1.1-.1-1.6-.3-.5-.2-1-.5-1.4-1-.8-.9-1.2-2-1.2-3.2 0-1.2.4-2.3 1.2-3.2.4-.4.9-.7 1.4-1 .5-.2 1.1-.3 1.6-.3v-4zM75.8 36.7c1-1.6 2.6-2.3 4.6-2.3 3.6 0 5.8 2.6 5.8 6.7v10h-4v-9.7c0-1.9-1-3.1-2.6-3.1-1.8 0-2.9 1.3-2.9 3.7v9.1h-4v-9.7c0-1.9-1-3.1-2.6-3.1-1.8 0-2.9 1.3-2.9 3.7v9.1h-4V34.9h4v1.7c.9-1.5 2.3-2.2 4.3-2.2s3.4.8 4.3 2.3zM93.3 39.5c0-.8.8-1.3 1.8-1.3.5 0 1.1.1 1.5.4.4.3.8.7 1 1.2l3.4-1.9c-.6-1.1-1.4-1.9-2.5-2.6-1-.6-2.2-.9-3.4-.9-1.5-.1-3 .4-4.2 1.4-1.1.9-1.7 2.2-1.7 3.8 0 3.4 2.9 4.4 5.2 5 1.6.4 2.8.9 2.8 1.8s-.7 1.4-2.1 1.4c-1.6 0-2.6-.7-3-2.1l-3.5 2c1.1 2.6 3.3 3.9 6.5 3.9 1.8 0 3.2-.5 4.4-1.3 1.2-.9 1.8-2.2 1.8-3.9 0-3.5-2.9-4.6-5.2-5.1-1.6-.5-2.8-1-2.8-1.8z"/></g></g></switch></svg>