<svg id="ipone" xmlns="http://www.w3.org/2000/svg" viewBox="0 0 22 35"><style>.st0{fill:#646f75}</style><path class="st0" d="M19.8.6H2.2C1 .6 0 1.5 0 2.7v29.7c0 1.2 1 2.2 2.2 2.2h17.6c1.2 0 2.2-1 2.2-2.2V2.7c0-1.2-1-2.1-2.2-2.1zM1.1 6h19.7v22.5H1.1V6zm1.1-4.3h17.6c.6 0 1.1.5 1.1 1.1v2.5H1.1V2.7c0-.6.5-1 1.1-1zm17.6 31.8H2.2c-.6 0-1.1-.5-1.1-1.1v-3.2h19.7v3.2c.1.6-.4 1.1-1 1.1z"/><path class="st0" d="M11 29.7c-1 0-1.8.8-1.8 1.8s.8 1.8 1.8 1.8 1.8-.8 1.8-1.8-.8-1.8-1.8-1.8zm0 2.8c-.6 0-1-.5-1-1 0-.6.5-1 1-1 .6 0 1 .5 1 1s-.4 1-1 1zM8.6 4h4.9c.2 0 .4-.2.4-.4s-.2-.4-.4-.4H8.6c-.2 0-.4.2-.4.4s.2.4.4.4zM7.3 4c.1 0 .2 0 .3-.1.1-.1.1-.2.1-.3s0-.2-.1-.3h-.3c-.1 0-.2 0-.3.1-.1.1-.1.1-.1.2s0 .2.1.3c.1.1.2.1.3.1z"/></svg>