<svg width="413" height="130" fill="none" xmlns="http://www.w3.org/2000/svg"><path d="M148.494 1.279a711.532 711.532 0 0 0-52.222 9.592c-8.137 1.81-16.135 3.789-24.105 5.789-6.576 1.65-13.125 3.336-19.395 5.285-12.275 3.818-23.826 8.724-32.437 14.717-8.792 6.103-16.372 13.25-19.019 20.849-3.08 8.81-.209 17.739 7.566 25.681 7.273 7.432 18.253 13.52 30.207 18.951 23.52 10.687 51.22 18.681 81.232 23.075 28.493 4.176 58.478 5.103 87.849 3.468 29.4-1.635 58.479-5.665 85.704-11.695 28.592-6.329 55.051-15.169 77.539-26.397 22.015-10.993 47.36-26.01 40.128-43.274-3.302-7.884-13.013-14.746-23.533-20.455-10.464-5.672-22.809-10.373-36.143-14.023-12.192-3.343-25.192-5.84-38.582-7.475-18.099-2.212-36.672-2.927-55.176-3.54-9.126-.307-18.252-.592-27.351-1.03-1.435-.066-1.421 1.102 0 1.175 33.998 1.628 68.72 1.3 101.212 7.534 27.156 5.212 52.626 14.469 68.468 27.324 4.222 3.424 7.525 7.154 9.099 11.162 1.7 4.336 1.198 8.833-1.017 13.089-4.11 7.89-13.585 14.526-23.77 20.57-20.691 12.28-45.73 22.368-73.555 29.829-25.79 6.92-53.796 11.716-82.29 14.454-28.438 2.73-57.823 3.234-86.386.686-29.316-2.613-57.336-8.475-81.915-17.25-12.86-4.592-25.205-9.906-35.571-16.009-10.882-6.41-19.187-14.17-21.862-22.71-5.016-16.016 11.885-31.77 34.778-41.807 11.09-4.862 23.826-8.3 36.798-11.542 16.12-4.03 32.437-7.738 49.324-10.804a717.746 717.746 0 0 1 25.024-4.088c1.379-.204.794-1.336-.599-1.131z" fill="#F46841"/></svg>